<?xml version="1.0" encoding="utf-8" standalone="no"?>
<!DOCTYPE svg PUBLIC "-//W3C//DTD SVG 1.1//EN"
  "http://www.w3.org/Graphics/SVG/1.1/DTD/svg11.dtd">
<!-- Created with matplotlib (http://matplotlib.org/) -->
<svg height="441pt" version="1.1" viewBox="0 0 577 441" width="577pt" xmlns="http://www.w3.org/2000/svg" xmlns:xlink="http://www.w3.org/1999/xlink">
 <defs>
  <style type="text/css">
*{stroke-linecap:butt;stroke-linejoin:round;stroke-miterlimit:100000;}
  </style>
 </defs>
 <g id="figure_1">
  <g id="patch_1">
   <path d="M 0 441 
L 577 441 
L 577 0 
L 0 0 
z
" style="fill:#ffffff;"/>
  </g>
  <g id="axes_1">
   <g id="patch_2">
    <path d="M 48.84375 395.18625 
L 552.88 395.18625 
L 552.88 28.90175 
L 48.84375 28.90175 
z
" style="fill:#ffffff;"/>
   </g>
   <g id="PathCollection_1">
    <defs>
     <path d="M 0 2.236068 
C 0.593012 2.236068 1.161816 2.000462 1.581139 1.581139 
C 2.000462 1.161816 2.236068 0.593012 2.236068 0 
C 2.236068 -0.593012 2.000462 -1.161816 1.581139 -1.581139 
C 1.161816 -2.000462 0.593012 -2.236068 0 -2.236068 
C -0.593012 -2.236068 -1.161816 -2.000462 -1.581139 -1.581139 
C -2.000462 -1.161816 -2.236068 -0.593012 -2.236068 0 
C -2.236068 0.593012 -2.000462 1.161816 -1.581139 1.581139 
C -1.161816 2.000462 -0.593012 2.236068 0 2.236068 
z
" id="mf5d147d2a9" style="stroke:#000000;"/>
    </defs>
    <g clip-path="url(#paa82f6a192)">
     <use style="fill:#0000ff;stroke:#000000;" x="214.977062656" xlink:href="#mf5d147d2a9" y="310.769882233"/>
     <use style="fill:#0000ff;stroke:#000000;" x="346.8248077" xlink:href="#mf5d147d2a9" y="111.785827608"/>
     <use style="fill:#0000ff;stroke:#000000;" x="350.261702584" xlink:href="#mf5d147d2a9" y="136.949572758"/>
     <use style="fill:#0000ff;stroke:#000000;" x="331.270492116" xlink:href="#mf5d147d2a9" y="317.466783842"/>
     <use style="fill:#0000ff;stroke:#000000;" x="402.762845359" xlink:href="#mf5d147d2a9" y="118.519357667"/>
     <use style="fill:#0000ff;stroke:#000000;" x="475.091198678" xlink:href="#mf5d147d2a9" y="82.4098107083"/>
     <use style="fill:#0000ff;stroke:#000000;" x="478.589391566" xlink:href="#mf5d147d2a9" y="90.9930774917"/>
     <use style="fill:#0000ff;stroke:#000000;" x="464.532302675" xlink:href="#mf5d147d2a9" y="116.596364042"/>
     <use style="fill:#0000ff;stroke:#000000;" x="240.949834818" xlink:href="#mf5d147d2a9" y="187.24653935"/>
     <use style="fill:#0000ff;stroke:#000000;" x="473.500102417" xlink:href="#mf5d147d2a9" y="93.3617172583"/>
     <use style="fill:#0000ff;stroke:#000000;" x="243.527722752" xlink:href="#mf5d147d2a9" y="232.018714733"/>
     <use style="fill:#0000ff;stroke:#000000;" x="314.690321099" xlink:href="#mf5d147d2a9" y="178.138264783"/>
     <use style="fill:#0000ff;stroke:#000000;" x="363.352366473" xlink:href="#mf5d147d2a9" y="121.376376767"/>
     <use style="fill:#0000ff;stroke:#000000;" x="401.556583164" xlink:href="#mf5d147d2a9" y="268.647164733"/>
     <use style="fill:#0000ff;stroke:#000000;" x="377.711639124" xlink:href="#mf5d147d2a9" y="136.40625075"/>
     <use style="fill:#0000ff;stroke:#000000;" x="389.673648771" xlink:href="#mf5d147d2a9" y="132.651834625"/>
     <use style="fill:#0000ff;stroke:#000000;" x="231.187659239" xlink:href="#mf5d147d2a9" y="259.081034542"/>
     <use style="fill:#0000ff;stroke:#000000;" x="155.286099623" xlink:href="#mf5d147d2a9" y="275.655408167"/>
     <use style="fill:#0000ff;stroke:#000000;" x="256.163056149" xlink:href="#mf5d147d2a9" y="213.735013442"/>
     <use style="fill:#0000ff;stroke:#000000;" x="268.952346911" xlink:href="#mf5d147d2a9" y="270.46637775"/>
     <use style="fill:#0000ff;stroke:#000000;" x="478.977649312" xlink:href="#mf5d147d2a9" y="85.9627703583"/>
     <use style="fill:#0000ff;stroke:#000000;" x="191.454905284" xlink:href="#mf5d147d2a9" y="305.196253092"/>
     <use style="fill:#0000ff;stroke:#000000;" x="255.748250114" xlink:href="#mf5d147d2a9" y="269.117229842"/>
     <use style="fill:#0000ff;stroke:#000000;" x="404.968851131" xlink:href="#mf5d147d2a9" y="98.7827278583"/>
     <use style="fill:#0000ff;stroke:#000000;" x="333.692136147" xlink:href="#mf5d147d2a9" y="132.920443258"/>
     <use style="fill:#0000ff;stroke:#000000;" x="358.911076521" xlink:href="#mf5d147d2a9" y="133.359984658"/>
     <use style="fill:#0000ff;stroke:#000000;" x="215.838023704" xlink:href="#mf5d147d2a9" y="180.592370933"/>
     <use style="fill:#0000ff;stroke:#000000;" x="123.330922603" xlink:href="#mf5d147d2a9" y="294.689992683"/>
     <use style="fill:#0000ff;stroke:#000000;" x="310.978308134" xlink:href="#mf5d147d2a9" y="240.601981517"/>
     <use style="fill:#0000ff;stroke:#000000;" x="382.230966613" xlink:href="#mf5d147d2a9" y="97.3847420167"/>
     <use style="fill:#0000ff;stroke:#000000;" x="248.586298913" xlink:href="#mf5d147d2a9" y="283.298544733"/>
     <use style="fill:#0000ff;stroke:#000000;" x="412.577188964" xlink:href="#mf5d147d2a9" y="115.906528233"/>
     <use style="fill:#0000ff;stroke:#000000;" x="376.758136511" xlink:href="#mf5d147d2a9" y="100.492055525"/>
     <use style="fill:#0000ff;stroke:#000000;" x="445.111815271" xlink:href="#mf5d147d2a9" y="111.401228883"/>
     <use style="fill:#0000ff;stroke:#000000;" x="476.856063019" xlink:href="#mf5d147d2a9" y="100.131875767"/>
     <use style="fill:#0000ff;stroke:#000000;" x="270.381318736" xlink:href="#mf5d147d2a9" y="243.843599342"/>
     <use style="fill:#0000ff;stroke:#000000;" x="347.902580776" xlink:href="#mf5d147d2a9" y="137.352485708"/>
     <use style="fill:#0000ff;stroke:#000000;" x="357.509319541" xlink:href="#mf5d147d2a9" y="120.50950345"/>
     <use style="fill:#0000ff;stroke:#000000;" x="342.314842239" xlink:href="#mf5d147d2a9" y="142.828438983"/>
     <use style="fill:#0000ff;stroke:#000000;" x="344.214001234" xlink:href="#mf5d147d2a9" y="139.531878483"/>
     <use style="fill:#0000ff;stroke:#000000;" x="399.102310149" xlink:href="#mf5d147d2a9" y="263.452029575"/>
     <use style="fill:#0000ff;stroke:#000000;" x="184.44770022" xlink:href="#mf5d147d2a9" y="224.009293667"/>
     <use style="fill:#0000ff;stroke:#000000;" x="189.865672388" xlink:href="#mf5d147d2a9" y="255.100742975"/>
     <use style="fill:#0000ff;stroke:#000000;" x="472.440980196" xlink:href="#mf5d147d2a9" y="94.1431241917"/>
     <use style="fill:#0000ff;stroke:#000000;" x="466.16437576" xlink:href="#mf5d147d2a9" y="85.9383513917"/>
     <use style="fill:#0000ff;stroke:#000000;" x="405.161630255" xlink:href="#mf5d147d2a9" y="231.975981542"/>
     <use style="fill:#0000ff;stroke:#000000;" x="196.131644735" xlink:href="#mf5d147d2a9" y="215.4138174"/>
     <use style="fill:#0000ff;stroke:#000000;" x="470.126675838" xlink:href="#mf5d147d2a9" y="93.5753832167"/>
     <use style="fill:#0000ff;stroke:#000000;" x="237.533107048" xlink:href="#mf5d147d2a9" y="211.909695683"/>
     <use style="fill:#0000ff;stroke:#000000;" x="458.782966316" xlink:href="#mf5d147d2a9" y="93.1053181083"/>
     <use style="fill:#0000ff;stroke:#000000;" x="336.957036518" xlink:href="#mf5d147d2a9" y="149.415455242"/>
     <use style="fill:#0000ff;stroke:#000000;" x="212.546728638" xlink:href="#mf5d147d2a9" y="236.420233475"/>
     <use style="fill:#0000ff;stroke:#000000;" x="177.012163272" xlink:href="#mf5d147d2a9" y="295.141743567"/>
     <use style="fill:#0000ff;stroke:#000000;" x="230.25871973" xlink:href="#mf5d147d2a9" y="206.452056633"/>
     <use style="fill:#0000ff;stroke:#000000;" x="309.26652937" xlink:href="#mf5d147d2a9" y="149.787844483"/>
     <use style="fill:#0000ff;stroke:#000000;" x="485.517852364" xlink:href="#mf5d147d2a9" y="76.4698970667"/>
     <use style="fill:#0000ff;stroke:#000000;" x="427.793031198" xlink:href="#mf5d147d2a9" y="130.61895565"/>
     <use style="fill:#0000ff;stroke:#000000;" x="478.698974929" xlink:href="#mf5d147d2a9" y="79.2231355583"/>
     <use style="fill:#0000ff;stroke:#000000;" x="282.306239333" xlink:href="#mf5d147d2a9" y="183.36392365"/>
     <use style="fill:#0000ff;stroke:#000000;" x="309.108443989" xlink:href="#mf5d147d2a9" y="147.02850125"/>
     <use style="fill:#0000ff;stroke:#000000;" x="395.733574356" xlink:href="#mf5d147d2a9" y="145.111612367"/>
     <use style="fill:#0000ff;stroke:#000000;" x="326.132687227" xlink:href="#mf5d147d2a9" y="214.821657458"/>
     <use style="fill:#0000ff;stroke:#000000;" x="487.244097051" xlink:href="#mf5d147d2a9" y="96.755953625"/>
     <use style="fill:#0000ff;stroke:#000000;" x="453.238154984" xlink:href="#mf5d147d2a9" y="85.401134125"/>
     <use style="fill:#0000ff;stroke:#000000;" x="461.465630087" xlink:href="#mf5d147d2a9" y="86.6159777167"/>
     <use style="fill:#0000ff;stroke:#000000;" x="362.112915166" xlink:href="#mf5d147d2a9" y="135.325711475"/>
     <use style="fill:#0000ff;stroke:#000000;" x="468.95073498" xlink:href="#mf5d147d2a9" y="74.0585241083"/>
     <use style="fill:#0000ff;stroke:#000000;" x="326.91830776" xlink:href="#mf5d147d2a9" y="135.521063208"/>
     <use style="fill:#0000ff;stroke:#000000;" x="244.631308636" xlink:href="#mf5d147d2a9" y="248.000928417"/>
     <use style="fill:#0000ff;stroke:#000000;" x="250.833526332" xlink:href="#mf5d147d2a9" y="167.497700058"/>
     <use style="fill:#0000ff;stroke:#000000;" x="446.73875005" xlink:href="#mf5d147d2a9" y="98.3553959417"/>
     <use style="fill:#0000ff;stroke:#000000;" x="498.263524778" xlink:href="#mf5d147d2a9" y="104.673803567"/>
     <use style="fill:#0000ff;stroke:#000000;" x="388.156860427" xlink:href="#mf5d147d2a9" y="138.829833192"/>
     <use style="fill:#0000ff;stroke:#000000;" x="249.738263795" xlink:href="#mf5d147d2a9" y="318.315342933"/>
     <use style="fill:#0000ff;stroke:#000000;" x="152.596625969" xlink:href="#mf5d147d2a9" y="299.47611015"/>
     <use style="fill:#0000ff;stroke:#000000;" x="398.520115628" xlink:href="#mf5d147d2a9" y="126.870644267"/>
     <use style="fill:#0000ff;stroke:#000000;" x="220.051548488" xlink:href="#mf5d147d2a9" y="215.444341108"/>
     <use style="fill:#0000ff;stroke:#000000;" x="196.768635579" xlink:href="#mf5d147d2a9" y="283.451163275"/>
     <use style="fill:#0000ff;stroke:#000000;" x="400.867221306" xlink:href="#mf5d147d2a9" y="125.106373925"/>
     <use style="fill:#0000ff;stroke:#000000;" x="219.898538564" xlink:href="#mf5d147d2a9" y="245.821535642"/>
     <use style="fill:#0000ff;stroke:#000000;" x="259.872339432" xlink:href="#mf5d147d2a9" y="186.6238557"/>
     <use style="fill:#0000ff;stroke:#000000;" x="391.536536296" xlink:href="#mf5d147d2a9" y="133.897201925"/>
     <use style="fill:#0000ff;stroke:#000000;" x="398.034838406" xlink:href="#mf5d147d2a9" y="113.177708708"/>
     <use style="fill:#0000ff;stroke:#000000;" x="299.310956454" xlink:href="#mf5d147d2a9" y="170.513442442"/>
     <use style="fill:#0000ff;stroke:#000000;" x="379.210045845" xlink:href="#mf5d147d2a9" y="123.262741942"/>
     <use style="fill:#0000ff;stroke:#000000;" x="314.652858601" xlink:href="#mf5d147d2a9" y="143.890664033"/>
     <use style="fill:#0000ff;stroke:#000000;" x="202.702744822" xlink:href="#mf5d147d2a9" y="321.428761183"/>
     <use style="fill:#0000ff;stroke:#000000;" x="212.650825954" xlink:href="#mf5d147d2a9" y="199.413289492"/>
     <use style="fill:#0000ff;stroke:#000000;" x="331.48053347" xlink:href="#mf5d147d2a9" y="255.351037383"/>
     <use style="fill:#0000ff;stroke:#000000;" x="223.234906679" xlink:href="#mf5d147d2a9" y="188.937552792"/>
     <use style="fill:#0000ff;stroke:#000000;" x="479.933089621" xlink:href="#mf5d147d2a9" y="91.4020951833"/>
     <use style="fill:#0000ff;stroke:#000000;" x="452.264638665" xlink:href="#mf5d147d2a9" y="88.7037993667"/>
     <use style="fill:#0000ff;stroke:#000000;" x="290.6510152" xlink:href="#mf5d147d2a9" y="133.298937242"/>
     <use style="fill:#0000ff;stroke:#000000;" x="181.937092686" xlink:href="#mf5d147d2a9" y="231.170155642"/>
     <use style="fill:#0000ff;stroke:#000000;" x="267.940675471" xlink:href="#mf5d147d2a9" y="292.266410242"/>
     <use style="fill:#0000ff;stroke:#000000;" x="501.359166555" xlink:href="#mf5d147d2a9" y="88.7526373"/>
     <use style="fill:#0000ff;stroke:#000000;" x="443.440306999" xlink:href="#mf5d147d2a9" y="116.565840333"/>
     <use style="fill:#0000ff;stroke:#000000;" x="286.743093053" xlink:href="#mf5d147d2a9" y="178.571701442"/>
     <use style="fill:#0000ff;stroke:#000000;" x="383.462151754" xlink:href="#mf5d147d2a9" y="117.194628725"/>
     <use style="fill:#0000ff;stroke:#000000;" x="321.095834468" xlink:href="#mf5d147d2a9" y="140.301075933"/>
     <use style="fill:#0000ff;stroke:#000000;" x="362.985024774" xlink:href="#mf5d147d2a9" y="142.321745425"/>
     <use style="fill:#0000ff;stroke:#000000;" x="301.509757286" xlink:href="#mf5d147d2a9" y="140.6917794"/>
     <use style="fill:#0000ff;stroke:#000000;" x="416.325910159" xlink:href="#mf5d147d2a9" y="117.035905442"/>
     <use style="fill:#0000ff;stroke:#000000;" x="437.280664083" xlink:href="#mf5d147d2a9" y="101.560385317"/>
     <use style="fill:#0000ff;stroke:#000000;" x="432.953453397" xlink:href="#mf5d147d2a9" y="97.6045127167"/>
     <use style="fill:#0000ff;stroke:#000000;" x="365.513311671" xlink:href="#mf5d147d2a9" y="111.669837517"/>
     <use style="fill:#0000ff;stroke:#000000;" x="390.54075173" xlink:href="#mf5d147d2a9" y="135.881242967"/>
     <use style="fill:#0000ff;stroke:#000000;" x="206.112353057" xlink:href="#mf5d147d2a9" y="296.03303585"/>
     <use style="fill:#0000ff;stroke:#000000;" x="251.079055431" xlink:href="#mf5d147d2a9" y="178.296988067"/>
     <use style="fill:#0000ff;stroke:#000000;" x="441.245180641" xlink:href="#mf5d147d2a9" y="134.043715725"/>
     <use style="fill:#0000ff;stroke:#000000;" x="256.10740659" xlink:href="#mf5d147d2a9" y="193.351281017"/>
     <use style="fill:#0000ff;stroke:#000000;" x="383.29346551" xlink:href="#mf5d147d2a9" y="126.565407183"/>
     <use style="fill:#0000ff;stroke:#000000;" x="206.066034366" xlink:href="#mf5d147d2a9" y="318.461856733"/>
     <use style="fill:#0000ff;stroke:#000000;" x="498.010424105" xlink:href="#mf5d147d2a9" y="90.1200994333"/>
     <use style="fill:#0000ff;stroke:#000000;" x="430.455925598" xlink:href="#mf5d147d2a9" y="122.530172942"/>
     <use style="fill:#0000ff;stroke:#000000;" x="453.935172885" xlink:href="#mf5d147d2a9" y="102.610400883"/>
     <use style="fill:#0000ff;stroke:#000000;" x="211.257190664" xlink:href="#mf5d147d2a9" y="284.330246075"/>
     <use style="fill:#0000ff;stroke:#000000;" x="379.334220679" xlink:href="#mf5d147d2a9" y="277.126650908"/>
     <use style="fill:#0000ff;stroke:#000000;" x="462.104752386" xlink:href="#mf5d147d2a9" y="84.2046047583"/>
     <use style="fill:#0000ff;stroke:#000000;" x="317.461627369" xlink:href="#mf5d147d2a9" y="136.3696223"/>
     <use style="fill:#0000ff;stroke:#000000;" x="286.643552551" xlink:href="#mf5d147d2a9" y="220.859246967"/>
     <use style="fill:#0000ff;stroke:#000000;" x="326.821688167" xlink:href="#mf5d147d2a9" y="336.501368358"/>
     <use style="fill:#0000ff;stroke:#000000;" x="473.861182989" xlink:href="#mf5d147d2a9" y="84.5525750333"/>
     <use style="fill:#0000ff;stroke:#000000;" x="481.32459488" xlink:href="#mf5d147d2a9" y="79.5650010917"/>
     <use style="fill:#0000ff;stroke:#000000;" x="321.30030353" xlink:href="#mf5d147d2a9" y="125.704638608"/>
     <use style="fill:#0000ff;stroke:#000000;" x="461.844060205" xlink:href="#mf5d147d2a9" y="99.7167533333"/>
     <use style="fill:#0000ff;stroke:#000000;" x="224.304942682" xlink:href="#mf5d147d2a9" y="257.725781892"/>
     <use style="fill:#0000ff;stroke:#000000;" x="363.470814632" xlink:href="#mf5d147d2a9" y="147.236062467"/>
     <use style="fill:#0000ff;stroke:#000000;" x="207.774094823" xlink:href="#mf5d147d2a9" y="221.689491833"/>
     <use style="fill:#0000ff;stroke:#000000;" x="427.791267879" xlink:href="#mf5d147d2a9" y="152.101541575"/>
     <use style="fill:#0000ff;stroke:#000000;" x="359.804755593" xlink:href="#mf5d147d2a9" y="127.047681775"/>
     <use style="fill:#0000ff;stroke:#000000;" x="372.650392505" xlink:href="#mf5d147d2a9" y="140.148457392"/>
     <use style="fill:#0000ff;stroke:#000000;" x="220.857918128" xlink:href="#mf5d147d2a9" y="263.677905017"/>
     <use style="fill:#0000ff;stroke:#000000;" x="472.43257908" xlink:href="#mf5d147d2a9" y="93.459393125"/>
     <use style="fill:#0000ff;stroke:#000000;" x="491.216185564" xlink:href="#mf5d147d2a9" y="100.681302517"/>
     <use style="fill:#0000ff;stroke:#000000;" x="389.19847242" xlink:href="#mf5d147d2a9" y="112.023912533"/>
     <use style="fill:#0000ff;stroke:#000000;" x="394.529714959" xlink:href="#mf5d147d2a9" y="128.122116308"/>
     <use style="fill:#0000ff;stroke:#000000;" x="281.989131303" xlink:href="#mf5d147d2a9" y="125.057535992"/>
     <use style="fill:#0000ff;stroke:#000000;" x="297.631942839" xlink:href="#mf5d147d2a9" y="130.10615735"/>
     <use style="fill:#0000ff;stroke:#000000;" x="277.017847778" xlink:href="#mf5d147d2a9" y="195.573406983"/>
     <use style="fill:#0000ff;stroke:#000000;" x="234.365690564" xlink:href="#mf5d147d2a9" y="319.5851292"/>
     <use style="fill:#0000ff;stroke:#000000;" x="161.719166365" xlink:href="#mf5d147d2a9" y="312.851599142"/>
    </g>
   </g>
   <g id="patch_3">
    <path d="M 552.88 395.18625 
L 552.88 28.90175 
" style="fill:none;stroke:#000000;stroke-linecap:square;stroke-linejoin:miter;"/>
   </g>
   <g id="patch_4">
    <path d="M 48.84375 28.90175 
L 552.88 28.90175 
" style="fill:none;stroke:#000000;stroke-linecap:square;stroke-linejoin:miter;"/>
   </g>
   <g id="patch_5">
    <path d="M 48.84375 395.18625 
L 552.88 395.18625 
" style="fill:none;stroke:#000000;stroke-linecap:square;stroke-linejoin:miter;"/>
   </g>
   <g id="patch_6">
    <path d="M 48.84375 395.18625 
L 48.84375 28.90175 
" style="fill:none;stroke:#000000;stroke-linecap:square;stroke-linejoin:miter;"/>
   </g>
   <g id="matplotlib.axis_1">
    <g id="xtick_1">
     <g id="line2d_1">
      <defs>
       <path d="M 0 0 
L 0 -4 
" id="m10c6b506bb" style="stroke:#000000;stroke-width:0.5;"/>
      </defs>
      <g>
       <use style="stroke:#000000;stroke-width:0.5;" x="48.84375" xlink:href="#m10c6b506bb" y="395.18625"/>
      </g>
     </g>
     <g id="line2d_2">
      <defs>
       <path d="M 0 0 
L 0 4 
" id="mca7d413374" style="stroke:#000000;stroke-width:0.5;"/>
      </defs>
      <g>
       <use style="stroke:#000000;stroke-width:0.5;" x="48.84375" xlink:href="#mca7d413374" y="28.90175"/>
      </g>
     </g>
     <g id="text_1">
      <!-- $\mathdefault{10^{2}}$ -->
      <defs>
       <path d="M 31.78125 66.40625 
Q 24.171875 66.40625 20.328125 58.90625 
Q 16.5 51.421875 16.5 36.375 
Q 16.5 21.390625 20.328125 13.890625 
Q 24.171875 6.390625 31.78125 6.390625 
Q 39.453125 6.390625 43.28125 13.890625 
Q 47.125 21.390625 47.125 36.375 
Q 47.125 51.421875 43.28125 58.90625 
Q 39.453125 66.40625 31.78125 66.40625 
M 31.78125 74.21875 
Q 44.046875 74.21875 50.515625 64.515625 
Q 56.984375 54.828125 56.984375 36.375 
Q 56.984375 17.96875 50.515625 8.265625 
Q 44.046875 -1.421875 31.78125 -1.421875 
Q 19.53125 -1.421875 13.0625 8.265625 
Q 6.59375 17.96875 6.59375 36.375 
Q 6.59375 54.828125 13.0625 64.515625 
Q 19.53125 74.21875 31.78125 74.21875 
" id="BitstreamVeraSans-Roman-30"/>
       <path d="M 12.40625 8.296875 
L 28.515625 8.296875 
L 28.515625 63.921875 
L 10.984375 60.40625 
L 10.984375 69.390625 
L 28.421875 72.90625 
L 38.28125 72.90625 
L 38.28125 8.296875 
L 54.390625 8.296875 
L 54.390625 0 
L 12.40625 0 
z
" id="BitstreamVeraSans-Roman-31"/>
       <path d="M 19.1875 8.296875 
L 53.609375 8.296875 
L 53.609375 0 
L 7.328125 0 
L 7.328125 8.296875 
Q 12.9375 14.109375 22.625 23.890625 
Q 32.328125 33.6875 34.8125 36.53125 
Q 39.546875 41.84375 41.421875 45.53125 
Q 43.3125 49.21875 43.3125 52.78125 
Q 43.3125 58.59375 39.234375 62.25 
Q 35.15625 65.921875 28.609375 65.921875 
Q 23.96875 65.921875 18.8125 64.3125 
Q 13.671875 62.703125 7.8125 59.421875 
L 7.8125 69.390625 
Q 13.765625 71.78125 18.9375 73 
Q 24.125 74.21875 28.421875 74.21875 
Q 39.75 74.21875 46.484375 68.546875 
Q 53.21875 62.890625 53.21875 53.421875 
Q 53.21875 48.921875 51.53125 44.890625 
Q 49.859375 40.875 45.40625 35.40625 
Q 44.1875 33.984375 37.640625 27.21875 
Q 31.109375 20.453125 19.1875 8.296875 
" id="BitstreamVeraSans-Roman-32"/>
      </defs>
      <g transform="translate(37.68375 408.930625)scale(0.12 -0.12)">
       <use transform="translate(0.0 0.796875)" xlink:href="#BitstreamVeraSans-Roman-31"/>
       <use transform="translate(63.623046875 0.796875)" xlink:href="#BitstreamVeraSans-Roman-30"/>
       <use transform="translate(132.75859375 48.046875)scale(0.7)" xlink:href="#BitstreamVeraSans-Roman-32"/>
      </g>
     </g>
    </g>
    <g id="xtick_2">
     <g id="line2d_3">
      <g>
       <use style="stroke:#000000;stroke-width:0.5;" x="216.855833333" xlink:href="#m10c6b506bb" y="395.18625"/>
      </g>
     </g>
     <g id="line2d_4">
      <g>
       <use style="stroke:#000000;stroke-width:0.5;" x="216.855833333" xlink:href="#mca7d413374" y="28.90175"/>
      </g>
     </g>
     <g id="text_2">
      <!-- $\mathdefault{10^{3}}$ -->
      <defs>
       <path d="M 40.578125 39.3125 
Q 47.65625 37.796875 51.625 33 
Q 55.609375 28.21875 55.609375 21.1875 
Q 55.609375 10.40625 48.1875 4.484375 
Q 40.765625 -1.421875 27.09375 -1.421875 
Q 22.515625 -1.421875 17.65625 -0.515625 
Q 12.796875 0.390625 7.625 2.203125 
L 7.625 11.71875 
Q 11.71875 9.328125 16.59375 8.109375 
Q 21.484375 6.890625 26.8125 6.890625 
Q 36.078125 6.890625 40.9375 10.546875 
Q 45.796875 14.203125 45.796875 21.1875 
Q 45.796875 27.640625 41.28125 31.265625 
Q 36.765625 34.90625 28.71875 34.90625 
L 20.21875 34.90625 
L 20.21875 43.015625 
L 29.109375 43.015625 
Q 36.375 43.015625 40.234375 45.921875 
Q 44.09375 48.828125 44.09375 54.296875 
Q 44.09375 59.90625 40.109375 62.90625 
Q 36.140625 65.921875 28.71875 65.921875 
Q 24.65625 65.921875 20.015625 65.03125 
Q 15.375 64.15625 9.8125 62.3125 
L 9.8125 71.09375 
Q 15.4375 72.65625 20.34375 73.4375 
Q 25.25 74.21875 29.59375 74.21875 
Q 40.828125 74.21875 47.359375 69.109375 
Q 53.90625 64.015625 53.90625 55.328125 
Q 53.90625 49.265625 50.4375 45.09375 
Q 46.96875 40.921875 40.578125 39.3125 
" id="BitstreamVeraSans-Roman-33"/>
      </defs>
      <g transform="translate(205.695833333 408.930625)scale(0.12 -0.12)">
       <use transform="translate(0.0 0.796875)" xlink:href="#BitstreamVeraSans-Roman-31"/>
       <use transform="translate(63.623046875 0.796875)" xlink:href="#BitstreamVeraSans-Roman-30"/>
       <use transform="translate(132.75859375 48.046875)scale(0.7)" xlink:href="#BitstreamVeraSans-Roman-33"/>
      </g>
     </g>
    </g>
    <g id="xtick_3">
     <g id="line2d_5">
      <g>
       <use style="stroke:#000000;stroke-width:0.5;" x="384.867916667" xlink:href="#m10c6b506bb" y="395.18625"/>
      </g>
     </g>
     <g id="line2d_6">
      <g>
       <use style="stroke:#000000;stroke-width:0.5;" x="384.867916667" xlink:href="#mca7d413374" y="28.90175"/>
      </g>
     </g>
     <g id="text_3">
      <!-- $\mathdefault{10^{4}}$ -->
      <defs>
       <path d="M 37.796875 64.3125 
L 12.890625 25.390625 
L 37.796875 25.390625 
z
M 35.203125 72.90625 
L 47.609375 72.90625 
L 47.609375 25.390625 
L 58.015625 25.390625 
L 58.015625 17.1875 
L 47.609375 17.1875 
L 47.609375 0 
L 37.796875 0 
L 37.796875 17.1875 
L 4.890625 17.1875 
L 4.890625 26.703125 
z
" id="BitstreamVeraSans-Roman-34"/>
      </defs>
      <g transform="translate(373.707916667 408.810625)scale(0.12 -0.12)">
       <use transform="translate(0.0 0.7156250000000028)" xlink:href="#BitstreamVeraSans-Roman-31"/>
       <use transform="translate(63.623046875 0.7156250000000028)" xlink:href="#BitstreamVeraSans-Roman-30"/>
       <use transform="translate(132.75859375 47.965625)scale(0.7)" xlink:href="#BitstreamVeraSans-Roman-34"/>
      </g>
     </g>
    </g>
    <g id="xtick_4">
     <g id="line2d_7">
      <g>
       <use style="stroke:#000000;stroke-width:0.5;" x="552.88" xlink:href="#m10c6b506bb" y="395.18625"/>
      </g>
     </g>
     <g id="line2d_8">
      <g>
       <use style="stroke:#000000;stroke-width:0.5;" x="552.88" xlink:href="#mca7d413374" y="28.90175"/>
      </g>
     </g>
     <g id="text_4">
      <!-- $\mathdefault{10^{5}}$ -->
      <defs>
       <path d="M 10.796875 72.90625 
L 49.515625 72.90625 
L 49.515625 64.59375 
L 19.828125 64.59375 
L 19.828125 46.734375 
Q 21.96875 47.46875 24.109375 47.828125 
Q 26.265625 48.1875 28.421875 48.1875 
Q 40.625 48.1875 47.75 41.5 
Q 54.890625 34.8125 54.890625 23.390625 
Q 54.890625 11.625 47.5625 5.09375 
Q 40.234375 -1.421875 26.90625 -1.421875 
Q 22.3125 -1.421875 17.546875 -0.640625 
Q 12.796875 0.140625 7.71875 1.703125 
L 7.71875 11.625 
Q 12.109375 9.234375 16.796875 8.0625 
Q 21.484375 6.890625 26.703125 6.890625 
Q 35.15625 6.890625 40.078125 11.328125 
Q 45.015625 15.765625 45.015625 23.390625 
Q 45.015625 31 40.078125 35.4375 
Q 35.15625 39.890625 26.703125 39.890625 
Q 22.75 39.890625 18.8125 39.015625 
Q 14.890625 38.140625 10.796875 36.28125 
z
" id="BitstreamVeraSans-Roman-35"/>
      </defs>
      <g transform="translate(541.72 408.810625)scale(0.12 -0.12)">
       <use transform="translate(0.0 0.7156250000000028)" xlink:href="#BitstreamVeraSans-Roman-31"/>
       <use transform="translate(63.623046875 0.7156250000000028)" xlink:href="#BitstreamVeraSans-Roman-30"/>
       <use transform="translate(132.75859375 47.965625)scale(0.7)" xlink:href="#BitstreamVeraSans-Roman-35"/>
      </g>
     </g>
    </g>
    <g id="xtick_5">
     <g id="line2d_9">
      <defs>
       <path d="M 0 0 
L 0 -2 
" id="mf6715ebd86" style="stroke:#000000;stroke-width:0.5;"/>
      </defs>
      <g>
       <use style="stroke:#000000;stroke-width:0.5;" x="99.4204267173" xlink:href="#mf6715ebd86" y="395.18625"/>
      </g>
     </g>
     <g id="line2d_10">
      <defs>
       <path d="M 0 0 
L 0 2 
" id="mf9fa452d6d" style="stroke:#000000;stroke-width:0.5;"/>
      </defs>
      <g>
       <use style="stroke:#000000;stroke-width:0.5;" x="99.4204267173" xlink:href="#mf9fa452d6d" y="28.90175"/>
      </g>
     </g>
    </g>
    <g id="xtick_6">
     <g id="line2d_11">
      <g>
       <use style="stroke:#000000;stroke-width:0.5;" x="129.005886008" xlink:href="#mf6715ebd86" y="395.18625"/>
      </g>
     </g>
     <g id="line2d_12">
      <g>
       <use style="stroke:#000000;stroke-width:0.5;" x="129.005886008" xlink:href="#mf9fa452d6d" y="28.90175"/>
      </g>
     </g>
    </g>
    <g id="xtick_7">
     <g id="line2d_13">
      <g>
       <use style="stroke:#000000;stroke-width:0.5;" x="149.997103435" xlink:href="#mf6715ebd86" y="395.18625"/>
      </g>
     </g>
     <g id="line2d_14">
      <g>
       <use style="stroke:#000000;stroke-width:0.5;" x="149.997103435" xlink:href="#mf9fa452d6d" y="28.90175"/>
      </g>
     </g>
    </g>
    <g id="xtick_8">
     <g id="line2d_15">
      <g>
       <use style="stroke:#000000;stroke-width:0.5;" x="166.279156616" xlink:href="#mf6715ebd86" y="395.18625"/>
      </g>
     </g>
     <g id="line2d_16">
      <g>
       <use style="stroke:#000000;stroke-width:0.5;" x="166.279156616" xlink:href="#mf9fa452d6d" y="28.90175"/>
      </g>
     </g>
    </g>
    <g id="xtick_9">
     <g id="line2d_17">
      <g>
       <use style="stroke:#000000;stroke-width:0.5;" x="179.582562725" xlink:href="#mf6715ebd86" y="395.18625"/>
      </g>
     </g>
     <g id="line2d_18">
      <g>
       <use style="stroke:#000000;stroke-width:0.5;" x="179.582562725" xlink:href="#mf9fa452d6d" y="28.90175"/>
      </g>
     </g>
    </g>
    <g id="xtick_10">
     <g id="line2d_19">
      <g>
       <use style="stroke:#000000;stroke-width:0.5;" x="190.830432324" xlink:href="#mf6715ebd86" y="395.18625"/>
      </g>
     </g>
     <g id="line2d_20">
      <g>
       <use style="stroke:#000000;stroke-width:0.5;" x="190.830432324" xlink:href="#mf9fa452d6d" y="28.90175"/>
      </g>
     </g>
    </g>
    <g id="xtick_11">
     <g id="line2d_21">
      <g>
       <use style="stroke:#000000;stroke-width:0.5;" x="200.573780152" xlink:href="#mf6715ebd86" y="395.18625"/>
      </g>
     </g>
     <g id="line2d_22">
      <g>
       <use style="stroke:#000000;stroke-width:0.5;" x="200.573780152" xlink:href="#mf9fa452d6d" y="28.90175"/>
      </g>
     </g>
    </g>
    <g id="xtick_12">
     <g id="line2d_23">
      <g>
       <use style="stroke:#000000;stroke-width:0.5;" x="209.168022016" xlink:href="#mf6715ebd86" y="395.18625"/>
      </g>
     </g>
     <g id="line2d_24">
      <g>
       <use style="stroke:#000000;stroke-width:0.5;" x="209.168022016" xlink:href="#mf9fa452d6d" y="28.90175"/>
      </g>
     </g>
    </g>
    <g id="xtick_13">
     <g id="line2d_25">
      <g>
       <use style="stroke:#000000;stroke-width:0.5;" x="267.432510051" xlink:href="#mf6715ebd86" y="395.18625"/>
      </g>
     </g>
     <g id="line2d_26">
      <g>
       <use style="stroke:#000000;stroke-width:0.5;" x="267.432510051" xlink:href="#mf9fa452d6d" y="28.90175"/>
      </g>
     </g>
    </g>
    <g id="xtick_14">
     <g id="line2d_27">
      <g>
       <use style="stroke:#000000;stroke-width:0.5;" x="297.017969341" xlink:href="#mf6715ebd86" y="395.18625"/>
      </g>
     </g>
     <g id="line2d_28">
      <g>
       <use style="stroke:#000000;stroke-width:0.5;" x="297.017969341" xlink:href="#mf9fa452d6d" y="28.90175"/>
      </g>
     </g>
    </g>
    <g id="xtick_15">
     <g id="line2d_29">
      <g>
       <use style="stroke:#000000;stroke-width:0.5;" x="318.009186768" xlink:href="#mf6715ebd86" y="395.18625"/>
      </g>
     </g>
     <g id="line2d_30">
      <g>
       <use style="stroke:#000000;stroke-width:0.5;" x="318.009186768" xlink:href="#mf9fa452d6d" y="28.90175"/>
      </g>
     </g>
    </g>
    <g id="xtick_16">
     <g id="line2d_31">
      <g>
       <use style="stroke:#000000;stroke-width:0.5;" x="334.291239949" xlink:href="#mf6715ebd86" y="395.18625"/>
      </g>
     </g>
     <g id="line2d_32">
      <g>
       <use style="stroke:#000000;stroke-width:0.5;" x="334.291239949" xlink:href="#mf9fa452d6d" y="28.90175"/>
      </g>
     </g>
    </g>
    <g id="xtick_17">
     <g id="line2d_33">
      <g>
       <use style="stroke:#000000;stroke-width:0.5;" x="347.594646059" xlink:href="#mf6715ebd86" y="395.18625"/>
      </g>
     </g>
     <g id="line2d_34">
      <g>
       <use style="stroke:#000000;stroke-width:0.5;" x="347.594646059" xlink:href="#mf9fa452d6d" y="28.90175"/>
      </g>
     </g>
    </g>
    <g id="xtick_18">
     <g id="line2d_35">
      <g>
       <use style="stroke:#000000;stroke-width:0.5;" x="358.842515657" xlink:href="#mf6715ebd86" y="395.18625"/>
      </g>
     </g>
     <g id="line2d_36">
      <g>
       <use style="stroke:#000000;stroke-width:0.5;" x="358.842515657" xlink:href="#mf9fa452d6d" y="28.90175"/>
      </g>
     </g>
    </g>
    <g id="xtick_19">
     <g id="line2d_37">
      <g>
       <use style="stroke:#000000;stroke-width:0.5;" x="368.585863485" xlink:href="#mf6715ebd86" y="395.18625"/>
      </g>
     </g>
     <g id="line2d_38">
      <g>
       <use style="stroke:#000000;stroke-width:0.5;" x="368.585863485" xlink:href="#mf9fa452d6d" y="28.90175"/>
      </g>
     </g>
    </g>
    <g id="xtick_20">
     <g id="line2d_39">
      <g>
       <use style="stroke:#000000;stroke-width:0.5;" x="377.180105349" xlink:href="#mf6715ebd86" y="395.18625"/>
      </g>
     </g>
     <g id="line2d_40">
      <g>
       <use style="stroke:#000000;stroke-width:0.5;" x="377.180105349" xlink:href="#mf9fa452d6d" y="28.90175"/>
      </g>
     </g>
    </g>
    <g id="xtick_21">
     <g id="line2d_41">
      <g>
       <use style="stroke:#000000;stroke-width:0.5;" x="435.444593384" xlink:href="#mf6715ebd86" y="395.18625"/>
      </g>
     </g>
     <g id="line2d_42">
      <g>
       <use style="stroke:#000000;stroke-width:0.5;" x="435.444593384" xlink:href="#mf9fa452d6d" y="28.90175"/>
      </g>
     </g>
    </g>
    <g id="xtick_22">
     <g id="line2d_43">
      <g>
       <use style="stroke:#000000;stroke-width:0.5;" x="465.030052675" xlink:href="#mf6715ebd86" y="395.18625"/>
      </g>
     </g>
     <g id="line2d_44">
      <g>
       <use style="stroke:#000000;stroke-width:0.5;" x="465.030052675" xlink:href="#mf9fa452d6d" y="28.90175"/>
      </g>
     </g>
    </g>
    <g id="xtick_23">
     <g id="line2d_45">
      <g>
       <use style="stroke:#000000;stroke-width:0.5;" x="486.021270101" xlink:href="#mf6715ebd86" y="395.18625"/>
      </g>
     </g>
     <g id="line2d_46">
      <g>
       <use style="stroke:#000000;stroke-width:0.5;" x="486.021270101" xlink:href="#mf9fa452d6d" y="28.90175"/>
      </g>
     </g>
    </g>
    <g id="xtick_24">
     <g id="line2d_47">
      <g>
       <use style="stroke:#000000;stroke-width:0.5;" x="502.303323283" xlink:href="#mf6715ebd86" y="395.18625"/>
      </g>
     </g>
     <g id="line2d_48">
      <g>
       <use style="stroke:#000000;stroke-width:0.5;" x="502.303323283" xlink:href="#mf9fa452d6d" y="28.90175"/>
      </g>
     </g>
    </g>
    <g id="xtick_25">
     <g id="line2d_49">
      <g>
       <use style="stroke:#000000;stroke-width:0.5;" x="515.606729392" xlink:href="#mf6715ebd86" y="395.18625"/>
      </g>
     </g>
     <g id="line2d_50">
      <g>
       <use style="stroke:#000000;stroke-width:0.5;" x="515.606729392" xlink:href="#mf9fa452d6d" y="28.90175"/>
      </g>
     </g>
    </g>
    <g id="xtick_26">
     <g id="line2d_51">
      <g>
       <use style="stroke:#000000;stroke-width:0.5;" x="526.85459899" xlink:href="#mf6715ebd86" y="395.18625"/>
      </g>
     </g>
     <g id="line2d_52">
      <g>
       <use style="stroke:#000000;stroke-width:0.5;" x="526.85459899" xlink:href="#mf9fa452d6d" y="28.90175"/>
      </g>
     </g>
    </g>
    <g id="xtick_27">
     <g id="line2d_53">
      <g>
       <use style="stroke:#000000;stroke-width:0.5;" x="536.597946819" xlink:href="#mf6715ebd86" y="395.18625"/>
      </g>
     </g>
     <g id="line2d_54">
      <g>
       <use style="stroke:#000000;stroke-width:0.5;" x="536.597946819" xlink:href="#mf9fa452d6d" y="28.90175"/>
      </g>
     </g>
    </g>
    <g id="xtick_28">
     <g id="line2d_55">
      <g>
       <use style="stroke:#000000;stroke-width:0.5;" x="545.192188683" xlink:href="#mf6715ebd86" y="395.18625"/>
      </g>
     </g>
     <g id="line2d_56">
      <g>
       <use style="stroke:#000000;stroke-width:0.5;" x="545.192188683" xlink:href="#mf9fa452d6d" y="28.90175"/>
      </g>
     </g>
    </g>
    <g id="text_5">
     <!-- GDP per Capita [in USD] -->
     <defs>
      <path d="M 59.515625 10.40625 
L 59.515625 29.984375 
L 43.40625 29.984375 
L 43.40625 38.09375 
L 69.28125 38.09375 
L 69.28125 6.78125 
Q 63.578125 2.734375 56.6875 0.65625 
Q 49.8125 -1.421875 42 -1.421875 
Q 24.90625 -1.421875 15.25 8.5625 
Q 5.609375 18.5625 5.609375 36.375 
Q 5.609375 54.25 15.25 64.234375 
Q 24.90625 74.21875 42 74.21875 
Q 49.125 74.21875 55.546875 72.453125 
Q 61.96875 70.703125 67.390625 67.28125 
L 67.390625 56.78125 
Q 61.921875 61.421875 55.765625 63.765625 
Q 49.609375 66.109375 42.828125 66.109375 
Q 29.4375 66.109375 22.71875 58.640625 
Q 16.015625 51.171875 16.015625 36.375 
Q 16.015625 21.625 22.71875 14.15625 
Q 29.4375 6.6875 42.828125 6.6875 
Q 48.046875 6.6875 52.140625 7.59375 
Q 56.25 8.5 59.515625 10.40625 
" id="BitstreamVeraSans-Roman-47"/>
      <path d="M 19.671875 64.796875 
L 19.671875 8.109375 
L 31.59375 8.109375 
Q 46.6875 8.109375 53.6875 14.9375 
Q 60.6875 21.78125 60.6875 36.53125 
Q 60.6875 51.171875 53.6875 57.984375 
Q 46.6875 64.796875 31.59375 64.796875 
z
M 9.8125 72.90625 
L 30.078125 72.90625 
Q 51.265625 72.90625 61.171875 64.09375 
Q 71.09375 55.28125 71.09375 36.53125 
Q 71.09375 17.671875 61.125 8.828125 
Q 51.171875 0 30.078125 0 
L 9.8125 0 
z
" id="BitstreamVeraSans-Roman-44"/>
      <path d="M 9.421875 54.6875 
L 18.40625 54.6875 
L 18.40625 0 
L 9.421875 0 
z
M 9.421875 75.984375 
L 18.40625 75.984375 
L 18.40625 64.59375 
L 9.421875 64.59375 
z
" id="BitstreamVeraSans-Roman-69"/>
      <path d="M 30.421875 75.984375 
L 30.421875 -13.1875 
L 9.71875 -13.1875 
L 9.71875 -6.203125 
L 21.390625 -6.203125 
L 21.390625 69 
L 9.71875 69 
L 9.71875 75.984375 
z
" id="BitstreamVeraSans-Roman-5d"/>
      <path id="BitstreamVeraSans-Roman-20"/>
      <path d="M 53.515625 70.515625 
L 53.515625 60.890625 
Q 47.90625 63.578125 42.921875 64.890625 
Q 37.9375 66.21875 33.296875 66.21875 
Q 25.25 66.21875 20.875 63.09375 
Q 16.5 59.96875 16.5 54.203125 
Q 16.5 49.359375 19.40625 46.890625 
Q 22.3125 44.4375 30.421875 42.921875 
L 36.375 41.703125 
Q 47.40625 39.59375 52.65625 34.296875 
Q 57.90625 29 57.90625 20.125 
Q 57.90625 9.515625 50.796875 4.046875 
Q 43.703125 -1.421875 29.984375 -1.421875 
Q 24.8125 -1.421875 18.96875 -0.25 
Q 13.140625 0.921875 6.890625 3.21875 
L 6.890625 13.375 
Q 12.890625 10.015625 18.65625 8.296875 
Q 24.421875 6.59375 29.984375 6.59375 
Q 38.421875 6.59375 43.015625 9.90625 
Q 47.609375 13.234375 47.609375 19.390625 
Q 47.609375 24.75 44.3125 27.78125 
Q 41.015625 30.8125 33.5 32.328125 
L 27.484375 33.5 
Q 16.453125 35.6875 11.515625 40.375 
Q 6.59375 45.0625 6.59375 53.421875 
Q 6.59375 63.09375 13.40625 68.65625 
Q 20.21875 74.21875 32.171875 74.21875 
Q 37.3125 74.21875 42.625 73.28125 
Q 47.953125 72.359375 53.515625 70.515625 
" id="BitstreamVeraSans-Roman-53"/>
      <path d="M 19.671875 64.796875 
L 19.671875 37.40625 
L 32.078125 37.40625 
Q 38.96875 37.40625 42.71875 40.96875 
Q 46.484375 44.53125 46.484375 51.125 
Q 46.484375 57.671875 42.71875 61.234375 
Q 38.96875 64.796875 32.078125 64.796875 
z
M 9.8125 72.90625 
L 32.078125 72.90625 
Q 44.34375 72.90625 50.609375 67.359375 
Q 56.890625 61.8125 56.890625 51.125 
Q 56.890625 40.328125 50.609375 34.8125 
Q 44.34375 29.296875 32.078125 29.296875 
L 19.671875 29.296875 
L 19.671875 0 
L 9.8125 0 
z
" id="BitstreamVeraSans-Roman-50"/>
      <path d="M 34.28125 27.484375 
Q 23.390625 27.484375 19.1875 25 
Q 14.984375 22.515625 14.984375 16.5 
Q 14.984375 11.71875 18.140625 8.90625 
Q 21.296875 6.109375 26.703125 6.109375 
Q 34.1875 6.109375 38.703125 11.40625 
Q 43.21875 16.703125 43.21875 25.484375 
L 43.21875 27.484375 
z
M 52.203125 31.203125 
L 52.203125 0 
L 43.21875 0 
L 43.21875 8.296875 
Q 40.140625 3.328125 35.546875 0.953125 
Q 30.953125 -1.421875 24.3125 -1.421875 
Q 15.921875 -1.421875 10.953125 3.296875 
Q 6 8.015625 6 15.921875 
Q 6 25.140625 12.171875 29.828125 
Q 18.359375 34.515625 30.609375 34.515625 
L 43.21875 34.515625 
L 43.21875 35.40625 
Q 43.21875 41.609375 39.140625 45 
Q 35.0625 48.390625 27.6875 48.390625 
Q 23 48.390625 18.546875 47.265625 
Q 14.109375 46.140625 10.015625 43.890625 
L 10.015625 52.203125 
Q 14.9375 54.109375 19.578125 55.046875 
Q 24.21875 56 28.609375 56 
Q 40.484375 56 46.34375 49.84375 
Q 52.203125 43.703125 52.203125 31.203125 
" id="BitstreamVeraSans-Roman-61"/>
      <path d="M 54.890625 33.015625 
L 54.890625 0 
L 45.90625 0 
L 45.90625 32.71875 
Q 45.90625 40.484375 42.875 44.328125 
Q 39.84375 48.1875 33.796875 48.1875 
Q 26.515625 48.1875 22.3125 43.546875 
Q 18.109375 38.921875 18.109375 30.90625 
L 18.109375 0 
L 9.078125 0 
L 9.078125 54.6875 
L 18.109375 54.6875 
L 18.109375 46.1875 
Q 21.34375 51.125 25.703125 53.5625 
Q 30.078125 56 35.796875 56 
Q 45.21875 56 50.046875 50.171875 
Q 54.890625 44.34375 54.890625 33.015625 
" id="BitstreamVeraSans-Roman-6e"/>
      <path d="M 8.59375 75.984375 
L 29.296875 75.984375 
L 29.296875 69 
L 17.578125 69 
L 17.578125 -6.203125 
L 29.296875 -6.203125 
L 29.296875 -13.1875 
L 8.59375 -13.1875 
z
" id="BitstreamVeraSans-Roman-5b"/>
      <path d="M 8.6875 72.90625 
L 18.609375 72.90625 
L 18.609375 28.609375 
Q 18.609375 16.890625 22.84375 11.734375 
Q 27.09375 6.59375 36.625 6.59375 
Q 46.09375 6.59375 50.34375 11.734375 
Q 54.59375 16.890625 54.59375 28.609375 
L 54.59375 72.90625 
L 64.5 72.90625 
L 64.5 27.390625 
Q 64.5 13.140625 57.4375 5.859375 
Q 50.390625 -1.421875 36.625 -1.421875 
Q 22.796875 -1.421875 15.734375 5.859375 
Q 8.6875 13.140625 8.6875 27.390625 
z
" id="BitstreamVeraSans-Roman-55"/>
      <path d="M 18.109375 8.203125 
L 18.109375 -20.796875 
L 9.078125 -20.796875 
L 9.078125 54.6875 
L 18.109375 54.6875 
L 18.109375 46.390625 
Q 20.953125 51.265625 25.265625 53.625 
Q 29.59375 56 35.59375 56 
Q 45.5625 56 51.78125 48.09375 
Q 58.015625 40.1875 58.015625 27.296875 
Q 58.015625 14.40625 51.78125 6.484375 
Q 45.5625 -1.421875 35.59375 -1.421875 
Q 29.59375 -1.421875 25.265625 0.953125 
Q 20.953125 3.328125 18.109375 8.203125 
M 48.6875 27.296875 
Q 48.6875 37.203125 44.609375 42.84375 
Q 40.53125 48.484375 33.40625 48.484375 
Q 26.265625 48.484375 22.1875 42.84375 
Q 18.109375 37.203125 18.109375 27.296875 
Q 18.109375 17.390625 22.1875 11.75 
Q 26.265625 6.109375 33.40625 6.109375 
Q 40.53125 6.109375 44.609375 11.75 
Q 48.6875 17.390625 48.6875 27.296875 
" id="BitstreamVeraSans-Roman-70"/>
      <path d="M 41.109375 46.296875 
Q 39.59375 47.171875 37.8125 47.578125 
Q 36.03125 48 33.890625 48 
Q 26.265625 48 22.1875 43.046875 
Q 18.109375 38.09375 18.109375 28.8125 
L 18.109375 0 
L 9.078125 0 
L 9.078125 54.6875 
L 18.109375 54.6875 
L 18.109375 46.1875 
Q 20.953125 51.171875 25.484375 53.578125 
Q 30.03125 56 36.53125 56 
Q 37.453125 56 38.578125 55.875 
Q 39.703125 55.765625 41.0625 55.515625 
z
" id="BitstreamVeraSans-Roman-72"/>
      <path d="M 18.3125 70.21875 
L 18.3125 54.6875 
L 36.8125 54.6875 
L 36.8125 47.703125 
L 18.3125 47.703125 
L 18.3125 18.015625 
Q 18.3125 11.328125 20.140625 9.421875 
Q 21.96875 7.515625 27.59375 7.515625 
L 36.8125 7.515625 
L 36.8125 0 
L 27.59375 0 
Q 17.1875 0 13.234375 3.875 
Q 9.28125 7.765625 9.28125 18.015625 
L 9.28125 47.703125 
L 2.6875 47.703125 
L 2.6875 54.6875 
L 9.28125 54.6875 
L 9.28125 70.21875 
z
" id="BitstreamVeraSans-Roman-74"/>
      <path d="M 64.40625 67.28125 
L 64.40625 56.890625 
Q 59.421875 61.53125 53.78125 63.8125 
Q 48.140625 66.109375 41.796875 66.109375 
Q 29.296875 66.109375 22.65625 58.46875 
Q 16.015625 50.828125 16.015625 36.375 
Q 16.015625 21.96875 22.65625 14.328125 
Q 29.296875 6.6875 41.796875 6.6875 
Q 48.140625 6.6875 53.78125 8.984375 
Q 59.421875 11.28125 64.40625 15.921875 
L 64.40625 5.609375 
Q 59.234375 2.09375 53.4375 0.328125 
Q 47.65625 -1.421875 41.21875 -1.421875 
Q 24.65625 -1.421875 15.125 8.703125 
Q 5.609375 18.84375 5.609375 36.375 
Q 5.609375 53.953125 15.125 64.078125 
Q 24.65625 74.21875 41.21875 74.21875 
Q 47.75 74.21875 53.53125 72.484375 
Q 59.328125 70.75 64.40625 67.28125 
" id="BitstreamVeraSans-Roman-43"/>
      <path d="M 56.203125 29.59375 
L 56.203125 25.203125 
L 14.890625 25.203125 
Q 15.484375 15.921875 20.484375 11.0625 
Q 25.484375 6.203125 34.421875 6.203125 
Q 39.59375 6.203125 44.453125 7.46875 
Q 49.3125 8.734375 54.109375 11.28125 
L 54.109375 2.78125 
Q 49.265625 0.734375 44.1875 -0.34375 
Q 39.109375 -1.421875 33.890625 -1.421875 
Q 20.796875 -1.421875 13.15625 6.1875 
Q 5.515625 13.8125 5.515625 26.8125 
Q 5.515625 40.234375 12.765625 48.109375 
Q 20.015625 56 32.328125 56 
Q 43.359375 56 49.78125 48.890625 
Q 56.203125 41.796875 56.203125 29.59375 
M 47.21875 32.234375 
Q 47.125 39.59375 43.09375 43.984375 
Q 39.0625 48.390625 32.421875 48.390625 
Q 24.90625 48.390625 20.390625 44.140625 
Q 15.875 39.890625 15.1875 32.171875 
z
" id="BitstreamVeraSans-Roman-65"/>
     </defs>
     <g transform="translate(228.036875 425.544375)scale(0.12 -0.12)">
      <use xlink:href="#BitstreamVeraSans-Roman-47"/>
      <use x="77.490234375" xlink:href="#BitstreamVeraSans-Roman-44"/>
      <use x="154.4921875" xlink:href="#BitstreamVeraSans-Roman-50"/>
      <use x="214.794921875" xlink:href="#BitstreamVeraSans-Roman-20"/>
      <use x="246.58203125" xlink:href="#BitstreamVeraSans-Roman-70"/>
      <use x="310.05859375" xlink:href="#BitstreamVeraSans-Roman-65"/>
      <use x="371.58203125" xlink:href="#BitstreamVeraSans-Roman-72"/>
      <use x="412.6953125" xlink:href="#BitstreamVeraSans-Roman-20"/>
      <use x="444.482421875" xlink:href="#BitstreamVeraSans-Roman-43"/>
      <use x="514.306640625" xlink:href="#BitstreamVeraSans-Roman-61"/>
      <use x="575.5859375" xlink:href="#BitstreamVeraSans-Roman-70"/>
      <use x="639.0625" xlink:href="#BitstreamVeraSans-Roman-69"/>
      <use x="666.845703125" xlink:href="#BitstreamVeraSans-Roman-74"/>
      <use x="706.0546875" xlink:href="#BitstreamVeraSans-Roman-61"/>
      <use x="767.333984375" xlink:href="#BitstreamVeraSans-Roman-20"/>
      <use x="799.12109375" xlink:href="#BitstreamVeraSans-Roman-5b"/>
      <use x="838.134765625" xlink:href="#BitstreamVeraSans-Roman-69"/>
      <use x="865.91796875" xlink:href="#BitstreamVeraSans-Roman-6e"/>
      <use x="929.296875" xlink:href="#BitstreamVeraSans-Roman-20"/>
      <use x="961.083984375" xlink:href="#BitstreamVeraSans-Roman-55"/>
      <use x="1034.27734375" xlink:href="#BitstreamVeraSans-Roman-53"/>
      <use x="1097.75390625" xlink:href="#BitstreamVeraSans-Roman-44"/>
      <use x="1174.755859375" xlink:href="#BitstreamVeraSans-Roman-5d"/>
     </g>
    </g>
   </g>
   <g id="matplotlib.axis_2">
    <g id="ytick_1">
     <g id="line2d_57">
      <defs>
       <path d="M 0 0 
L 4 0 
" id="m9cba0c52e5" style="stroke:#000000;stroke-width:0.5;"/>
      </defs>
      <g>
       <use style="stroke:#000000;stroke-width:0.5;" x="48.84375" xlink:href="#m9cba0c52e5" y="395.18625"/>
      </g>
     </g>
     <g id="line2d_58">
      <defs>
       <path d="M 0 0 
L -4 0 
" id="m2548b5cd31" style="stroke:#000000;stroke-width:0.5;"/>
      </defs>
      <g>
       <use style="stroke:#000000;stroke-width:0.5;" x="552.88" xlink:href="#m2548b5cd31" y="395.18625"/>
      </g>
     </g>
     <g id="text_6">
      <!-- 30 -->
      <g transform="translate(29.57375 398.4975)scale(0.12 -0.12)">
       <use xlink:href="#BitstreamVeraSans-Roman-33"/>
       <use x="63.623046875" xlink:href="#BitstreamVeraSans-Roman-30"/>
      </g>
     </g>
    </g>
    <g id="ytick_2">
     <g id="line2d_59">
      <g>
       <use style="stroke:#000000;stroke-width:0.5;" x="48.84375" xlink:href="#m9cba0c52e5" y="334.138833333"/>
      </g>
     </g>
     <g id="line2d_60">
      <g>
       <use style="stroke:#000000;stroke-width:0.5;" x="552.88" xlink:href="#m2548b5cd31" y="334.138833333"/>
      </g>
     </g>
     <g id="text_7">
      <!-- 40 -->
      <g transform="translate(29.57375 337.450083333)scale(0.12 -0.12)">
       <use xlink:href="#BitstreamVeraSans-Roman-34"/>
       <use x="63.623046875" xlink:href="#BitstreamVeraSans-Roman-30"/>
      </g>
     </g>
    </g>
    <g id="ytick_3">
     <g id="line2d_61">
      <g>
       <use style="stroke:#000000;stroke-width:0.5;" x="48.84375" xlink:href="#m9cba0c52e5" y="273.091416667"/>
      </g>
     </g>
     <g id="line2d_62">
      <g>
       <use style="stroke:#000000;stroke-width:0.5;" x="552.88" xlink:href="#m2548b5cd31" y="273.091416667"/>
      </g>
     </g>
     <g id="text_8">
      <!-- 50 -->
      <g transform="translate(29.57375 276.402666667)scale(0.12 -0.12)">
       <use xlink:href="#BitstreamVeraSans-Roman-35"/>
       <use x="63.623046875" xlink:href="#BitstreamVeraSans-Roman-30"/>
      </g>
     </g>
    </g>
    <g id="ytick_4">
     <g id="line2d_63">
      <g>
       <use style="stroke:#000000;stroke-width:0.5;" x="48.84375" xlink:href="#m9cba0c52e5" y="212.044"/>
      </g>
     </g>
     <g id="line2d_64">
      <g>
       <use style="stroke:#000000;stroke-width:0.5;" x="552.88" xlink:href="#m2548b5cd31" y="212.044"/>
      </g>
     </g>
     <g id="text_9">
      <!-- 60 -->
      <defs>
       <path d="M 33.015625 40.375 
Q 26.375 40.375 22.484375 35.828125 
Q 18.609375 31.296875 18.609375 23.390625 
Q 18.609375 15.53125 22.484375 10.953125 
Q 26.375 6.390625 33.015625 6.390625 
Q 39.65625 6.390625 43.53125 10.953125 
Q 47.40625 15.53125 47.40625 23.390625 
Q 47.40625 31.296875 43.53125 35.828125 
Q 39.65625 40.375 33.015625 40.375 
M 52.59375 71.296875 
L 52.59375 62.3125 
Q 48.875 64.0625 45.09375 64.984375 
Q 41.3125 65.921875 37.59375 65.921875 
Q 27.828125 65.921875 22.671875 59.328125 
Q 17.53125 52.734375 16.796875 39.40625 
Q 19.671875 43.65625 24.015625 45.921875 
Q 28.375 48.1875 33.59375 48.1875 
Q 44.578125 48.1875 50.953125 41.515625 
Q 57.328125 34.859375 57.328125 23.390625 
Q 57.328125 12.15625 50.6875 5.359375 
Q 44.046875 -1.421875 33.015625 -1.421875 
Q 20.359375 -1.421875 13.671875 8.265625 
Q 6.984375 17.96875 6.984375 36.375 
Q 6.984375 53.65625 15.1875 63.9375 
Q 23.390625 74.21875 37.203125 74.21875 
Q 40.921875 74.21875 44.703125 73.484375 
Q 48.484375 72.75 52.59375 71.296875 
" id="BitstreamVeraSans-Roman-36"/>
      </defs>
      <g transform="translate(29.57375 215.35525)scale(0.12 -0.12)">
       <use xlink:href="#BitstreamVeraSans-Roman-36"/>
       <use x="63.623046875" xlink:href="#BitstreamVeraSans-Roman-30"/>
      </g>
     </g>
    </g>
    <g id="ytick_5">
     <g id="line2d_65">
      <g>
       <use style="stroke:#000000;stroke-width:0.5;" x="48.84375" xlink:href="#m9cba0c52e5" y="150.996583333"/>
      </g>
     </g>
     <g id="line2d_66">
      <g>
       <use style="stroke:#000000;stroke-width:0.5;" x="552.88" xlink:href="#m2548b5cd31" y="150.996583333"/>
      </g>
     </g>
     <g id="text_10">
      <!-- 70 -->
      <defs>
       <path d="M 8.203125 72.90625 
L 55.078125 72.90625 
L 55.078125 68.703125 
L 28.609375 0 
L 18.3125 0 
L 43.21875 64.59375 
L 8.203125 64.59375 
z
" id="BitstreamVeraSans-Roman-37"/>
      </defs>
      <g transform="translate(29.57375 154.307833333)scale(0.12 -0.12)">
       <use xlink:href="#BitstreamVeraSans-Roman-37"/>
       <use x="63.623046875" xlink:href="#BitstreamVeraSans-Roman-30"/>
      </g>
     </g>
    </g>
    <g id="ytick_6">
     <g id="line2d_67">
      <g>
       <use style="stroke:#000000;stroke-width:0.5;" x="48.84375" xlink:href="#m9cba0c52e5" y="89.9491666667"/>
      </g>
     </g>
     <g id="line2d_68">
      <g>
       <use style="stroke:#000000;stroke-width:0.5;" x="552.88" xlink:href="#m2548b5cd31" y="89.9491666667"/>
      </g>
     </g>
     <g id="text_11">
      <!-- 80 -->
      <defs>
       <path d="M 31.78125 34.625 
Q 24.75 34.625 20.71875 30.859375 
Q 16.703125 27.09375 16.703125 20.515625 
Q 16.703125 13.921875 20.71875 10.15625 
Q 24.75 6.390625 31.78125 6.390625 
Q 38.8125 6.390625 42.859375 10.171875 
Q 46.921875 13.96875 46.921875 20.515625 
Q 46.921875 27.09375 42.890625 30.859375 
Q 38.875 34.625 31.78125 34.625 
M 21.921875 38.8125 
Q 15.578125 40.375 12.03125 44.71875 
Q 8.5 49.078125 8.5 55.328125 
Q 8.5 64.0625 14.71875 69.140625 
Q 20.953125 74.21875 31.78125 74.21875 
Q 42.671875 74.21875 48.875 69.140625 
Q 55.078125 64.0625 55.078125 55.328125 
Q 55.078125 49.078125 51.53125 44.71875 
Q 48 40.375 41.703125 38.8125 
Q 48.828125 37.15625 52.796875 32.3125 
Q 56.78125 27.484375 56.78125 20.515625 
Q 56.78125 9.90625 50.3125 4.234375 
Q 43.84375 -1.421875 31.78125 -1.421875 
Q 19.734375 -1.421875 13.25 4.234375 
Q 6.78125 9.90625 6.78125 20.515625 
Q 6.78125 27.484375 10.78125 32.3125 
Q 14.796875 37.15625 21.921875 38.8125 
M 18.3125 54.390625 
Q 18.3125 48.734375 21.84375 45.5625 
Q 25.390625 42.390625 31.78125 42.390625 
Q 38.140625 42.390625 41.71875 45.5625 
Q 45.3125 48.734375 45.3125 54.390625 
Q 45.3125 60.0625 41.71875 63.234375 
Q 38.140625 66.40625 31.78125 66.40625 
Q 25.390625 66.40625 21.84375 63.234375 
Q 18.3125 60.0625 18.3125 54.390625 
" id="BitstreamVeraSans-Roman-38"/>
      </defs>
      <g transform="translate(29.57375 93.2604166667)scale(0.12 -0.12)">
       <use xlink:href="#BitstreamVeraSans-Roman-38"/>
       <use x="63.623046875" xlink:href="#BitstreamVeraSans-Roman-30"/>
      </g>
     </g>
    </g>
    <g id="ytick_7">
     <g id="line2d_69">
      <g>
       <use style="stroke:#000000;stroke-width:0.5;" x="48.84375" xlink:href="#m9cba0c52e5" y="28.90175"/>
      </g>
     </g>
     <g id="line2d_70">
      <g>
       <use style="stroke:#000000;stroke-width:0.5;" x="552.88" xlink:href="#m2548b5cd31" y="28.90175"/>
      </g>
     </g>
     <g id="text_12">
      <!-- 90 -->
      <defs>
       <path d="M 10.984375 1.515625 
L 10.984375 10.5 
Q 14.703125 8.734375 18.5 7.8125 
Q 22.3125 6.890625 25.984375 6.890625 
Q 35.75 6.890625 40.890625 13.453125 
Q 46.046875 20.015625 46.78125 33.40625 
Q 43.953125 29.203125 39.59375 26.953125 
Q 35.25 24.703125 29.984375 24.703125 
Q 19.046875 24.703125 12.671875 31.3125 
Q 6.296875 37.9375 6.296875 49.421875 
Q 6.296875 60.640625 12.9375 67.421875 
Q 19.578125 74.21875 30.609375 74.21875 
Q 43.265625 74.21875 49.921875 64.515625 
Q 56.59375 54.828125 56.59375 36.375 
Q 56.59375 19.140625 48.40625 8.859375 
Q 40.234375 -1.421875 26.421875 -1.421875 
Q 22.703125 -1.421875 18.890625 -0.6875 
Q 15.09375 0.046875 10.984375 1.515625 
M 30.609375 32.421875 
Q 37.25 32.421875 41.125 36.953125 
Q 45.015625 41.5 45.015625 49.421875 
Q 45.015625 57.28125 41.125 61.84375 
Q 37.25 66.40625 30.609375 66.40625 
Q 23.96875 66.40625 20.09375 61.84375 
Q 16.21875 57.28125 16.21875 49.421875 
Q 16.21875 41.5 20.09375 36.953125 
Q 23.96875 32.421875 30.609375 32.421875 
" id="BitstreamVeraSans-Roman-39"/>
      </defs>
      <g transform="translate(29.57375 32.213)scale(0.12 -0.12)">
       <use xlink:href="#BitstreamVeraSans-Roman-39"/>
       <use x="63.623046875" xlink:href="#BitstreamVeraSans-Roman-30"/>
      </g>
     </g>
    </g>
    <g id="text_13">
     <!-- Life Expectancy [in years] -->
     <defs>
      <path d="M 9.8125 72.90625 
L 19.671875 72.90625 
L 19.671875 8.296875 
L 55.171875 8.296875 
L 55.171875 0 
L 9.8125 0 
z
" id="BitstreamVeraSans-Roman-4c"/>
      <path d="M 44.28125 53.078125 
L 44.28125 44.578125 
Q 40.484375 46.53125 36.375 47.5 
Q 32.28125 48.484375 27.875 48.484375 
Q 21.1875 48.484375 17.84375 46.4375 
Q 14.5 44.390625 14.5 40.28125 
Q 14.5 37.15625 16.890625 35.375 
Q 19.28125 33.59375 26.515625 31.984375 
L 29.59375 31.296875 
Q 39.15625 29.25 43.1875 25.515625 
Q 47.21875 21.78125 47.21875 15.09375 
Q 47.21875 7.46875 41.1875 3.015625 
Q 35.15625 -1.421875 24.609375 -1.421875 
Q 20.21875 -1.421875 15.453125 -0.5625 
Q 10.6875 0.296875 5.421875 2 
L 5.421875 11.28125 
Q 10.40625 8.6875 15.234375 7.390625 
Q 20.0625 6.109375 24.8125 6.109375 
Q 31.15625 6.109375 34.5625 8.28125 
Q 37.984375 10.453125 37.984375 14.40625 
Q 37.984375 18.0625 35.515625 20.015625 
Q 33.0625 21.96875 24.703125 23.78125 
L 21.578125 24.515625 
Q 13.234375 26.265625 9.515625 29.90625 
Q 5.8125 33.546875 5.8125 39.890625 
Q 5.8125 47.609375 11.28125 51.796875 
Q 16.75 56 26.8125 56 
Q 31.78125 56 36.171875 55.265625 
Q 40.578125 54.546875 44.28125 53.078125 
" id="BitstreamVeraSans-Roman-73"/>
      <path d="M 9.8125 72.90625 
L 55.90625 72.90625 
L 55.90625 64.59375 
L 19.671875 64.59375 
L 19.671875 43.015625 
L 54.390625 43.015625 
L 54.390625 34.71875 
L 19.671875 34.71875 
L 19.671875 8.296875 
L 56.78125 8.296875 
L 56.78125 0 
L 9.8125 0 
z
" id="BitstreamVeraSans-Roman-45"/>
      <path d="M 54.890625 54.6875 
L 35.109375 28.078125 
L 55.90625 0 
L 45.3125 0 
L 29.390625 21.484375 
L 13.484375 0 
L 2.875 0 
L 24.125 28.609375 
L 4.6875 54.6875 
L 15.28125 54.6875 
L 29.78125 35.203125 
L 44.28125 54.6875 
z
" id="BitstreamVeraSans-Roman-78"/>
      <path d="M 32.171875 -5.078125 
Q 28.375 -14.84375 24.75 -17.8125 
Q 21.140625 -20.796875 15.09375 -20.796875 
L 7.90625 -20.796875 
L 7.90625 -13.28125 
L 13.1875 -13.28125 
Q 16.890625 -13.28125 18.9375 -11.515625 
Q 21 -9.765625 23.484375 -3.21875 
L 25.09375 0.875 
L 2.984375 54.6875 
L 12.5 54.6875 
L 29.59375 11.921875 
L 46.6875 54.6875 
L 56.203125 54.6875 
z
" id="BitstreamVeraSans-Roman-79"/>
      <path d="M 37.109375 75.984375 
L 37.109375 68.5 
L 28.515625 68.5 
Q 23.6875 68.5 21.796875 66.546875 
Q 19.921875 64.59375 19.921875 59.515625 
L 19.921875 54.6875 
L 34.71875 54.6875 
L 34.71875 47.703125 
L 19.921875 47.703125 
L 19.921875 0 
L 10.890625 0 
L 10.890625 47.703125 
L 2.296875 47.703125 
L 2.296875 54.6875 
L 10.890625 54.6875 
L 10.890625 58.5 
Q 10.890625 67.625 15.140625 71.796875 
Q 19.390625 75.984375 28.609375 75.984375 
z
" id="BitstreamVeraSans-Roman-66"/>
      <path d="M 48.78125 52.59375 
L 48.78125 44.1875 
Q 44.96875 46.296875 41.140625 47.34375 
Q 37.3125 48.390625 33.40625 48.390625 
Q 24.65625 48.390625 19.8125 42.84375 
Q 14.984375 37.3125 14.984375 27.296875 
Q 14.984375 17.28125 19.8125 11.734375 
Q 24.65625 6.203125 33.40625 6.203125 
Q 37.3125 6.203125 41.140625 7.25 
Q 44.96875 8.296875 48.78125 10.40625 
L 48.78125 2.09375 
Q 45.015625 0.34375 40.984375 -0.53125 
Q 36.96875 -1.421875 32.421875 -1.421875 
Q 20.0625 -1.421875 12.78125 6.34375 
Q 5.515625 14.109375 5.515625 27.296875 
Q 5.515625 40.671875 12.859375 48.328125 
Q 20.21875 56 33.015625 56 
Q 37.15625 56 41.109375 55.140625 
Q 45.0625 54.296875 48.78125 52.59375 
" id="BitstreamVeraSans-Roman-63"/>
     </defs>
     <g transform="translate(22.078125 290.0665)rotate(-90.0)scale(0.12 -0.12)">
      <use xlink:href="#BitstreamVeraSans-Roman-4c"/>
      <use x="55.712890625" xlink:href="#BitstreamVeraSans-Roman-69"/>
      <use x="83.49609375" xlink:href="#BitstreamVeraSans-Roman-66"/>
      <use x="118.701171875" xlink:href="#BitstreamVeraSans-Roman-65"/>
      <use x="180.224609375" xlink:href="#BitstreamVeraSans-Roman-20"/>
      <use x="212.01171875" xlink:href="#BitstreamVeraSans-Roman-45"/>
      <use x="275.1953125" xlink:href="#BitstreamVeraSans-Roman-78"/>
      <use x="334.375" xlink:href="#BitstreamVeraSans-Roman-70"/>
      <use x="397.8515625" xlink:href="#BitstreamVeraSans-Roman-65"/>
      <use x="459.375" xlink:href="#BitstreamVeraSans-Roman-63"/>
      <use x="514.35546875" xlink:href="#BitstreamVeraSans-Roman-74"/>
      <use x="553.564453125" xlink:href="#BitstreamVeraSans-Roman-61"/>
      <use x="614.84375" xlink:href="#BitstreamVeraSans-Roman-6e"/>
      <use x="678.22265625" xlink:href="#BitstreamVeraSans-Roman-63"/>
      <use x="733.203125" xlink:href="#BitstreamVeraSans-Roman-79"/>
      <use x="792.3828125" xlink:href="#BitstreamVeraSans-Roman-20"/>
      <use x="824.169921875" xlink:href="#BitstreamVeraSans-Roman-5b"/>
      <use x="863.18359375" xlink:href="#BitstreamVeraSans-Roman-69"/>
      <use x="890.966796875" xlink:href="#BitstreamVeraSans-Roman-6e"/>
      <use x="954.345703125" xlink:href="#BitstreamVeraSans-Roman-20"/>
      <use x="986.1328125" xlink:href="#BitstreamVeraSans-Roman-79"/>
      <use x="1045.3125" xlink:href="#BitstreamVeraSans-Roman-65"/>
      <use x="1106.8359375" xlink:href="#BitstreamVeraSans-Roman-61"/>
      <use x="1168.115234375" xlink:href="#BitstreamVeraSans-Roman-72"/>
      <use x="1209.228515625" xlink:href="#BitstreamVeraSans-Roman-73"/>
      <use x="1261.328125" xlink:href="#BitstreamVeraSans-Roman-5d"/>
     </g>
    </g>
   </g>
   <g id="text_14">
    <!-- World Development in 2007 -->
    <defs>
     <path d="M 3.328125 72.90625 
L 13.28125 72.90625 
L 28.609375 11.28125 
L 43.890625 72.90625 
L 54.984375 72.90625 
L 70.3125 11.28125 
L 85.59375 72.90625 
L 95.609375 72.90625 
L 77.296875 0 
L 64.890625 0 
L 49.515625 63.28125 
L 33.984375 0 
L 21.578125 0 
z
" id="BitstreamVeraSans-Roman-57"/>
     <path d="M 52 44.1875 
Q 55.375 50.25 60.0625 53.125 
Q 64.75 56 71.09375 56 
Q 79.640625 56 84.28125 50.015625 
Q 88.921875 44.046875 88.921875 33.015625 
L 88.921875 0 
L 79.890625 0 
L 79.890625 32.71875 
Q 79.890625 40.578125 77.09375 44.375 
Q 74.3125 48.1875 68.609375 48.1875 
Q 61.625 48.1875 57.5625 43.546875 
Q 53.515625 38.921875 53.515625 30.90625 
L 53.515625 0 
L 44.484375 0 
L 44.484375 32.71875 
Q 44.484375 40.625 41.703125 44.40625 
Q 38.921875 48.1875 33.109375 48.1875 
Q 26.21875 48.1875 22.15625 43.53125 
Q 18.109375 38.875 18.109375 30.90625 
L 18.109375 0 
L 9.078125 0 
L 9.078125 54.6875 
L 18.109375 54.6875 
L 18.109375 46.1875 
Q 21.1875 51.21875 25.484375 53.609375 
Q 29.78125 56 35.6875 56 
Q 41.65625 56 45.828125 52.96875 
Q 50 49.953125 52 44.1875 
" id="BitstreamVeraSans-Roman-6d"/>
     <path d="M 9.421875 75.984375 
L 18.40625 75.984375 
L 18.40625 0 
L 9.421875 0 
z
" id="BitstreamVeraSans-Roman-6c"/>
     <path d="M 45.40625 46.390625 
L 45.40625 75.984375 
L 54.390625 75.984375 
L 54.390625 0 
L 45.40625 0 
L 45.40625 8.203125 
Q 42.578125 3.328125 38.25 0.953125 
Q 33.9375 -1.421875 27.875 -1.421875 
Q 17.96875 -1.421875 11.734375 6.484375 
Q 5.515625 14.40625 5.515625 27.296875 
Q 5.515625 40.1875 11.734375 48.09375 
Q 17.96875 56 27.875 56 
Q 33.9375 56 38.25 53.625 
Q 42.578125 51.265625 45.40625 46.390625 
M 14.796875 27.296875 
Q 14.796875 17.390625 18.875 11.75 
Q 22.953125 6.109375 30.078125 6.109375 
Q 37.203125 6.109375 41.296875 11.75 
Q 45.40625 17.390625 45.40625 27.296875 
Q 45.40625 37.203125 41.296875 42.84375 
Q 37.203125 48.484375 30.078125 48.484375 
Q 22.953125 48.484375 18.875 42.84375 
Q 14.796875 37.203125 14.796875 27.296875 
" id="BitstreamVeraSans-Roman-64"/>
     <path d="M 30.609375 48.390625 
Q 23.390625 48.390625 19.1875 42.75 
Q 14.984375 37.109375 14.984375 27.296875 
Q 14.984375 17.484375 19.15625 11.84375 
Q 23.34375 6.203125 30.609375 6.203125 
Q 37.796875 6.203125 41.984375 11.859375 
Q 46.1875 17.53125 46.1875 27.296875 
Q 46.1875 37.015625 41.984375 42.703125 
Q 37.796875 48.390625 30.609375 48.390625 
M 30.609375 56 
Q 42.328125 56 49.015625 48.375 
Q 55.71875 40.765625 55.71875 27.296875 
Q 55.71875 13.875 49.015625 6.21875 
Q 42.328125 -1.421875 30.609375 -1.421875 
Q 18.84375 -1.421875 12.171875 6.21875 
Q 5.515625 13.875 5.515625 27.296875 
Q 5.515625 40.765625 12.171875 48.375 
Q 18.84375 56 30.609375 56 
" id="BitstreamVeraSans-Roman-6f"/>
     <path d="M 2.984375 54.6875 
L 12.5 54.6875 
L 29.59375 8.796875 
L 46.6875 54.6875 
L 56.203125 54.6875 
L 35.6875 0 
L 23.484375 0 
z
" id="BitstreamVeraSans-Roman-76"/>
    </defs>
    <g transform="translate(199.58825 23.90175)scale(0.144 -0.144)">
     <use xlink:href="#BitstreamVeraSans-Roman-57"/>
     <use x="98.798828125" xlink:href="#BitstreamVeraSans-Roman-6f"/>
     <use x="159.98046875" xlink:href="#BitstreamVeraSans-Roman-72"/>
     <use x="201.09375" xlink:href="#BitstreamVeraSans-Roman-6c"/>
     <use x="228.876953125" xlink:href="#BitstreamVeraSans-Roman-64"/>
     <use x="292.353515625" xlink:href="#BitstreamVeraSans-Roman-20"/>
     <use x="324.140625" xlink:href="#BitstreamVeraSans-Roman-44"/>
     <use x="401.142578125" xlink:href="#BitstreamVeraSans-Roman-65"/>
     <use x="462.666015625" xlink:href="#BitstreamVeraSans-Roman-76"/>
     <use x="521.845703125" xlink:href="#BitstreamVeraSans-Roman-65"/>
     <use x="583.369140625" xlink:href="#BitstreamVeraSans-Roman-6c"/>
     <use x="611.15234375" xlink:href="#BitstreamVeraSans-Roman-6f"/>
     <use x="672.333984375" xlink:href="#BitstreamVeraSans-Roman-70"/>
     <use x="735.810546875" xlink:href="#BitstreamVeraSans-Roman-6d"/>
     <use x="833.22265625" xlink:href="#BitstreamVeraSans-Roman-65"/>
     <use x="894.74609375" xlink:href="#BitstreamVeraSans-Roman-6e"/>
     <use x="958.125" xlink:href="#BitstreamVeraSans-Roman-74"/>
     <use x="997.333984375" xlink:href="#BitstreamVeraSans-Roman-20"/>
     <use x="1029.12109375" xlink:href="#BitstreamVeraSans-Roman-69"/>
     <use x="1056.904296875" xlink:href="#BitstreamVeraSans-Roman-6e"/>
     <use x="1120.283203125" xlink:href="#BitstreamVeraSans-Roman-20"/>
     <use x="1152.0703125" xlink:href="#BitstreamVeraSans-Roman-32"/>
     <use x="1215.693359375" xlink:href="#BitstreamVeraSans-Roman-30"/>
     <use x="1279.31640625" xlink:href="#BitstreamVeraSans-Roman-30"/>
     <use x="1342.939453125" xlink:href="#BitstreamVeraSans-Roman-37"/>
    </g>
   </g>
  </g>
 </g>
 <defs>
  <clipPath id="paa82f6a192">
   <rect height="366.2845" width="504.03625" x="48.84375" y="28.90175"/>
  </clipPath>
 </defs>
</svg>
