<?xml version="1.0" encoding="utf-8" standalone="no"?>
<!DOCTYPE svg PUBLIC "-//W3C//DTD SVG 1.1//EN"
  "http://www.w3.org/Graphics/SVG/1.1/DTD/svg11.dtd">
<!-- Created with matplotlib (http://matplotlib.org/) -->
<svg height="441pt" version="1.1" viewBox="0 0 577 441" width="577pt" xmlns="http://www.w3.org/2000/svg" xmlns:xlink="http://www.w3.org/1999/xlink">
 <defs>
  <style type="text/css">
*{stroke-linecap:butt;stroke-linejoin:round;stroke-miterlimit:100000;}
  </style>
 </defs>
 <g id="figure_1">
  <g id="patch_1">
   <path d="M 0 441 
L 577 441 
L 577 0 
L 0 0 
z
" style="fill:#ffffff;"/>
  </g>
  <g id="axes_1">
   <g id="patch_2">
    <path d="M 48.84375 395.8125 
L 549.113125 395.8125 
L 549.113125 28.90175 
L 48.84375 28.90175 
z
" style="fill:#ffffff;"/>
   </g>
   <g id="PathCollection_1">
    <defs>
     <path d="M 0 2.236068 
C 0.593012 2.236068 1.161816 2.000462 1.581139 1.581139 
C 2.000462 1.161816 2.236068 0.593012 2.236068 0 
C 2.236068 -0.593012 2.000462 -1.161816 1.581139 -1.581139 
C 1.161816 -2.000462 0.593012 -2.236068 0 -2.236068 
C -0.593012 -2.236068 -1.161816 -2.000462 -1.581139 -1.581139 
C -2.000462 -1.161816 -2.236068 -0.593012 -2.236068 0 
C -2.236068 0.593012 -2.000462 1.161816 -1.581139 1.581139 
C -1.161816 2.000462 -0.593012 2.236068 0 2.236068 
z
" id="m6fc22c4715" style="stroke:#000000;"/>
    </defs>
    <g clip-path="url(#p64989b3929)">
     <use style="fill:#0000ff;stroke:#000000;" x="213.7354785" xlink:href="#m6fc22c4715" y="311.251802483"/>
     <use style="fill:#0000ff;stroke:#000000;" x="344.597869862" xlink:href="#m6fc22c4715" y="111.927537546"/>
     <use style="fill:#0000ff;stroke:#000000;" x="348.009079384" xlink:href="#m6fc22c4715" y="137.134306071"/>
     <use style="fill:#0000ff;stroke:#000000;" x="329.159798224" xlink:href="#m6fc22c4715" y="317.960154029"/>
     <use style="fill:#0000ff;stroke:#000000;" x="400.117859026" xlink:href="#m6fc22c4715" y="118.672580167"/>
     <use style="fill:#0000ff;stroke:#000000;" x="471.905672124" xlink:href="#m6fc22c4715" y="82.5012953958"/>
     <use style="fill:#0000ff;stroke:#000000;" x="475.377721545" xlink:href="#m6fc22c4715" y="91.0992373042"/>
     <use style="fill:#0000ff;stroke:#000000;" x="461.425687195" xlink:href="#m6fc22c4715" y="116.746298729"/>
     <use style="fill:#0000ff;stroke:#000000;" x="239.514145206" xlink:href="#m6fc22c4715" y="187.517267225"/>
     <use style="fill:#0000ff;stroke:#000000;" x="470.326466796" xlink:href="#m6fc22c4715" y="93.4719268208"/>
     <use style="fill:#0000ff;stroke:#000000;" x="242.072767498" xlink:href="#m6fc22c4715" y="232.365991233"/>
     <use style="fill:#0000ff;stroke:#000000;" x="312.703537802" xlink:href="#m6fc22c4715" y="178.393419908"/>
     <use style="fill:#0000ff;stroke:#000000;" x="361.001911234" xlink:href="#m6fc22c4715" y="121.534484017"/>
     <use style="fill:#0000ff;stroke:#000000;" x="398.920611737" xlink:href="#m6fc22c4715" y="269.057066233"/>
     <use style="fill:#0000ff;stroke:#000000;" x="375.253870997" xlink:href="#m6fc22c4715" y="136.590055125"/>
     <use style="fill:#0000ff;stroke:#000000;" x="387.126483513" xlink:href="#m6fc22c4715" y="132.829219938"/>
     <use style="fill:#0000ff;stroke:#000000;" x="229.824926473" xlink:href="#m6fc22c4715" y="259.474580479"/>
     <use style="fill:#0000ff;stroke:#000000;" x="154.490611152" xlink:href="#m6fc22c4715" y="276.077291917"/>
     <use style="fill:#0000ff;stroke:#000000;" x="254.613671732" xlink:href="#m6fc22c4715" y="214.051029629"/>
     <use style="fill:#0000ff;stroke:#000000;" x="267.307382742" xlink:href="#m6fc22c4715" y="270.879389625"/>
     <use style="fill:#0000ff;stroke:#000000;" x="475.763077678" xlink:href="#m6fc22c4715" y="86.0603296708"/>
     <use style="fill:#0000ff;stroke:#000000;" x="190.389112108" xlink:href="#m6fc22c4715" y="305.668643904"/>
     <use style="fill:#0000ff;stroke:#000000;" x="254.201965717" xlink:href="#m6fc22c4715" y="269.527935029"/>
     <use style="fill:#0000ff;stroke:#000000;" x="402.30737839" xlink:href="#m6fc22c4715" y="98.9022059208"/>
     <use style="fill:#0000ff;stroke:#000000;" x="331.56334429" xlink:href="#m6fc22c4715" y="133.098287821"/>
     <use style="fill:#0000ff;stroke:#000000;" x="356.593812911" xlink:href="#m6fc22c4715" y="133.538580721"/>
     <use style="fill:#0000ff;stroke:#000000;" x="214.590005224" xlink:href="#m6fc22c4715" y="180.851721933"/>
     <use style="fill:#0000ff;stroke:#000000;" x="122.774248617" xlink:href="#m6fc22c4715" y="295.144420558"/>
     <use style="fill:#0000ff;stroke:#000000;" x="309.019266272" xlink:href="#m6fc22c4715" y="240.963933142"/>
     <use style="fill:#0000ff;stroke:#000000;" x="379.739423651" xlink:href="#m6fc22c4715" y="97.5018298917"/>
     <use style="fill:#0000ff;stroke:#000000;" x="247.093538791" xlink:href="#m6fc22c4715" y="283.733496233"/>
     <use style="fill:#0000ff;stroke:#000000;" x="409.858855912" xlink:href="#m6fc22c4715" y="116.055283483"/>
     <use style="fill:#0000ff;stroke:#000000;" x="374.30749431" xlink:href="#m6fc22c4715" y="100.614456088"/>
     <use style="fill:#0000ff;stroke:#000000;" x="442.150337265" xlink:href="#m6fc22c4715" y="111.542281258"/>
     <use style="fill:#0000ff;stroke:#000000;" x="473.657346892" xlink:href="#m6fc22c4715" y="100.253660517"/>
     <use style="fill:#0000ff;stroke:#000000;" x="268.72567526" xlink:href="#m6fc22c4715" y="244.211093279"/>
     <use style="fill:#0000ff;stroke:#000000;" x="345.667588287" xlink:href="#m6fc22c4715" y="137.537907896"/>
     <use style="fill:#0000ff;stroke:#000000;" x="355.20253185" xlink:href="#m6fc22c4715" y="120.666128575"/>
     <use style="fill:#0000ff;stroke:#000000;" x="340.121609271" xlink:href="#m6fc22c4715" y="143.023223608"/>
     <use style="fill:#0000ff;stroke:#000000;" x="342.006575052" xlink:href="#m6fc22c4715" y="139.721026858"/>
     <use style="fill:#0000ff;stroke:#000000;" x="396.484680536" xlink:href="#m6fc22c4715" y="263.853048763"/>
     <use style="fill:#0000ff;stroke:#000000;" x="183.434274836" xlink:href="#m6fc22c4715" y="224.342876167"/>
     <use style="fill:#0000ff;stroke:#000000;" x="188.811756219" xlink:href="#m6fc22c4715" y="255.487483663"/>
     <use style="fill:#0000ff;stroke:#000000;" x="469.275259841" xlink:href="#m6fc22c4715" y="94.2546697542"/>
     <use style="fill:#0000ff;stroke:#000000;" x="463.045563111" xlink:href="#m6fc22c4715" y="86.0358689542"/>
     <use style="fill:#0000ff;stroke:#000000;" x="402.498716793" xlink:href="#m6fc22c4715" y="232.323184979"/>
     <use style="fill:#0000ff;stroke:#000000;" x="195.030900317" xlink:href="#m6fc22c4715" y="215.7327039"/>
     <use style="fill:#0000ff;stroke:#000000;" x="466.978251253" xlink:href="#m6fc22c4715" y="93.6859580917"/>
     <use style="fill:#0000ff;stroke:#000000;" x="236.12295208" xlink:href="#m6fc22c4715" y="212.222591058"/>
     <use style="fill:#0000ff;stroke:#000000;" x="455.719318046" xlink:href="#m6fc22c4715" y="93.2150892958"/>
     <use style="fill:#0000ff;stroke:#000000;" x="334.803844686" xlink:href="#m6fc22c4715" y="149.621501929"/>
     <use style="fill:#0000ff;stroke:#000000;" x="211.323307391" xlink:href="#m6fc22c4715" y="236.775035413"/>
     <use style="fill:#0000ff;stroke:#000000;" x="176.054306785" xlink:href="#m6fc22c4715" y="295.596943817"/>
     <use style="fill:#0000ff;stroke:#000000;" x="228.90292932" xlink:href="#m6fc22c4715" y="206.755620883"/>
     <use style="fill:#0000ff;stroke:#000000;" x="307.320280351" xlink:href="#m6fc22c4715" y="149.994527858"/>
     <use style="fill:#0000ff;stroke:#000000;" x="482.25440304" xlink:href="#m6fc22c4715" y="76.5512260667"/>
     <use style="fill:#0000ff;stroke:#000000;" x="424.960983753" xlink:href="#m6fc22c4715" y="130.792865275"/>
     <use style="fill:#0000ff;stroke:#000000;" x="475.486485946" xlink:href="#m6fc22c4715" y="79.3091718708"/>
     <use style="fill:#0000ff;stroke:#000000;" x="280.561475907" xlink:href="#m6fc22c4715" y="183.628013275"/>
     <use style="fill:#0000ff;stroke:#000000;" x="307.163376408" xlink:href="#m6fc22c4715" y="147.230466875"/>
     <use style="fill:#0000ff;stroke:#000000;" x="393.141120723" xlink:href="#m6fc22c4715" y="145.310300617"/>
     <use style="fill:#0000ff;stroke:#000000;" x="324.060390313" xlink:href="#m6fc22c4715" y="215.139531521"/>
     <use style="fill:#0000ff;stroke:#000000;" x="483.967746774" xlink:href="#m6fc22c4715" y="96.8719664375"/>
     <use style="fill:#0000ff;stroke:#000000;" x="450.215945422" xlink:href="#m6fc22c4715" y="85.4977331875"/>
     <use style="fill:#0000ff;stroke:#000000;" x="458.381933142" xlink:href="#m6fc22c4715" y="86.7146538417"/>
     <use style="fill:#0000ff;stroke:#000000;" x="359.771722868" xlink:href="#m6fc22c4715" y="135.507668413"/>
     <use style="fill:#0000ff;stroke:#000000;" x="465.811098696" xlink:href="#m6fc22c4715" y="74.1357302958"/>
     <use style="fill:#0000ff;stroke:#000000;" x="324.840139573" xlink:href="#m6fc22c4715" y="135.703354146"/>
     <use style="fill:#0000ff;stroke:#000000;" x="243.168105821" xlink:href="#m6fc22c4715" y="248.375530292"/>
     <use style="fill:#0000ff;stroke:#000000;" x="249.323971734" xlink:href="#m6fc22c4715" y="167.734662621"/>
     <use style="fill:#0000ff;stroke:#000000;" x="443.765113276" xlink:href="#m6fc22c4715" y="98.4741433792"/>
     <use style="fill:#0000ff;stroke:#000000;" x="494.90482168" xlink:href="#m6fc22c4715" y="104.803353817"/>
     <use style="fill:#0000ff;stroke:#000000;" x="385.621030766" xlink:href="#m6fc22c4715" y="139.017781254"/>
     <use style="fill:#0000ff;stroke:#000000;" x="248.236894555" xlink:href="#m6fc22c4715" y="318.810163933"/>
     <use style="fill:#0000ff;stroke:#000000;" x="151.821237067" xlink:href="#m6fc22c4715" y="299.938721025"/>
     <use style="fill:#0000ff;stroke:#000000;" x="395.906837" xlink:href="#m6fc22c4715" y="127.038145267"/>
     <use style="fill:#0000ff;stroke:#000000;" x="218.772040564" xlink:href="#m6fc22c4715" y="215.763279796"/>
     <use style="fill:#0000ff;stroke:#000000;" x="195.663130661" xlink:href="#m6fc22c4715" y="283.886375713"/>
     <use style="fill:#0000ff;stroke:#000000;" x="398.23640177" xlink:href="#m6fc22c4715" y="125.270858488"/>
     <use style="fill:#0000ff;stroke:#000000;" x="218.620174147" xlink:href="#m6fc22c4715" y="246.192411329"/>
     <use style="fill:#0000ff;stroke:#000000;" x="258.29523398" xlink:href="#m6fc22c4715" y="186.89351895"/>
     <use style="fill:#0000ff;stroke:#000000;" x="388.975448895" xlink:href="#m6fc22c4715" y="134.076716488"/>
     <use style="fill:#0000ff;stroke:#000000;" x="395.425186459" xlink:href="#m6fc22c4715" y="113.321798396"/>
     <use style="fill:#0000ff;stroke:#000000;" x="297.439109621" xlink:href="#m6fc22c4715" y="170.755561129"/>
     <use style="fill:#0000ff;stroke:#000000;" x="376.741079494" xlink:href="#m6fc22c4715" y="123.424074379"/>
     <use style="fill:#0000ff;stroke:#000000;" x="312.666355277" xlink:href="#m6fc22c4715" y="144.087264783"/>
     <use style="fill:#0000ff;stroke:#000000;" x="201.552891808" xlink:href="#m6fc22c4715" y="321.928905308"/>
     <use style="fill:#0000ff;stroke:#000000;" x="211.426626743" xlink:href="#m6fc22c4715" y="199.704819304"/>
     <use style="fill:#0000ff;stroke:#000000;" x="329.36826985" xlink:href="#m6fc22c4715" y="255.738206008"/>
     <use style="fill:#0000ff;stroke:#000000;" x="221.931608179" xlink:href="#m6fc22c4715" y="189.211171854"/>
     <use style="fill:#0000ff;stroke:#000000;" x="476.711377579" xlink:href="#m6fc22c4715" y="91.5089543083"/>
     <use style="fill:#0000ff;stroke:#000000;" x="449.2497046" xlink:href="#m6fc22c4715" y="88.8060451167"/>
     <use style="fill:#0000ff;stroke:#000000;" x="288.843887752" xlink:href="#m6fc22c4715" y="133.477428929"/>
     <use style="fill:#0000ff;stroke:#000000;" x="180.942430129" xlink:href="#m6fc22c4715" y="231.515981329"/>
     <use style="fill:#0000ff;stroke:#000000;" x="266.303271949" xlink:href="#m6fc22c4715" y="292.716694429"/>
     <use style="fill:#0000ff;stroke:#000000;" x="497.977328424" xlink:href="#m6fc22c4715" y="88.85496655"/>
     <use style="fill:#0000ff;stroke:#000000;" x="440.491320879" xlink:href="#m6fc22c4715" y="116.715722833"/>
     <use style="fill:#0000ff;stroke:#000000;" x="284.965171152" xlink:href="#m6fc22c4715" y="178.827597629"/>
     <use style="fill:#0000ff;stroke:#000000;" x="380.961407627" xlink:href="#m6fc22c4715" y="117.345586288"/>
     <use style="fill:#0000ff;stroke:#000000;" x="319.061180074" xlink:href="#m6fc22c4715" y="140.491539433"/>
     <use style="fill:#0000ff;stroke:#000000;" x="360.637314834" xlink:href="#m6fc22c4715" y="142.515663738"/>
     <use style="fill:#0000ff;stroke:#000000;" x="299.621477889" xlink:href="#m6fc22c4715" y="140.8829109"/>
     <use style="fill:#0000ff;stroke:#000000;" x="413.579561335" xlink:href="#m6fc22c4715" y="117.186591629"/>
     <use style="fill:#0000ff;stroke:#000000;" x="434.377711566" xlink:href="#m6fc22c4715" y="101.684612442"/>
     <use style="fill:#0000ff;stroke:#000000;" x="430.082839947" xlink:href="#m6fc22c4715" y="97.7219763417"/>
     <use style="fill:#0000ff;stroke:#000000;" x="363.146706779" xlink:href="#m6fc22c4715" y="111.811349142"/>
     <use style="fill:#0000ff;stroke:#000000;" x="387.987106246" xlink:href="#m6fc22c4715" y="136.064149717"/>
     <use style="fill:#0000ff;stroke:#000000;" x="204.937018606" xlink:href="#m6fc22c4715" y="296.489759975"/>
     <use style="fill:#0000ff;stroke:#000000;" x="249.567665891" xlink:href="#m6fc22c4715" y="178.552414567"/>
     <use style="fill:#0000ff;stroke:#000000;" x="438.312599623" xlink:href="#m6fc22c4715" y="134.223480788"/>
     <use style="fill:#0000ff;stroke:#000000;" x="254.558438065" xlink:href="#m6fc22c4715" y="193.632446392"/>
     <use style="fill:#0000ff;stroke:#000000;" x="380.793982046" xlink:href="#m6fc22c4715" y="126.732386308"/>
     <use style="fill:#0000ff;stroke:#000000;" x="204.891046074" xlink:href="#m6fc22c4715" y="318.956928233"/>
     <use style="fill:#0000ff;stroke:#000000;" x="494.653612535" xlink:href="#m6fc22c4715" y="90.2247666833"/>
     <use style="fill:#0000ff;stroke:#000000;" x="427.603977223" xlink:href="#m6fc22c4715" y="122.690252879"/>
     <use style="fill:#0000ff;stroke:#000000;" x="450.907754215" xlink:href="#m6fc22c4715" y="102.736423258"/>
     <use style="fill:#0000ff;stroke:#000000;" x="210.043406677" xlink:href="#m6fc22c4715" y="284.766961513"/>
     <use style="fill:#0000ff;stroke:#000000;" x="376.864326318" xlink:href="#m6fc22c4715" y="277.551050096"/>
     <use style="fill:#0000ff;stroke:#000000;" x="459.01627901" xlink:href="#m6fc22c4715" y="84.2991580708"/>
     <use style="fill:#0000ff;stroke:#000000;" x="315.454132934" xlink:href="#m6fc22c4715" y="136.55336405"/>
     <use style="fill:#0000ff;stroke:#000000;" x="284.866374558" xlink:href="#m6fc22c4715" y="221.187443717"/>
     <use style="fill:#0000ff;stroke:#000000;" x="324.744242059" xlink:href="#m6fc22c4715" y="337.027282671"/>
     <use style="fill:#0000ff;stroke:#000000;" x="470.68484886" xlink:href="#m6fc22c4715" y="84.6477232833"/>
     <use style="fill:#0000ff;stroke:#000000;" x="478.092483534" xlink:href="#m6fc22c4715" y="79.6516219042"/>
     <use style="fill:#0000ff;stroke:#000000;" x="319.264121053" xlink:href="#m6fc22c4715" y="125.870146046"/>
     <use style="fill:#0000ff;stroke:#000000;" x="458.757535092" xlink:href="#m6fc22c4715" y="99.8378283333"/>
     <use style="fill:#0000ff;stroke:#000000;" x="222.993647353" xlink:href="#m6fc22c4715" y="258.117010704"/>
     <use style="fill:#0000ff;stroke:#000000;" x="361.11947418" xlink:href="#m6fc22c4715" y="147.438382967"/>
     <use style="fill:#0000ff;stroke:#000000;" x="206.586341476" xlink:href="#m6fc22c4715" y="222.019108083"/>
     <use style="fill:#0000ff;stroke:#000000;" x="424.959233613" xlink:href="#m6fc22c4715" y="152.312180763"/>
     <use style="fill:#0000ff;stroke:#000000;" x="357.480813142" xlink:href="#m6fc22c4715" y="127.215485463"/>
     <use style="fill:#0000ff;stroke:#000000;" x="370.230449205" xlink:href="#m6fc22c4715" y="140.338659954"/>
     <use style="fill:#0000ff;stroke:#000000;" x="219.572383864" xlink:href="#m6fc22c4715" y="264.079310392"/>
     <use style="fill:#0000ff;stroke:#000000;" x="469.266921509" xlink:href="#m6fc22c4715" y="93.5697696875"/>
     <use style="fill:#0000ff;stroke:#000000;" x="487.910150199" xlink:href="#m6fc22c4715" y="100.804026642"/>
     <use style="fill:#0000ff;stroke:#000000;" x="386.654858354" xlink:href="#m6fc22c4715" y="112.166029533"/>
     <use style="fill:#0000ff;stroke:#000000;" x="391.946258274" xlink:href="#m6fc22c4715" y="128.291756996"/>
     <use style="fill:#0000ff;stroke:#000000;" x="280.246737758" xlink:href="#m6fc22c4715" y="125.221937054"/>
     <use style="fill:#0000ff;stroke:#000000;" x="295.772643981" xlink:href="#m6fc22c4715" y="130.279190225"/>
     <use style="fill:#0000ff;stroke:#000000;" x="275.312606727" xlink:href="#m6fc22c4715" y="195.858371608"/>
     <use style="fill:#0000ff;stroke:#000000;" x="232.979207032" xlink:href="#m6fc22c4715" y="320.0821212"/>
     <use style="fill:#0000ff;stroke:#000000;" x="160.875600879" xlink:href="#m6fc22c4715" y="313.337078579"/>
    </g>
   </g>
   <g id="patch_3">
    <path d="M 549.113125 395.8125 
L 549.113125 28.90175 
" style="fill:none;stroke:#000000;stroke-linecap:square;stroke-linejoin:miter;"/>
   </g>
   <g id="patch_4">
    <path d="M 48.84375 28.90175 
L 549.113125 28.90175 
" style="fill:none;stroke:#000000;stroke-linecap:square;stroke-linejoin:miter;"/>
   </g>
   <g id="patch_5">
    <path d="M 48.84375 395.8125 
L 549.113125 395.8125 
" style="fill:none;stroke:#000000;stroke-linecap:square;stroke-linejoin:miter;"/>
   </g>
   <g id="patch_6">
    <path d="M 48.84375 395.8125 
L 48.84375 28.90175 
" style="fill:none;stroke:#000000;stroke-linecap:square;stroke-linejoin:miter;"/>
   </g>
   <g id="matplotlib.axis_1">
    <g id="xtick_1">
     <g id="line2d_1">
      <defs>
       <path d="M 0 0 
L 0 -4 
" id="m69b02900ed" style="stroke:#000000;stroke-width:0.5;"/>
      </defs>
      <g>
       <use style="stroke:#000000;stroke-width:0.5;" x="215.600208333" xlink:href="#m69b02900ed" y="395.8125"/>
      </g>
     </g>
     <g id="line2d_2">
      <defs>
       <path d="M 0 0 
L 0 4 
" id="m9d4761be7b" style="stroke:#000000;stroke-width:0.5;"/>
      </defs>
      <g>
       <use style="stroke:#000000;stroke-width:0.5;" x="215.600208333" xlink:href="#m9d4761be7b" y="28.90175"/>
      </g>
     </g>
     <g id="text_1">
      <!-- 1k -->
      <defs>
       <path d="M 9.078125 75.984375 
L 18.109375 75.984375 
L 18.109375 31.109375 
L 44.921875 54.6875 
L 56.390625 54.6875 
L 27.390625 29.109375 
L 57.625 0 
L 45.90625 0 
L 18.109375 26.703125 
L 18.109375 0 
L 9.078125 0 
z
" id="BitstreamVeraSans-Roman-6b"/>
       <path d="M 12.40625 8.296875 
L 28.515625 8.296875 
L 28.515625 63.921875 
L 10.984375 60.40625 
L 10.984375 69.390625 
L 28.421875 72.90625 
L 38.28125 72.90625 
L 38.28125 8.296875 
L 54.390625 8.296875 
L 54.390625 0 
L 12.40625 0 
z
" id="BitstreamVeraSans-Roman-31"/>
      </defs>
      <g transform="translate(208.308333333 408.930625)scale(0.12 -0.12)">
       <use xlink:href="#BitstreamVeraSans-Roman-31"/>
       <use x="63.623046875" xlink:href="#BitstreamVeraSans-Roman-6b"/>
      </g>
     </g>
    </g>
    <g id="xtick_2">
     <g id="line2d_3">
      <g>
       <use style="stroke:#000000;stroke-width:0.5;" x="382.356666667" xlink:href="#m69b02900ed" y="395.8125"/>
      </g>
     </g>
     <g id="line2d_4">
      <g>
       <use style="stroke:#000000;stroke-width:0.5;" x="382.356666667" xlink:href="#m9d4761be7b" y="28.90175"/>
      </g>
     </g>
     <g id="text_2">
      <!-- 10k -->
      <defs>
       <path d="M 31.78125 66.40625 
Q 24.171875 66.40625 20.328125 58.90625 
Q 16.5 51.421875 16.5 36.375 
Q 16.5 21.390625 20.328125 13.890625 
Q 24.171875 6.390625 31.78125 6.390625 
Q 39.453125 6.390625 43.28125 13.890625 
Q 47.125 21.390625 47.125 36.375 
Q 47.125 51.421875 43.28125 58.90625 
Q 39.453125 66.40625 31.78125 66.40625 
M 31.78125 74.21875 
Q 44.046875 74.21875 50.515625 64.515625 
Q 56.984375 54.828125 56.984375 36.375 
Q 56.984375 17.96875 50.515625 8.265625 
Q 44.046875 -1.421875 31.78125 -1.421875 
Q 19.53125 -1.421875 13.0625 8.265625 
Q 6.59375 17.96875 6.59375 36.375 
Q 6.59375 54.828125 13.0625 64.515625 
Q 19.53125 74.21875 31.78125 74.21875 
" id="BitstreamVeraSans-Roman-30"/>
      </defs>
      <g transform="translate(371.247291667 408.930625)scale(0.12 -0.12)">
       <use xlink:href="#BitstreamVeraSans-Roman-31"/>
       <use x="63.623046875" xlink:href="#BitstreamVeraSans-Roman-30"/>
       <use x="127.24609375" xlink:href="#BitstreamVeraSans-Roman-6b"/>
      </g>
     </g>
    </g>
    <g id="xtick_3">
     <g id="line2d_5">
      <g>
       <use style="stroke:#000000;stroke-width:0.5;" x="549.113125" xlink:href="#m69b02900ed" y="395.8125"/>
      </g>
     </g>
     <g id="line2d_6">
      <g>
       <use style="stroke:#000000;stroke-width:0.5;" x="549.113125" xlink:href="#m9d4761be7b" y="28.90175"/>
      </g>
     </g>
     <g id="text_3">
      <!-- 100k -->
      <g transform="translate(534.18625 408.930625)scale(0.12 -0.12)">
       <use xlink:href="#BitstreamVeraSans-Roman-31"/>
       <use x="63.623046875" xlink:href="#BitstreamVeraSans-Roman-30"/>
       <use x="127.24609375" xlink:href="#BitstreamVeraSans-Roman-30"/>
       <use x="190.869140625" xlink:href="#BitstreamVeraSans-Roman-6b"/>
      </g>
     </g>
    </g>
    <g id="xtick_4">
     <g id="line2d_7">
      <defs>
       <path d="M 0 0 
L 0 -2 
" id="mab04ac4806" style="stroke:#000000;stroke-width:0.5;"/>
      </defs>
      <g>
       <use style="stroke:#000000;stroke-width:0.5;" x="99.042445929" xlink:href="#mab04ac4806" y="395.8125"/>
      </g>
     </g>
     <g id="line2d_8">
      <defs>
       <path d="M 0 0 
L 0 2 
" id="m8493c3dacf" style="stroke:#000000;stroke-width:0.5;"/>
      </defs>
      <g>
       <use style="stroke:#000000;stroke-width:0.5;" x="99.042445929" xlink:href="#m8493c3dacf" y="28.90175"/>
      </g>
     </g>
    </g>
    <g id="xtick_5">
     <g id="line2d_9">
      <g>
       <use style="stroke:#000000;stroke-width:0.5;" x="128.406800633" xlink:href="#mab04ac4806" y="395.8125"/>
      </g>
     </g>
     <g id="line2d_10">
      <g>
       <use style="stroke:#000000;stroke-width:0.5;" x="128.406800633" xlink:href="#m8493c3dacf" y="28.90175"/>
      </g>
     </g>
    </g>
    <g id="xtick_6">
     <g id="line2d_11">
      <g>
       <use style="stroke:#000000;stroke-width:0.5;" x="149.241141858" xlink:href="#mab04ac4806" y="395.8125"/>
      </g>
     </g>
     <g id="line2d_12">
      <g>
       <use style="stroke:#000000;stroke-width:0.5;" x="149.241141858" xlink:href="#m8493c3dacf" y="28.90175"/>
      </g>
     </g>
    </g>
    <g id="xtick_7">
     <g id="line2d_13">
      <g>
       <use style="stroke:#000000;stroke-width:0.5;" x="165.401512404" xlink:href="#mab04ac4806" y="395.8125"/>
      </g>
     </g>
     <g id="line2d_14">
      <g>
       <use style="stroke:#000000;stroke-width:0.5;" x="165.401512404" xlink:href="#m8493c3dacf" y="28.90175"/>
      </g>
     </g>
    </g>
    <g id="xtick_8">
     <g id="line2d_15">
      <g>
       <use style="stroke:#000000;stroke-width:0.5;" x="178.605496562" xlink:href="#mab04ac4806" y="395.8125"/>
      </g>
     </g>
     <g id="line2d_16">
      <g>
       <use style="stroke:#000000;stroke-width:0.5;" x="178.605496562" xlink:href="#m8493c3dacf" y="28.90175"/>
      </g>
     </g>
    </g>
    <g id="xtick_9">
     <g id="line2d_17">
      <g>
       <use style="stroke:#000000;stroke-width:0.5;" x="189.769306097" xlink:href="#mab04ac4806" y="395.8125"/>
      </g>
     </g>
     <g id="line2d_18">
      <g>
       <use style="stroke:#000000;stroke-width:0.5;" x="189.769306097" xlink:href="#m8493c3dacf" y="28.90175"/>
      </g>
     </g>
    </g>
    <g id="xtick_10">
     <g id="line2d_19">
      <g>
       <use style="stroke:#000000;stroke-width:0.5;" x="199.439837787" xlink:href="#mab04ac4806" y="395.8125"/>
      </g>
     </g>
     <g id="line2d_20">
      <g>
       <use style="stroke:#000000;stroke-width:0.5;" x="199.439837787" xlink:href="#m8493c3dacf" y="28.90175"/>
      </g>
     </g>
    </g>
    <g id="xtick_11">
     <g id="line2d_21">
      <g>
       <use style="stroke:#000000;stroke-width:0.5;" x="207.969851265" xlink:href="#mab04ac4806" y="395.8125"/>
      </g>
     </g>
     <g id="line2d_22">
      <g>
       <use style="stroke:#000000;stroke-width:0.5;" x="207.969851265" xlink:href="#m8493c3dacf" y="28.90175"/>
      </g>
     </g>
    </g>
    <g id="xtick_12">
     <g id="line2d_23">
      <g>
       <use style="stroke:#000000;stroke-width:0.5;" x="265.798904262" xlink:href="#mab04ac4806" y="395.8125"/>
      </g>
     </g>
     <g id="line2d_24">
      <g>
       <use style="stroke:#000000;stroke-width:0.5;" x="265.798904262" xlink:href="#m8493c3dacf" y="28.90175"/>
      </g>
     </g>
    </g>
    <g id="xtick_13">
     <g id="line2d_25">
      <g>
       <use style="stroke:#000000;stroke-width:0.5;" x="295.163258966" xlink:href="#mab04ac4806" y="395.8125"/>
      </g>
     </g>
     <g id="line2d_26">
      <g>
       <use style="stroke:#000000;stroke-width:0.5;" x="295.163258966" xlink:href="#m8493c3dacf" y="28.90175"/>
      </g>
     </g>
    </g>
    <g id="xtick_14">
     <g id="line2d_27">
      <g>
       <use style="stroke:#000000;stroke-width:0.5;" x="315.997600191" xlink:href="#mab04ac4806" y="395.8125"/>
      </g>
     </g>
     <g id="line2d_28">
      <g>
       <use style="stroke:#000000;stroke-width:0.5;" x="315.997600191" xlink:href="#m8493c3dacf" y="28.90175"/>
      </g>
     </g>
    </g>
    <g id="xtick_15">
     <g id="line2d_29">
      <g>
       <use style="stroke:#000000;stroke-width:0.5;" x="332.157970738" xlink:href="#mab04ac4806" y="395.8125"/>
      </g>
     </g>
     <g id="line2d_30">
      <g>
       <use style="stroke:#000000;stroke-width:0.5;" x="332.157970738" xlink:href="#m8493c3dacf" y="28.90175"/>
      </g>
     </g>
    </g>
    <g id="xtick_16">
     <g id="line2d_31">
      <g>
       <use style="stroke:#000000;stroke-width:0.5;" x="345.361954895" xlink:href="#mab04ac4806" y="395.8125"/>
      </g>
     </g>
     <g id="line2d_32">
      <g>
       <use style="stroke:#000000;stroke-width:0.5;" x="345.361954895" xlink:href="#m8493c3dacf" y="28.90175"/>
      </g>
     </g>
    </g>
    <g id="xtick_17">
     <g id="line2d_33">
      <g>
       <use style="stroke:#000000;stroke-width:0.5;" x="356.525764431" xlink:href="#mab04ac4806" y="395.8125"/>
      </g>
     </g>
     <g id="line2d_34">
      <g>
       <use style="stroke:#000000;stroke-width:0.5;" x="356.525764431" xlink:href="#m8493c3dacf" y="28.90175"/>
      </g>
     </g>
    </g>
    <g id="xtick_18">
     <g id="line2d_35">
      <g>
       <use style="stroke:#000000;stroke-width:0.5;" x="366.19629612" xlink:href="#mab04ac4806" y="395.8125"/>
      </g>
     </g>
     <g id="line2d_36">
      <g>
       <use style="stroke:#000000;stroke-width:0.5;" x="366.19629612" xlink:href="#m8493c3dacf" y="28.90175"/>
      </g>
     </g>
    </g>
    <g id="xtick_19">
     <g id="line2d_37">
      <g>
       <use style="stroke:#000000;stroke-width:0.5;" x="374.726309599" xlink:href="#mab04ac4806" y="395.8125"/>
      </g>
     </g>
     <g id="line2d_38">
      <g>
       <use style="stroke:#000000;stroke-width:0.5;" x="374.726309599" xlink:href="#m8493c3dacf" y="28.90175"/>
      </g>
     </g>
    </g>
    <g id="xtick_20">
     <g id="line2d_39">
      <g>
       <use style="stroke:#000000;stroke-width:0.5;" x="432.555362596" xlink:href="#mab04ac4806" y="395.8125"/>
      </g>
     </g>
     <g id="line2d_40">
      <g>
       <use style="stroke:#000000;stroke-width:0.5;" x="432.555362596" xlink:href="#m8493c3dacf" y="28.90175"/>
      </g>
     </g>
    </g>
    <g id="xtick_21">
     <g id="line2d_41">
      <g>
       <use style="stroke:#000000;stroke-width:0.5;" x="461.919717299" xlink:href="#mab04ac4806" y="395.8125"/>
      </g>
     </g>
     <g id="line2d_42">
      <g>
       <use style="stroke:#000000;stroke-width:0.5;" x="461.919717299" xlink:href="#m8493c3dacf" y="28.90175"/>
      </g>
     </g>
    </g>
    <g id="xtick_22">
     <g id="line2d_43">
      <g>
       <use style="stroke:#000000;stroke-width:0.5;" x="482.754058525" xlink:href="#mab04ac4806" y="395.8125"/>
      </g>
     </g>
     <g id="line2d_44">
      <g>
       <use style="stroke:#000000;stroke-width:0.5;" x="482.754058525" xlink:href="#m8493c3dacf" y="28.90175"/>
      </g>
     </g>
    </g>
    <g id="xtick_23">
     <g id="line2d_45">
      <g>
       <use style="stroke:#000000;stroke-width:0.5;" x="498.914429071" xlink:href="#mab04ac4806" y="395.8125"/>
      </g>
     </g>
     <g id="line2d_46">
      <g>
       <use style="stroke:#000000;stroke-width:0.5;" x="498.914429071" xlink:href="#m8493c3dacf" y="28.90175"/>
      </g>
     </g>
    </g>
    <g id="xtick_24">
     <g id="line2d_47">
      <g>
       <use style="stroke:#000000;stroke-width:0.5;" x="512.118413228" xlink:href="#mab04ac4806" y="395.8125"/>
      </g>
     </g>
     <g id="line2d_48">
      <g>
       <use style="stroke:#000000;stroke-width:0.5;" x="512.118413228" xlink:href="#m8493c3dacf" y="28.90175"/>
      </g>
     </g>
    </g>
    <g id="xtick_25">
     <g id="line2d_49">
      <g>
       <use style="stroke:#000000;stroke-width:0.5;" x="523.282222764" xlink:href="#mab04ac4806" y="395.8125"/>
      </g>
     </g>
     <g id="line2d_50">
      <g>
       <use style="stroke:#000000;stroke-width:0.5;" x="523.282222764" xlink:href="#m8493c3dacf" y="28.90175"/>
      </g>
     </g>
    </g>
    <g id="xtick_26">
     <g id="line2d_51">
      <g>
       <use style="stroke:#000000;stroke-width:0.5;" x="532.952754454" xlink:href="#mab04ac4806" y="395.8125"/>
      </g>
     </g>
     <g id="line2d_52">
      <g>
       <use style="stroke:#000000;stroke-width:0.5;" x="532.952754454" xlink:href="#m8493c3dacf" y="28.90175"/>
      </g>
     </g>
    </g>
    <g id="xtick_27">
     <g id="line2d_53">
      <g>
       <use style="stroke:#000000;stroke-width:0.5;" x="541.482767932" xlink:href="#mab04ac4806" y="395.8125"/>
      </g>
     </g>
     <g id="line2d_54">
      <g>
       <use style="stroke:#000000;stroke-width:0.5;" x="541.482767932" xlink:href="#m8493c3dacf" y="28.90175"/>
      </g>
     </g>
    </g>
    <g id="text_4">
     <!-- GDP per Capita [in USD] -->
     <defs>
      <path d="M 59.515625 10.40625 
L 59.515625 29.984375 
L 43.40625 29.984375 
L 43.40625 38.09375 
L 69.28125 38.09375 
L 69.28125 6.78125 
Q 63.578125 2.734375 56.6875 0.65625 
Q 49.8125 -1.421875 42 -1.421875 
Q 24.90625 -1.421875 15.25 8.5625 
Q 5.609375 18.5625 5.609375 36.375 
Q 5.609375 54.25 15.25 64.234375 
Q 24.90625 74.21875 42 74.21875 
Q 49.125 74.21875 55.546875 72.453125 
Q 61.96875 70.703125 67.390625 67.28125 
L 67.390625 56.78125 
Q 61.921875 61.421875 55.765625 63.765625 
Q 49.609375 66.109375 42.828125 66.109375 
Q 29.4375 66.109375 22.71875 58.640625 
Q 16.015625 51.171875 16.015625 36.375 
Q 16.015625 21.625 22.71875 14.15625 
Q 29.4375 6.6875 42.828125 6.6875 
Q 48.046875 6.6875 52.140625 7.59375 
Q 56.25 8.5 59.515625 10.40625 
" id="BitstreamVeraSans-Roman-47"/>
      <path d="M 19.671875 64.796875 
L 19.671875 8.109375 
L 31.59375 8.109375 
Q 46.6875 8.109375 53.6875 14.9375 
Q 60.6875 21.78125 60.6875 36.53125 
Q 60.6875 51.171875 53.6875 57.984375 
Q 46.6875 64.796875 31.59375 64.796875 
z
M 9.8125 72.90625 
L 30.078125 72.90625 
Q 51.265625 72.90625 61.171875 64.09375 
Q 71.09375 55.28125 71.09375 36.53125 
Q 71.09375 17.671875 61.125 8.828125 
Q 51.171875 0 30.078125 0 
L 9.8125 0 
z
" id="BitstreamVeraSans-Roman-44"/>
      <path d="M 9.421875 54.6875 
L 18.40625 54.6875 
L 18.40625 0 
L 9.421875 0 
z
M 9.421875 75.984375 
L 18.40625 75.984375 
L 18.40625 64.59375 
L 9.421875 64.59375 
z
" id="BitstreamVeraSans-Roman-69"/>
      <path d="M 30.421875 75.984375 
L 30.421875 -13.1875 
L 9.71875 -13.1875 
L 9.71875 -6.203125 
L 21.390625 -6.203125 
L 21.390625 69 
L 9.71875 69 
L 9.71875 75.984375 
z
" id="BitstreamVeraSans-Roman-5d"/>
      <path id="BitstreamVeraSans-Roman-20"/>
      <path d="M 53.515625 70.515625 
L 53.515625 60.890625 
Q 47.90625 63.578125 42.921875 64.890625 
Q 37.9375 66.21875 33.296875 66.21875 
Q 25.25 66.21875 20.875 63.09375 
Q 16.5 59.96875 16.5 54.203125 
Q 16.5 49.359375 19.40625 46.890625 
Q 22.3125 44.4375 30.421875 42.921875 
L 36.375 41.703125 
Q 47.40625 39.59375 52.65625 34.296875 
Q 57.90625 29 57.90625 20.125 
Q 57.90625 9.515625 50.796875 4.046875 
Q 43.703125 -1.421875 29.984375 -1.421875 
Q 24.8125 -1.421875 18.96875 -0.25 
Q 13.140625 0.921875 6.890625 3.21875 
L 6.890625 13.375 
Q 12.890625 10.015625 18.65625 8.296875 
Q 24.421875 6.59375 29.984375 6.59375 
Q 38.421875 6.59375 43.015625 9.90625 
Q 47.609375 13.234375 47.609375 19.390625 
Q 47.609375 24.75 44.3125 27.78125 
Q 41.015625 30.8125 33.5 32.328125 
L 27.484375 33.5 
Q 16.453125 35.6875 11.515625 40.375 
Q 6.59375 45.0625 6.59375 53.421875 
Q 6.59375 63.09375 13.40625 68.65625 
Q 20.21875 74.21875 32.171875 74.21875 
Q 37.3125 74.21875 42.625 73.28125 
Q 47.953125 72.359375 53.515625 70.515625 
" id="BitstreamVeraSans-Roman-53"/>
      <path d="M 19.671875 64.796875 
L 19.671875 37.40625 
L 32.078125 37.40625 
Q 38.96875 37.40625 42.71875 40.96875 
Q 46.484375 44.53125 46.484375 51.125 
Q 46.484375 57.671875 42.71875 61.234375 
Q 38.96875 64.796875 32.078125 64.796875 
z
M 9.8125 72.90625 
L 32.078125 72.90625 
Q 44.34375 72.90625 50.609375 67.359375 
Q 56.890625 61.8125 56.890625 51.125 
Q 56.890625 40.328125 50.609375 34.8125 
Q 44.34375 29.296875 32.078125 29.296875 
L 19.671875 29.296875 
L 19.671875 0 
L 9.8125 0 
z
" id="BitstreamVeraSans-Roman-50"/>
      <path d="M 34.28125 27.484375 
Q 23.390625 27.484375 19.1875 25 
Q 14.984375 22.515625 14.984375 16.5 
Q 14.984375 11.71875 18.140625 8.90625 
Q 21.296875 6.109375 26.703125 6.109375 
Q 34.1875 6.109375 38.703125 11.40625 
Q 43.21875 16.703125 43.21875 25.484375 
L 43.21875 27.484375 
z
M 52.203125 31.203125 
L 52.203125 0 
L 43.21875 0 
L 43.21875 8.296875 
Q 40.140625 3.328125 35.546875 0.953125 
Q 30.953125 -1.421875 24.3125 -1.421875 
Q 15.921875 -1.421875 10.953125 3.296875 
Q 6 8.015625 6 15.921875 
Q 6 25.140625 12.171875 29.828125 
Q 18.359375 34.515625 30.609375 34.515625 
L 43.21875 34.515625 
L 43.21875 35.40625 
Q 43.21875 41.609375 39.140625 45 
Q 35.0625 48.390625 27.6875 48.390625 
Q 23 48.390625 18.546875 47.265625 
Q 14.109375 46.140625 10.015625 43.890625 
L 10.015625 52.203125 
Q 14.9375 54.109375 19.578125 55.046875 
Q 24.21875 56 28.609375 56 
Q 40.484375 56 46.34375 49.84375 
Q 52.203125 43.703125 52.203125 31.203125 
" id="BitstreamVeraSans-Roman-61"/>
      <path d="M 54.890625 33.015625 
L 54.890625 0 
L 45.90625 0 
L 45.90625 32.71875 
Q 45.90625 40.484375 42.875 44.328125 
Q 39.84375 48.1875 33.796875 48.1875 
Q 26.515625 48.1875 22.3125 43.546875 
Q 18.109375 38.921875 18.109375 30.90625 
L 18.109375 0 
L 9.078125 0 
L 9.078125 54.6875 
L 18.109375 54.6875 
L 18.109375 46.1875 
Q 21.34375 51.125 25.703125 53.5625 
Q 30.078125 56 35.796875 56 
Q 45.21875 56 50.046875 50.171875 
Q 54.890625 44.34375 54.890625 33.015625 
" id="BitstreamVeraSans-Roman-6e"/>
      <path d="M 8.59375 75.984375 
L 29.296875 75.984375 
L 29.296875 69 
L 17.578125 69 
L 17.578125 -6.203125 
L 29.296875 -6.203125 
L 29.296875 -13.1875 
L 8.59375 -13.1875 
z
" id="BitstreamVeraSans-Roman-5b"/>
      <path d="M 8.6875 72.90625 
L 18.609375 72.90625 
L 18.609375 28.609375 
Q 18.609375 16.890625 22.84375 11.734375 
Q 27.09375 6.59375 36.625 6.59375 
Q 46.09375 6.59375 50.34375 11.734375 
Q 54.59375 16.890625 54.59375 28.609375 
L 54.59375 72.90625 
L 64.5 72.90625 
L 64.5 27.390625 
Q 64.5 13.140625 57.4375 5.859375 
Q 50.390625 -1.421875 36.625 -1.421875 
Q 22.796875 -1.421875 15.734375 5.859375 
Q 8.6875 13.140625 8.6875 27.390625 
z
" id="BitstreamVeraSans-Roman-55"/>
      <path d="M 18.109375 8.203125 
L 18.109375 -20.796875 
L 9.078125 -20.796875 
L 9.078125 54.6875 
L 18.109375 54.6875 
L 18.109375 46.390625 
Q 20.953125 51.265625 25.265625 53.625 
Q 29.59375 56 35.59375 56 
Q 45.5625 56 51.78125 48.09375 
Q 58.015625 40.1875 58.015625 27.296875 
Q 58.015625 14.40625 51.78125 6.484375 
Q 45.5625 -1.421875 35.59375 -1.421875 
Q 29.59375 -1.421875 25.265625 0.953125 
Q 20.953125 3.328125 18.109375 8.203125 
M 48.6875 27.296875 
Q 48.6875 37.203125 44.609375 42.84375 
Q 40.53125 48.484375 33.40625 48.484375 
Q 26.265625 48.484375 22.1875 42.84375 
Q 18.109375 37.203125 18.109375 27.296875 
Q 18.109375 17.390625 22.1875 11.75 
Q 26.265625 6.109375 33.40625 6.109375 
Q 40.53125 6.109375 44.609375 11.75 
Q 48.6875 17.390625 48.6875 27.296875 
" id="BitstreamVeraSans-Roman-70"/>
      <path d="M 41.109375 46.296875 
Q 39.59375 47.171875 37.8125 47.578125 
Q 36.03125 48 33.890625 48 
Q 26.265625 48 22.1875 43.046875 
Q 18.109375 38.09375 18.109375 28.8125 
L 18.109375 0 
L 9.078125 0 
L 9.078125 54.6875 
L 18.109375 54.6875 
L 18.109375 46.1875 
Q 20.953125 51.171875 25.484375 53.578125 
Q 30.03125 56 36.53125 56 
Q 37.453125 56 38.578125 55.875 
Q 39.703125 55.765625 41.0625 55.515625 
z
" id="BitstreamVeraSans-Roman-72"/>
      <path d="M 18.3125 70.21875 
L 18.3125 54.6875 
L 36.8125 54.6875 
L 36.8125 47.703125 
L 18.3125 47.703125 
L 18.3125 18.015625 
Q 18.3125 11.328125 20.140625 9.421875 
Q 21.96875 7.515625 27.59375 7.515625 
L 36.8125 7.515625 
L 36.8125 0 
L 27.59375 0 
Q 17.1875 0 13.234375 3.875 
Q 9.28125 7.765625 9.28125 18.015625 
L 9.28125 47.703125 
L 2.6875 47.703125 
L 2.6875 54.6875 
L 9.28125 54.6875 
L 9.28125 70.21875 
z
" id="BitstreamVeraSans-Roman-74"/>
      <path d="M 64.40625 67.28125 
L 64.40625 56.890625 
Q 59.421875 61.53125 53.78125 63.8125 
Q 48.140625 66.109375 41.796875 66.109375 
Q 29.296875 66.109375 22.65625 58.46875 
Q 16.015625 50.828125 16.015625 36.375 
Q 16.015625 21.96875 22.65625 14.328125 
Q 29.296875 6.6875 41.796875 6.6875 
Q 48.140625 6.6875 53.78125 8.984375 
Q 59.421875 11.28125 64.40625 15.921875 
L 64.40625 5.609375 
Q 59.234375 2.09375 53.4375 0.328125 
Q 47.65625 -1.421875 41.21875 -1.421875 
Q 24.65625 -1.421875 15.125 8.703125 
Q 5.609375 18.84375 5.609375 36.375 
Q 5.609375 53.953125 15.125 64.078125 
Q 24.65625 74.21875 41.21875 74.21875 
Q 47.75 74.21875 53.53125 72.484375 
Q 59.328125 70.75 64.40625 67.28125 
" id="BitstreamVeraSans-Roman-43"/>
      <path d="M 56.203125 29.59375 
L 56.203125 25.203125 
L 14.890625 25.203125 
Q 15.484375 15.921875 20.484375 11.0625 
Q 25.484375 6.203125 34.421875 6.203125 
Q 39.59375 6.203125 44.453125 7.46875 
Q 49.3125 8.734375 54.109375 11.28125 
L 54.109375 2.78125 
Q 49.265625 0.734375 44.1875 -0.34375 
Q 39.109375 -1.421875 33.890625 -1.421875 
Q 20.796875 -1.421875 13.15625 6.1875 
Q 5.515625 13.8125 5.515625 26.8125 
Q 5.515625 40.234375 12.765625 48.109375 
Q 20.015625 56 32.328125 56 
Q 43.359375 56 49.78125 48.890625 
Q 56.203125 41.796875 56.203125 29.59375 
M 47.21875 32.234375 
Q 47.125 39.59375 43.09375 43.984375 
Q 39.0625 48.390625 32.421875 48.390625 
Q 24.90625 48.390625 20.390625 44.140625 
Q 15.875 39.890625 15.1875 32.171875 
z
" id="BitstreamVeraSans-Roman-65"/>
     </defs>
     <g transform="translate(226.1534375 425.544375)scale(0.12 -0.12)">
      <use xlink:href="#BitstreamVeraSans-Roman-47"/>
      <use x="77.490234375" xlink:href="#BitstreamVeraSans-Roman-44"/>
      <use x="154.4921875" xlink:href="#BitstreamVeraSans-Roman-50"/>
      <use x="214.794921875" xlink:href="#BitstreamVeraSans-Roman-20"/>
      <use x="246.58203125" xlink:href="#BitstreamVeraSans-Roman-70"/>
      <use x="310.05859375" xlink:href="#BitstreamVeraSans-Roman-65"/>
      <use x="371.58203125" xlink:href="#BitstreamVeraSans-Roman-72"/>
      <use x="412.6953125" xlink:href="#BitstreamVeraSans-Roman-20"/>
      <use x="444.482421875" xlink:href="#BitstreamVeraSans-Roman-43"/>
      <use x="514.306640625" xlink:href="#BitstreamVeraSans-Roman-61"/>
      <use x="575.5859375" xlink:href="#BitstreamVeraSans-Roman-70"/>
      <use x="639.0625" xlink:href="#BitstreamVeraSans-Roman-69"/>
      <use x="666.845703125" xlink:href="#BitstreamVeraSans-Roman-74"/>
      <use x="706.0546875" xlink:href="#BitstreamVeraSans-Roman-61"/>
      <use x="767.333984375" xlink:href="#BitstreamVeraSans-Roman-20"/>
      <use x="799.12109375" xlink:href="#BitstreamVeraSans-Roman-5b"/>
      <use x="838.134765625" xlink:href="#BitstreamVeraSans-Roman-69"/>
      <use x="865.91796875" xlink:href="#BitstreamVeraSans-Roman-6e"/>
      <use x="929.296875" xlink:href="#BitstreamVeraSans-Roman-20"/>
      <use x="961.083984375" xlink:href="#BitstreamVeraSans-Roman-55"/>
      <use x="1034.27734375" xlink:href="#BitstreamVeraSans-Roman-53"/>
      <use x="1097.75390625" xlink:href="#BitstreamVeraSans-Roman-44"/>
      <use x="1174.755859375" xlink:href="#BitstreamVeraSans-Roman-5d"/>
     </g>
    </g>
   </g>
   <g id="matplotlib.axis_2">
    <g id="ytick_1">
     <g id="line2d_55">
      <defs>
       <path d="M 0 0 
L 4 0 
" id="m16e473c400" style="stroke:#000000;stroke-width:0.5;"/>
      </defs>
      <g>
       <use style="stroke:#000000;stroke-width:0.5;" x="48.84375" xlink:href="#m16e473c400" y="395.8125"/>
      </g>
     </g>
     <g id="line2d_56">
      <defs>
       <path d="M 0 0 
L -4 0 
" id="mdc8db1aab8" style="stroke:#000000;stroke-width:0.5;"/>
      </defs>
      <g>
       <use style="stroke:#000000;stroke-width:0.5;" x="549.113125" xlink:href="#mdc8db1aab8" y="395.8125"/>
      </g>
     </g>
     <g id="text_5">
      <!-- 30 -->
      <defs>
       <path d="M 40.578125 39.3125 
Q 47.65625 37.796875 51.625 33 
Q 55.609375 28.21875 55.609375 21.1875 
Q 55.609375 10.40625 48.1875 4.484375 
Q 40.765625 -1.421875 27.09375 -1.421875 
Q 22.515625 -1.421875 17.65625 -0.515625 
Q 12.796875 0.390625 7.625 2.203125 
L 7.625 11.71875 
Q 11.71875 9.328125 16.59375 8.109375 
Q 21.484375 6.890625 26.8125 6.890625 
Q 36.078125 6.890625 40.9375 10.546875 
Q 45.796875 14.203125 45.796875 21.1875 
Q 45.796875 27.640625 41.28125 31.265625 
Q 36.765625 34.90625 28.71875 34.90625 
L 20.21875 34.90625 
L 20.21875 43.015625 
L 29.109375 43.015625 
Q 36.375 43.015625 40.234375 45.921875 
Q 44.09375 48.828125 44.09375 54.296875 
Q 44.09375 59.90625 40.109375 62.90625 
Q 36.140625 65.921875 28.71875 65.921875 
Q 24.65625 65.921875 20.015625 65.03125 
Q 15.375 64.15625 9.8125 62.3125 
L 9.8125 71.09375 
Q 15.4375 72.65625 20.34375 73.4375 
Q 25.25 74.21875 29.59375 74.21875 
Q 40.828125 74.21875 47.359375 69.109375 
Q 53.90625 64.015625 53.90625 55.328125 
Q 53.90625 49.265625 50.4375 45.09375 
Q 46.96875 40.921875 40.578125 39.3125 
" id="BitstreamVeraSans-Roman-33"/>
      </defs>
      <g transform="translate(29.57375 399.12375)scale(0.12 -0.12)">
       <use xlink:href="#BitstreamVeraSans-Roman-33"/>
       <use x="63.623046875" xlink:href="#BitstreamVeraSans-Roman-30"/>
      </g>
     </g>
    </g>
    <g id="ytick_2">
     <g id="line2d_57">
      <g>
       <use style="stroke:#000000;stroke-width:0.5;" x="48.84375" xlink:href="#m16e473c400" y="334.660708333"/>
      </g>
     </g>
     <g id="line2d_58">
      <g>
       <use style="stroke:#000000;stroke-width:0.5;" x="549.113125" xlink:href="#mdc8db1aab8" y="334.660708333"/>
      </g>
     </g>
     <g id="text_6">
      <!-- 40 -->
      <defs>
       <path d="M 37.796875 64.3125 
L 12.890625 25.390625 
L 37.796875 25.390625 
z
M 35.203125 72.90625 
L 47.609375 72.90625 
L 47.609375 25.390625 
L 58.015625 25.390625 
L 58.015625 17.1875 
L 47.609375 17.1875 
L 47.609375 0 
L 37.796875 0 
L 37.796875 17.1875 
L 4.890625 17.1875 
L 4.890625 26.703125 
z
" id="BitstreamVeraSans-Roman-34"/>
      </defs>
      <g transform="translate(29.57375 337.971958333)scale(0.12 -0.12)">
       <use xlink:href="#BitstreamVeraSans-Roman-34"/>
       <use x="63.623046875" xlink:href="#BitstreamVeraSans-Roman-30"/>
      </g>
     </g>
    </g>
    <g id="ytick_3">
     <g id="line2d_59">
      <g>
       <use style="stroke:#000000;stroke-width:0.5;" x="48.84375" xlink:href="#m16e473c400" y="273.508916667"/>
      </g>
     </g>
     <g id="line2d_60">
      <g>
       <use style="stroke:#000000;stroke-width:0.5;" x="549.113125" xlink:href="#mdc8db1aab8" y="273.508916667"/>
      </g>
     </g>
     <g id="text_7">
      <!-- 50 -->
      <defs>
       <path d="M 10.796875 72.90625 
L 49.515625 72.90625 
L 49.515625 64.59375 
L 19.828125 64.59375 
L 19.828125 46.734375 
Q 21.96875 47.46875 24.109375 47.828125 
Q 26.265625 48.1875 28.421875 48.1875 
Q 40.625 48.1875 47.75 41.5 
Q 54.890625 34.8125 54.890625 23.390625 
Q 54.890625 11.625 47.5625 5.09375 
Q 40.234375 -1.421875 26.90625 -1.421875 
Q 22.3125 -1.421875 17.546875 -0.640625 
Q 12.796875 0.140625 7.71875 1.703125 
L 7.71875 11.625 
Q 12.109375 9.234375 16.796875 8.0625 
Q 21.484375 6.890625 26.703125 6.890625 
Q 35.15625 6.890625 40.078125 11.328125 
Q 45.015625 15.765625 45.015625 23.390625 
Q 45.015625 31 40.078125 35.4375 
Q 35.15625 39.890625 26.703125 39.890625 
Q 22.75 39.890625 18.8125 39.015625 
Q 14.890625 38.140625 10.796875 36.28125 
z
" id="BitstreamVeraSans-Roman-35"/>
      </defs>
      <g transform="translate(29.57375 276.820166667)scale(0.12 -0.12)">
       <use xlink:href="#BitstreamVeraSans-Roman-35"/>
       <use x="63.623046875" xlink:href="#BitstreamVeraSans-Roman-30"/>
      </g>
     </g>
    </g>
    <g id="ytick_4">
     <g id="line2d_61">
      <g>
       <use style="stroke:#000000;stroke-width:0.5;" x="48.84375" xlink:href="#m16e473c400" y="212.357125"/>
      </g>
     </g>
     <g id="line2d_62">
      <g>
       <use style="stroke:#000000;stroke-width:0.5;" x="549.113125" xlink:href="#mdc8db1aab8" y="212.357125"/>
      </g>
     </g>
     <g id="text_8">
      <!-- 60 -->
      <defs>
       <path d="M 33.015625 40.375 
Q 26.375 40.375 22.484375 35.828125 
Q 18.609375 31.296875 18.609375 23.390625 
Q 18.609375 15.53125 22.484375 10.953125 
Q 26.375 6.390625 33.015625 6.390625 
Q 39.65625 6.390625 43.53125 10.953125 
Q 47.40625 15.53125 47.40625 23.390625 
Q 47.40625 31.296875 43.53125 35.828125 
Q 39.65625 40.375 33.015625 40.375 
M 52.59375 71.296875 
L 52.59375 62.3125 
Q 48.875 64.0625 45.09375 64.984375 
Q 41.3125 65.921875 37.59375 65.921875 
Q 27.828125 65.921875 22.671875 59.328125 
Q 17.53125 52.734375 16.796875 39.40625 
Q 19.671875 43.65625 24.015625 45.921875 
Q 28.375 48.1875 33.59375 48.1875 
Q 44.578125 48.1875 50.953125 41.515625 
Q 57.328125 34.859375 57.328125 23.390625 
Q 57.328125 12.15625 50.6875 5.359375 
Q 44.046875 -1.421875 33.015625 -1.421875 
Q 20.359375 -1.421875 13.671875 8.265625 
Q 6.984375 17.96875 6.984375 36.375 
Q 6.984375 53.65625 15.1875 63.9375 
Q 23.390625 74.21875 37.203125 74.21875 
Q 40.921875 74.21875 44.703125 73.484375 
Q 48.484375 72.75 52.59375 71.296875 
" id="BitstreamVeraSans-Roman-36"/>
      </defs>
      <g transform="translate(29.57375 215.668375)scale(0.12 -0.12)">
       <use xlink:href="#BitstreamVeraSans-Roman-36"/>
       <use x="63.623046875" xlink:href="#BitstreamVeraSans-Roman-30"/>
      </g>
     </g>
    </g>
    <g id="ytick_5">
     <g id="line2d_63">
      <g>
       <use style="stroke:#000000;stroke-width:0.5;" x="48.84375" xlink:href="#m16e473c400" y="151.205333333"/>
      </g>
     </g>
     <g id="line2d_64">
      <g>
       <use style="stroke:#000000;stroke-width:0.5;" x="549.113125" xlink:href="#mdc8db1aab8" y="151.205333333"/>
      </g>
     </g>
     <g id="text_9">
      <!-- 70 -->
      <defs>
       <path d="M 8.203125 72.90625 
L 55.078125 72.90625 
L 55.078125 68.703125 
L 28.609375 0 
L 18.3125 0 
L 43.21875 64.59375 
L 8.203125 64.59375 
z
" id="BitstreamVeraSans-Roman-37"/>
      </defs>
      <g transform="translate(29.57375 154.516583333)scale(0.12 -0.12)">
       <use xlink:href="#BitstreamVeraSans-Roman-37"/>
       <use x="63.623046875" xlink:href="#BitstreamVeraSans-Roman-30"/>
      </g>
     </g>
    </g>
    <g id="ytick_6">
     <g id="line2d_65">
      <g>
       <use style="stroke:#000000;stroke-width:0.5;" x="48.84375" xlink:href="#m16e473c400" y="90.0535416667"/>
      </g>
     </g>
     <g id="line2d_66">
      <g>
       <use style="stroke:#000000;stroke-width:0.5;" x="549.113125" xlink:href="#mdc8db1aab8" y="90.0535416667"/>
      </g>
     </g>
     <g id="text_10">
      <!-- 80 -->
      <defs>
       <path d="M 31.78125 34.625 
Q 24.75 34.625 20.71875 30.859375 
Q 16.703125 27.09375 16.703125 20.515625 
Q 16.703125 13.921875 20.71875 10.15625 
Q 24.75 6.390625 31.78125 6.390625 
Q 38.8125 6.390625 42.859375 10.171875 
Q 46.921875 13.96875 46.921875 20.515625 
Q 46.921875 27.09375 42.890625 30.859375 
Q 38.875 34.625 31.78125 34.625 
M 21.921875 38.8125 
Q 15.578125 40.375 12.03125 44.71875 
Q 8.5 49.078125 8.5 55.328125 
Q 8.5 64.0625 14.71875 69.140625 
Q 20.953125 74.21875 31.78125 74.21875 
Q 42.671875 74.21875 48.875 69.140625 
Q 55.078125 64.0625 55.078125 55.328125 
Q 55.078125 49.078125 51.53125 44.71875 
Q 48 40.375 41.703125 38.8125 
Q 48.828125 37.15625 52.796875 32.3125 
Q 56.78125 27.484375 56.78125 20.515625 
Q 56.78125 9.90625 50.3125 4.234375 
Q 43.84375 -1.421875 31.78125 -1.421875 
Q 19.734375 -1.421875 13.25 4.234375 
Q 6.78125 9.90625 6.78125 20.515625 
Q 6.78125 27.484375 10.78125 32.3125 
Q 14.796875 37.15625 21.921875 38.8125 
M 18.3125 54.390625 
Q 18.3125 48.734375 21.84375 45.5625 
Q 25.390625 42.390625 31.78125 42.390625 
Q 38.140625 42.390625 41.71875 45.5625 
Q 45.3125 48.734375 45.3125 54.390625 
Q 45.3125 60.0625 41.71875 63.234375 
Q 38.140625 66.40625 31.78125 66.40625 
Q 25.390625 66.40625 21.84375 63.234375 
Q 18.3125 60.0625 18.3125 54.390625 
" id="BitstreamVeraSans-Roman-38"/>
      </defs>
      <g transform="translate(29.57375 93.3647916667)scale(0.12 -0.12)">
       <use xlink:href="#BitstreamVeraSans-Roman-38"/>
       <use x="63.623046875" xlink:href="#BitstreamVeraSans-Roman-30"/>
      </g>
     </g>
    </g>
    <g id="ytick_7">
     <g id="line2d_67">
      <g>
       <use style="stroke:#000000;stroke-width:0.5;" x="48.84375" xlink:href="#m16e473c400" y="28.90175"/>
      </g>
     </g>
     <g id="line2d_68">
      <g>
       <use style="stroke:#000000;stroke-width:0.5;" x="549.113125" xlink:href="#mdc8db1aab8" y="28.90175"/>
      </g>
     </g>
     <g id="text_11">
      <!-- 90 -->
      <defs>
       <path d="M 10.984375 1.515625 
L 10.984375 10.5 
Q 14.703125 8.734375 18.5 7.8125 
Q 22.3125 6.890625 25.984375 6.890625 
Q 35.75 6.890625 40.890625 13.453125 
Q 46.046875 20.015625 46.78125 33.40625 
Q 43.953125 29.203125 39.59375 26.953125 
Q 35.25 24.703125 29.984375 24.703125 
Q 19.046875 24.703125 12.671875 31.3125 
Q 6.296875 37.9375 6.296875 49.421875 
Q 6.296875 60.640625 12.9375 67.421875 
Q 19.578125 74.21875 30.609375 74.21875 
Q 43.265625 74.21875 49.921875 64.515625 
Q 56.59375 54.828125 56.59375 36.375 
Q 56.59375 19.140625 48.40625 8.859375 
Q 40.234375 -1.421875 26.421875 -1.421875 
Q 22.703125 -1.421875 18.890625 -0.6875 
Q 15.09375 0.046875 10.984375 1.515625 
M 30.609375 32.421875 
Q 37.25 32.421875 41.125 36.953125 
Q 45.015625 41.5 45.015625 49.421875 
Q 45.015625 57.28125 41.125 61.84375 
Q 37.25 66.40625 30.609375 66.40625 
Q 23.96875 66.40625 20.09375 61.84375 
Q 16.21875 57.28125 16.21875 49.421875 
Q 16.21875 41.5 20.09375 36.953125 
Q 23.96875 32.421875 30.609375 32.421875 
" id="BitstreamVeraSans-Roman-39"/>
      </defs>
      <g transform="translate(29.57375 32.213)scale(0.12 -0.12)">
       <use xlink:href="#BitstreamVeraSans-Roman-39"/>
       <use x="63.623046875" xlink:href="#BitstreamVeraSans-Roman-30"/>
      </g>
     </g>
    </g>
    <g id="text_12">
     <!-- Life Expectancy [in years] -->
     <defs>
      <path d="M 9.8125 72.90625 
L 19.671875 72.90625 
L 19.671875 8.296875 
L 55.171875 8.296875 
L 55.171875 0 
L 9.8125 0 
z
" id="BitstreamVeraSans-Roman-4c"/>
      <path d="M 44.28125 53.078125 
L 44.28125 44.578125 
Q 40.484375 46.53125 36.375 47.5 
Q 32.28125 48.484375 27.875 48.484375 
Q 21.1875 48.484375 17.84375 46.4375 
Q 14.5 44.390625 14.5 40.28125 
Q 14.5 37.15625 16.890625 35.375 
Q 19.28125 33.59375 26.515625 31.984375 
L 29.59375 31.296875 
Q 39.15625 29.25 43.1875 25.515625 
Q 47.21875 21.78125 47.21875 15.09375 
Q 47.21875 7.46875 41.1875 3.015625 
Q 35.15625 -1.421875 24.609375 -1.421875 
Q 20.21875 -1.421875 15.453125 -0.5625 
Q 10.6875 0.296875 5.421875 2 
L 5.421875 11.28125 
Q 10.40625 8.6875 15.234375 7.390625 
Q 20.0625 6.109375 24.8125 6.109375 
Q 31.15625 6.109375 34.5625 8.28125 
Q 37.984375 10.453125 37.984375 14.40625 
Q 37.984375 18.0625 35.515625 20.015625 
Q 33.0625 21.96875 24.703125 23.78125 
L 21.578125 24.515625 
Q 13.234375 26.265625 9.515625 29.90625 
Q 5.8125 33.546875 5.8125 39.890625 
Q 5.8125 47.609375 11.28125 51.796875 
Q 16.75 56 26.8125 56 
Q 31.78125 56 36.171875 55.265625 
Q 40.578125 54.546875 44.28125 53.078125 
" id="BitstreamVeraSans-Roman-73"/>
      <path d="M 9.8125 72.90625 
L 55.90625 72.90625 
L 55.90625 64.59375 
L 19.671875 64.59375 
L 19.671875 43.015625 
L 54.390625 43.015625 
L 54.390625 34.71875 
L 19.671875 34.71875 
L 19.671875 8.296875 
L 56.78125 8.296875 
L 56.78125 0 
L 9.8125 0 
z
" id="BitstreamVeraSans-Roman-45"/>
      <path d="M 54.890625 54.6875 
L 35.109375 28.078125 
L 55.90625 0 
L 45.3125 0 
L 29.390625 21.484375 
L 13.484375 0 
L 2.875 0 
L 24.125 28.609375 
L 4.6875 54.6875 
L 15.28125 54.6875 
L 29.78125 35.203125 
L 44.28125 54.6875 
z
" id="BitstreamVeraSans-Roman-78"/>
      <path d="M 32.171875 -5.078125 
Q 28.375 -14.84375 24.75 -17.8125 
Q 21.140625 -20.796875 15.09375 -20.796875 
L 7.90625 -20.796875 
L 7.90625 -13.28125 
L 13.1875 -13.28125 
Q 16.890625 -13.28125 18.9375 -11.515625 
Q 21 -9.765625 23.484375 -3.21875 
L 25.09375 0.875 
L 2.984375 54.6875 
L 12.5 54.6875 
L 29.59375 11.921875 
L 46.6875 54.6875 
L 56.203125 54.6875 
z
" id="BitstreamVeraSans-Roman-79"/>
      <path d="M 37.109375 75.984375 
L 37.109375 68.5 
L 28.515625 68.5 
Q 23.6875 68.5 21.796875 66.546875 
Q 19.921875 64.59375 19.921875 59.515625 
L 19.921875 54.6875 
L 34.71875 54.6875 
L 34.71875 47.703125 
L 19.921875 47.703125 
L 19.921875 0 
L 10.890625 0 
L 10.890625 47.703125 
L 2.296875 47.703125 
L 2.296875 54.6875 
L 10.890625 54.6875 
L 10.890625 58.5 
Q 10.890625 67.625 15.140625 71.796875 
Q 19.390625 75.984375 28.609375 75.984375 
z
" id="BitstreamVeraSans-Roman-66"/>
      <path d="M 48.78125 52.59375 
L 48.78125 44.1875 
Q 44.96875 46.296875 41.140625 47.34375 
Q 37.3125 48.390625 33.40625 48.390625 
Q 24.65625 48.390625 19.8125 42.84375 
Q 14.984375 37.3125 14.984375 27.296875 
Q 14.984375 17.28125 19.8125 11.734375 
Q 24.65625 6.203125 33.40625 6.203125 
Q 37.3125 6.203125 41.140625 7.25 
Q 44.96875 8.296875 48.78125 10.40625 
L 48.78125 2.09375 
Q 45.015625 0.34375 40.984375 -0.53125 
Q 36.96875 -1.421875 32.421875 -1.421875 
Q 20.0625 -1.421875 12.78125 6.34375 
Q 5.515625 14.109375 5.515625 27.296875 
Q 5.515625 40.671875 12.859375 48.328125 
Q 20.21875 56 33.015625 56 
Q 37.15625 56 41.109375 55.140625 
Q 45.0625 54.296875 48.78125 52.59375 
" id="BitstreamVeraSans-Roman-63"/>
     </defs>
     <g transform="translate(22.078125 290.379625)rotate(-90.0)scale(0.12 -0.12)">
      <use xlink:href="#BitstreamVeraSans-Roman-4c"/>
      <use x="55.712890625" xlink:href="#BitstreamVeraSans-Roman-69"/>
      <use x="83.49609375" xlink:href="#BitstreamVeraSans-Roman-66"/>
      <use x="118.701171875" xlink:href="#BitstreamVeraSans-Roman-65"/>
      <use x="180.224609375" xlink:href="#BitstreamVeraSans-Roman-20"/>
      <use x="212.01171875" xlink:href="#BitstreamVeraSans-Roman-45"/>
      <use x="275.1953125" xlink:href="#BitstreamVeraSans-Roman-78"/>
      <use x="334.375" xlink:href="#BitstreamVeraSans-Roman-70"/>
      <use x="397.8515625" xlink:href="#BitstreamVeraSans-Roman-65"/>
      <use x="459.375" xlink:href="#BitstreamVeraSans-Roman-63"/>
      <use x="514.35546875" xlink:href="#BitstreamVeraSans-Roman-74"/>
      <use x="553.564453125" xlink:href="#BitstreamVeraSans-Roman-61"/>
      <use x="614.84375" xlink:href="#BitstreamVeraSans-Roman-6e"/>
      <use x="678.22265625" xlink:href="#BitstreamVeraSans-Roman-63"/>
      <use x="733.203125" xlink:href="#BitstreamVeraSans-Roman-79"/>
      <use x="792.3828125" xlink:href="#BitstreamVeraSans-Roman-20"/>
      <use x="824.169921875" xlink:href="#BitstreamVeraSans-Roman-5b"/>
      <use x="863.18359375" xlink:href="#BitstreamVeraSans-Roman-69"/>
      <use x="890.966796875" xlink:href="#BitstreamVeraSans-Roman-6e"/>
      <use x="954.345703125" xlink:href="#BitstreamVeraSans-Roman-20"/>
      <use x="986.1328125" xlink:href="#BitstreamVeraSans-Roman-79"/>
      <use x="1045.3125" xlink:href="#BitstreamVeraSans-Roman-65"/>
      <use x="1106.8359375" xlink:href="#BitstreamVeraSans-Roman-61"/>
      <use x="1168.115234375" xlink:href="#BitstreamVeraSans-Roman-72"/>
      <use x="1209.228515625" xlink:href="#BitstreamVeraSans-Roman-73"/>
      <use x="1261.328125" xlink:href="#BitstreamVeraSans-Roman-5d"/>
     </g>
    </g>
   </g>
   <g id="text_13">
    <!-- World Development in 2007 -->
    <defs>
     <path d="M 19.1875 8.296875 
L 53.609375 8.296875 
L 53.609375 0 
L 7.328125 0 
L 7.328125 8.296875 
Q 12.9375 14.109375 22.625 23.890625 
Q 32.328125 33.6875 34.8125 36.53125 
Q 39.546875 41.84375 41.421875 45.53125 
Q 43.3125 49.21875 43.3125 52.78125 
Q 43.3125 58.59375 39.234375 62.25 
Q 35.15625 65.921875 28.609375 65.921875 
Q 23.96875 65.921875 18.8125 64.3125 
Q 13.671875 62.703125 7.8125 59.421875 
L 7.8125 69.390625 
Q 13.765625 71.78125 18.9375 73 
Q 24.125 74.21875 28.421875 74.21875 
Q 39.75 74.21875 46.484375 68.546875 
Q 53.21875 62.890625 53.21875 53.421875 
Q 53.21875 48.921875 51.53125 44.890625 
Q 49.859375 40.875 45.40625 35.40625 
Q 44.1875 33.984375 37.640625 27.21875 
Q 31.109375 20.453125 19.1875 8.296875 
" id="BitstreamVeraSans-Roman-32"/>
     <path d="M 3.328125 72.90625 
L 13.28125 72.90625 
L 28.609375 11.28125 
L 43.890625 72.90625 
L 54.984375 72.90625 
L 70.3125 11.28125 
L 85.59375 72.90625 
L 95.609375 72.90625 
L 77.296875 0 
L 64.890625 0 
L 49.515625 63.28125 
L 33.984375 0 
L 21.578125 0 
z
" id="BitstreamVeraSans-Roman-57"/>
     <path d="M 52 44.1875 
Q 55.375 50.25 60.0625 53.125 
Q 64.75 56 71.09375 56 
Q 79.640625 56 84.28125 50.015625 
Q 88.921875 44.046875 88.921875 33.015625 
L 88.921875 0 
L 79.890625 0 
L 79.890625 32.71875 
Q 79.890625 40.578125 77.09375 44.375 
Q 74.3125 48.1875 68.609375 48.1875 
Q 61.625 48.1875 57.5625 43.546875 
Q 53.515625 38.921875 53.515625 30.90625 
L 53.515625 0 
L 44.484375 0 
L 44.484375 32.71875 
Q 44.484375 40.625 41.703125 44.40625 
Q 38.921875 48.1875 33.109375 48.1875 
Q 26.21875 48.1875 22.15625 43.53125 
Q 18.109375 38.875 18.109375 30.90625 
L 18.109375 0 
L 9.078125 0 
L 9.078125 54.6875 
L 18.109375 54.6875 
L 18.109375 46.1875 
Q 21.1875 51.21875 25.484375 53.609375 
Q 29.78125 56 35.6875 56 
Q 41.65625 56 45.828125 52.96875 
Q 50 49.953125 52 44.1875 
" id="BitstreamVeraSans-Roman-6d"/>
     <path d="M 9.421875 75.984375 
L 18.40625 75.984375 
L 18.40625 0 
L 9.421875 0 
z
" id="BitstreamVeraSans-Roman-6c"/>
     <path d="M 45.40625 46.390625 
L 45.40625 75.984375 
L 54.390625 75.984375 
L 54.390625 0 
L 45.40625 0 
L 45.40625 8.203125 
Q 42.578125 3.328125 38.25 0.953125 
Q 33.9375 -1.421875 27.875 -1.421875 
Q 17.96875 -1.421875 11.734375 6.484375 
Q 5.515625 14.40625 5.515625 27.296875 
Q 5.515625 40.1875 11.734375 48.09375 
Q 17.96875 56 27.875 56 
Q 33.9375 56 38.25 53.625 
Q 42.578125 51.265625 45.40625 46.390625 
M 14.796875 27.296875 
Q 14.796875 17.390625 18.875 11.75 
Q 22.953125 6.109375 30.078125 6.109375 
Q 37.203125 6.109375 41.296875 11.75 
Q 45.40625 17.390625 45.40625 27.296875 
Q 45.40625 37.203125 41.296875 42.84375 
Q 37.203125 48.484375 30.078125 48.484375 
Q 22.953125 48.484375 18.875 42.84375 
Q 14.796875 37.203125 14.796875 27.296875 
" id="BitstreamVeraSans-Roman-64"/>
     <path d="M 30.609375 48.390625 
Q 23.390625 48.390625 19.1875 42.75 
Q 14.984375 37.109375 14.984375 27.296875 
Q 14.984375 17.484375 19.15625 11.84375 
Q 23.34375 6.203125 30.609375 6.203125 
Q 37.796875 6.203125 41.984375 11.859375 
Q 46.1875 17.53125 46.1875 27.296875 
Q 46.1875 37.015625 41.984375 42.703125 
Q 37.796875 48.390625 30.609375 48.390625 
M 30.609375 56 
Q 42.328125 56 49.015625 48.375 
Q 55.71875 40.765625 55.71875 27.296875 
Q 55.71875 13.875 49.015625 6.21875 
Q 42.328125 -1.421875 30.609375 -1.421875 
Q 18.84375 -1.421875 12.171875 6.21875 
Q 5.515625 13.875 5.515625 27.296875 
Q 5.515625 40.765625 12.171875 48.375 
Q 18.84375 56 30.609375 56 
" id="BitstreamVeraSans-Roman-6f"/>
     <path d="M 2.984375 54.6875 
L 12.5 54.6875 
L 29.59375 8.796875 
L 46.6875 54.6875 
L 56.203125 54.6875 
L 35.6875 0 
L 23.484375 0 
z
" id="BitstreamVeraSans-Roman-76"/>
    </defs>
    <g transform="translate(197.7048125 23.90175)scale(0.144 -0.144)">
     <use xlink:href="#BitstreamVeraSans-Roman-57"/>
     <use x="98.798828125" xlink:href="#BitstreamVeraSans-Roman-6f"/>
     <use x="159.98046875" xlink:href="#BitstreamVeraSans-Roman-72"/>
     <use x="201.09375" xlink:href="#BitstreamVeraSans-Roman-6c"/>
     <use x="228.876953125" xlink:href="#BitstreamVeraSans-Roman-64"/>
     <use x="292.353515625" xlink:href="#BitstreamVeraSans-Roman-20"/>
     <use x="324.140625" xlink:href="#BitstreamVeraSans-Roman-44"/>
     <use x="401.142578125" xlink:href="#BitstreamVeraSans-Roman-65"/>
     <use x="462.666015625" xlink:href="#BitstreamVeraSans-Roman-76"/>
     <use x="521.845703125" xlink:href="#BitstreamVeraSans-Roman-65"/>
     <use x="583.369140625" xlink:href="#BitstreamVeraSans-Roman-6c"/>
     <use x="611.15234375" xlink:href="#BitstreamVeraSans-Roman-6f"/>
     <use x="672.333984375" xlink:href="#BitstreamVeraSans-Roman-70"/>
     <use x="735.810546875" xlink:href="#BitstreamVeraSans-Roman-6d"/>
     <use x="833.22265625" xlink:href="#BitstreamVeraSans-Roman-65"/>
     <use x="894.74609375" xlink:href="#BitstreamVeraSans-Roman-6e"/>
     <use x="958.125" xlink:href="#BitstreamVeraSans-Roman-74"/>
     <use x="997.333984375" xlink:href="#BitstreamVeraSans-Roman-20"/>
     <use x="1029.12109375" xlink:href="#BitstreamVeraSans-Roman-69"/>
     <use x="1056.904296875" xlink:href="#BitstreamVeraSans-Roman-6e"/>
     <use x="1120.283203125" xlink:href="#BitstreamVeraSans-Roman-20"/>
     <use x="1152.0703125" xlink:href="#BitstreamVeraSans-Roman-32"/>
     <use x="1215.693359375" xlink:href="#BitstreamVeraSans-Roman-30"/>
     <use x="1279.31640625" xlink:href="#BitstreamVeraSans-Roman-30"/>
     <use x="1342.939453125" xlink:href="#BitstreamVeraSans-Roman-37"/>
    </g>
   </g>
  </g>
 </g>
 <defs>
  <clipPath id="p64989b3929">
   <rect height="366.91075" width="500.269375" x="48.84375" y="28.90175"/>
  </clipPath>
 </defs>
</svg>
