<?xml version="1.0" encoding="utf-8" standalone="no"?>
<!DOCTYPE svg PUBLIC "-//W3C//DTD SVG 1.1//EN"
  "http://www.w3.org/Graphics/SVG/1.1/DTD/svg11.dtd">
<!-- Created with matplotlib (http://matplotlib.org/) -->
<svg height="437pt" version="1.1" viewBox="0 0 577 437" width="577pt" xmlns="http://www.w3.org/2000/svg" xmlns:xlink="http://www.w3.org/1999/xlink">
 <defs>
  <style type="text/css">
*{stroke-linecap:butt;stroke-linejoin:round;stroke-miterlimit:100000;}
  </style>
 </defs>
 <g id="figure_1">
  <g id="patch_1">
   <path d="M 0 437 
L 577 437 
L 577 0 
L 0 0 
z
" style="fill:#ffffff;"/>
  </g>
  <g id="axes_1">
   <g id="patch_2">
    <path d="M 39.865 408.42625 
L 552.5875 408.42625 
L 552.5875 18.766875 
L 39.865 18.766875 
z
" style="fill:#ffffff;"/>
   </g>
   <g id="line2d_1">
    <path clip-path="url(#pdb202a1f37)" d="M 39.865 408.42625 
L 44.992225 398.684766 
L 50.11945 395.437604 
L 55.246675 392.190443 
L 60.3739 395.437604 
L 65.501125 392.190443 
L 70.62835 388.943281 
L 75.755575 385.69612 
L 80.8828 388.943281 
L 86.010025 392.190443 
L 91.13725 395.437604 
L 96.264475 398.684766 
L 101.3917 401.931927 
L 106.518925 405.179089 
L 111.64615 408.42625 
L 116.773375 408.42625 
L 121.9006 405.179089 
L 127.027825 388.943281 
L 132.15505 392.190443 
L 137.282275 395.437604 
L 142.4095 392.190443 
L 147.536725 395.437604 
L 152.66395 392.190443 
L 157.791175 388.943281 
L 162.9184 385.69612 
L 168.045625 382.448958 
L 173.17285 379.201797 
L 178.300075 382.448958 
L 183.4273 379.201797 
L 188.554525 382.448958 
L 193.68175 379.201797 
L 198.808975 375.954635 
L 203.9362 372.707474 
L 209.063425 369.460313 
L 214.19065 372.707474 
L 219.317875 359.718828 
L 224.4451 356.471667 
L 229.572325 359.718828 
L 234.69955 356.471667 
L 239.826775 359.718828 
L 244.954 356.471667 
L 250.081225 353.224505 
L 255.20845 349.977344 
L 260.335675 346.730182 
L 265.4629 343.483021 
L 270.590125 340.235859 
L 275.71735 336.988698 
L 280.844575 327.247214 
L 285.9718 324.000052 
L 291.099025 320.752891 
L 296.22625 317.505729 
L 301.353475 301.269922 
L 306.4807 298.02276 
L 311.607925 285.034115 
L 316.73515 281.786953 
L 321.862375 285.034115 
L 326.9896 281.786953 
L 332.116825 278.539792 
L 337.24405 281.786953 
L 342.371275 278.539792 
L 347.4985 275.29263 
L 352.625725 268.798307 
L 357.75295 265.551146 
L 362.880175 262.303984 
L 368.0074 265.551146 
L 373.134625 268.798307 
L 378.26185 265.551146 
L 383.389075 262.303984 
L 388.5163 265.551146 
L 393.643525 268.798307 
L 398.77075 265.551146 
L 403.897975 262.303984 
L 409.0252 255.809661 
L 414.152425 259.056823 
L 419.27965 262.303984 
L 424.406875 259.056823 
L 429.5341 262.303984 
L 434.661325 259.056823 
L 439.78855 255.809661 
L 444.915775 252.5625 
L 450.043 246.068177 
L 455.170225 249.315339 
L 460.29745 246.068177 
L 465.424675 242.821016 
L 470.5519 239.573854 
L 475.679125 236.326693 
L 480.80635 233.079531 
L 485.933575 236.326693 
L 491.0608 239.573854 
L 496.188025 236.326693 
L 501.31525 239.573854 
L 506.442475 236.326693 
L 511.5697 233.079531 
L 516.696925 236.326693 
L 521.82415 226.585208 
L 526.951375 223.338047 
L 532.0786 220.090885 
L 537.205825 216.843724 
L 542.33305 220.090885 
L 547.460275 216.843724 
L 552.5875 213.596563 
" style="fill:none;stroke:#0000ff;stroke-linecap:square;"/>
   </g>
   <g id="line2d_2">
    <path clip-path="url(#pdb202a1f37)" d="M 39.865 408.42625 
L 44.992225 395.437604 
L 50.11945 398.684766 
L 55.246675 401.931927 
L 60.3739 395.437604 
L 65.501125 398.684766 
L 70.62835 395.437604 
L 75.755575 388.943281 
L 80.8828 385.69612 
L 86.010025 382.448958 
L 91.13725 366.213151 
L 96.264475 369.460313 
L 101.3917 366.213151 
L 106.518925 362.96599 
L 111.64615 359.718828 
L 116.773375 356.471667 
L 121.9006 353.224505 
L 127.027825 356.471667 
L 132.15505 340.235859 
L 137.282275 336.988698 
L 142.4095 333.741536 
L 147.536725 330.494375 
L 152.66395 333.741536 
L 157.791175 336.988698 
L 162.9184 340.235859 
L 168.045625 343.483021 
L 173.17285 346.730182 
L 178.300075 343.483021 
L 183.4273 340.235859 
L 188.554525 336.988698 
L 193.68175 317.505729 
L 198.808975 320.752891 
L 203.9362 324.000052 
L 209.063425 327.247214 
L 214.19065 324.000052 
L 219.317875 320.752891 
L 224.4451 317.505729 
L 229.572325 320.752891 
L 234.69955 317.505729 
L 239.826775 314.258568 
L 244.954 317.505729 
L 250.081225 301.269922 
L 255.20845 298.02276 
L 260.335675 301.269922 
L 265.4629 304.517083 
L 270.590125 307.764245 
L 275.71735 311.011406 
L 280.844575 307.764245 
L 285.9718 311.011406 
L 291.099025 314.258568 
L 296.22625 307.764245 
L 301.353475 304.517083 
L 306.4807 294.775599 
L 311.607925 291.528438 
L 316.73515 285.034115 
L 321.862375 281.786953 
L 326.9896 278.539792 
L 332.116825 275.29263 
L 337.24405 278.539792 
L 342.371275 281.786953 
L 347.4985 278.539792 
L 352.625725 275.29263 
L 357.75295 272.045469 
L 362.880175 268.798307 
L 368.0074 272.045469 
L 373.134625 268.798307 
L 378.26185 265.551146 
L 383.389075 262.303984 
L 388.5163 252.5625 
L 393.643525 249.315339 
L 398.77075 246.068177 
L 403.897975 249.315339 
L 409.0252 246.068177 
L 414.152425 249.315339 
L 419.27965 246.068177 
L 424.406875 242.821016 
L 429.5341 239.573854 
L 434.661325 226.585208 
L 439.78855 229.83237 
L 444.915775 233.079531 
L 450.043 229.83237 
L 455.170225 226.585208 
L 460.29745 223.338047 
L 465.424675 226.585208 
L 470.5519 223.338047 
L 475.679125 226.585208 
L 480.80635 223.338047 
L 485.933575 216.843724 
L 491.0608 200.607917 
L 496.188025 203.855078 
L 501.31525 200.607917 
L 506.442475 197.360755 
L 511.5697 194.113594 
L 516.696925 190.866432 
L 521.82415 187.619271 
L 526.951375 184.372109 
L 532.0786 187.619271 
L 537.205825 184.372109 
L 542.33305 181.124948 
L 547.460275 177.877786 
L 552.5875 171.383464 
" style="fill:none;stroke:#008000;stroke-linecap:square;"/>
   </g>
   <g id="line2d_3">
    <path clip-path="url(#pdb202a1f37)" d="M 39.865 408.42625 
L 44.992225 401.931927 
L 50.11945 405.179089 
L 55.246675 401.931927 
L 60.3739 398.684766 
L 65.501125 388.943281 
L 70.62835 392.190443 
L 75.755575 388.943281 
L 80.8828 392.190443 
L 86.010025 388.943281 
L 91.13725 385.69612 
L 96.264475 382.448958 
L 101.3917 385.69612 
L 106.518925 382.448958 
L 111.64615 385.69612 
L 116.773375 382.448958 
L 121.9006 379.201797 
L 127.027825 372.707474 
L 132.15505 375.954635 
L 137.282275 379.201797 
L 142.4095 375.954635 
L 147.536725 372.707474 
L 152.66395 375.954635 
L 157.791175 369.460313 
L 162.9184 366.213151 
L 168.045625 362.96599 
L 173.17285 359.718828 
L 178.300075 356.471667 
L 183.4273 353.224505 
L 188.554525 349.977344 
L 193.68175 353.224505 
L 198.808975 349.977344 
L 203.9362 346.730182 
L 209.063425 330.494375 
L 214.19065 327.247214 
L 219.317875 330.494375 
L 224.4451 333.741536 
L 229.572325 336.988698 
L 234.69955 340.235859 
L 239.826775 336.988698 
L 244.954 333.741536 
L 250.081225 330.494375 
L 255.20845 314.258568 
L 260.335675 311.011406 
L 265.4629 314.258568 
L 270.590125 311.011406 
L 275.71735 307.764245 
L 280.844575 304.517083 
L 285.9718 301.269922 
L 291.099025 298.02276 
L 296.22625 294.775599 
L 301.353475 298.02276 
L 306.4807 301.269922 
L 311.607925 298.02276 
L 316.73515 301.269922 
L 321.862375 281.786953 
L 326.9896 285.034115 
L 332.116825 281.786953 
L 337.24405 285.034115 
L 342.371275 281.786953 
L 347.4985 285.034115 
L 352.625725 281.786953 
L 357.75295 268.798307 
L 362.880175 255.809661 
L 368.0074 249.315339 
L 373.134625 242.821016 
L 378.26185 246.068177 
L 383.389075 242.821016 
L 388.5163 236.326693 
L 393.643525 239.573854 
L 398.77075 220.090885 
L 403.897975 216.843724 
L 409.0252 210.349401 
L 414.152425 207.10224 
L 419.27965 210.349401 
L 424.406875 207.10224 
L 429.5341 203.855078 
L 434.661325 200.607917 
L 439.78855 203.855078 
L 444.915775 200.607917 
L 450.043 197.360755 
L 455.170225 194.113594 
L 460.29745 187.619271 
L 465.424675 190.866432 
L 470.5519 194.113594 
L 475.679125 190.866432 
L 480.80635 171.383464 
L 485.933575 155.147656 
L 491.0608 158.394818 
L 496.188025 161.641979 
L 501.31525 148.653333 
L 506.442475 145.406172 
L 511.5697 142.15901 
L 516.696925 138.911849 
L 521.82415 132.417526 
L 526.951375 135.664688 
L 532.0786 132.417526 
L 537.205825 135.664688 
L 542.33305 132.417526 
L 547.460275 135.664688 
L 552.5875 138.911849 
" style="fill:none;stroke:#ff0000;stroke-linecap:square;"/>
   </g>
   <g id="line2d_4">
    <path clip-path="url(#pdb202a1f37)" d="M 39.865 408.42625 
L 44.992225 388.943281 
L 50.11945 392.190443 
L 55.246675 388.943281 
L 60.3739 385.69612 
L 65.501125 382.448958 
L 70.62835 379.201797 
L 75.755575 375.954635 
L 80.8828 372.707474 
L 86.010025 369.460313 
L 91.13725 366.213151 
L 96.264475 369.460313 
L 101.3917 366.213151 
L 106.518925 369.460313 
L 111.64615 372.707474 
L 116.773375 369.460313 
L 121.9006 372.707474 
L 127.027825 369.460313 
L 132.15505 372.707474 
L 137.282275 369.460313 
L 142.4095 366.213151 
L 147.536725 353.224505 
L 152.66395 349.977344 
L 157.791175 353.224505 
L 162.9184 333.741536 
L 168.045625 336.988698 
L 173.17285 340.235859 
L 178.300075 336.988698 
L 183.4273 340.235859 
L 188.554525 343.483021 
L 193.68175 340.235859 
L 198.808975 343.483021 
L 203.9362 330.494375 
L 209.063425 333.741536 
L 214.19065 330.494375 
L 219.317875 333.741536 
L 224.4451 330.494375 
L 229.572325 333.741536 
L 234.69955 330.494375 
L 239.826775 324.000052 
L 244.954 327.247214 
L 250.081225 330.494375 
L 255.20845 333.741536 
L 260.335675 330.494375 
L 265.4629 333.741536 
L 270.590125 317.505729 
L 275.71735 314.258568 
L 280.844575 311.011406 
L 285.9718 314.258568 
L 291.099025 317.505729 
L 296.22625 314.258568 
L 301.353475 317.505729 
L 306.4807 314.258568 
L 311.607925 317.505729 
L 316.73515 301.269922 
L 321.862375 298.02276 
L 326.9896 301.269922 
L 332.116825 304.517083 
L 337.24405 307.764245 
L 342.371275 311.011406 
L 347.4985 307.764245 
L 352.625725 304.517083 
L 357.75295 291.528438 
L 362.880175 272.045469 
L 368.0074 268.798307 
L 373.134625 265.551146 
L 378.26185 262.303984 
L 383.389075 259.056823 
L 388.5163 262.303984 
L 393.643525 259.056823 
L 398.77075 252.5625 
L 403.897975 249.315339 
L 409.0252 246.068177 
L 414.152425 242.821016 
L 419.27965 246.068177 
L 424.406875 249.315339 
L 429.5341 246.068177 
L 434.661325 249.315339 
L 439.78855 246.068177 
L 444.915775 242.821016 
L 450.043 239.573854 
L 455.170225 242.821016 
L 460.29745 239.573854 
L 465.424675 236.326693 
L 470.5519 233.079531 
L 475.679125 236.326693 
L 480.80635 239.573854 
L 485.933575 236.326693 
L 491.0608 233.079531 
L 496.188025 216.843724 
L 501.31525 213.596563 
L 506.442475 210.349401 
L 511.5697 194.113594 
L 516.696925 197.360755 
L 521.82415 194.113594 
L 526.951375 197.360755 
L 532.0786 194.113594 
L 537.205825 190.866432 
L 542.33305 187.619271 
L 547.460275 184.372109 
L 552.5875 187.619271 
" style="fill:none;stroke:#00bfbf;stroke-linecap:square;"/>
   </g>
   <g id="line2d_5">
    <path clip-path="url(#pdb202a1f37)" d="M 39.865 408.42625 
L 44.992225 388.943281 
L 50.11945 392.190443 
L 55.246675 388.943281 
L 60.3739 392.190443 
L 65.501125 395.437604 
L 70.62835 392.190443 
L 75.755575 379.201797 
L 80.8828 375.954635 
L 86.010025 372.707474 
L 91.13725 369.460313 
L 96.264475 366.213151 
L 101.3917 369.460313 
L 106.518925 372.707474 
L 111.64615 375.954635 
L 116.773375 379.201797 
L 121.9006 382.448958 
L 127.027825 379.201797 
L 132.15505 375.954635 
L 137.282275 372.707474 
L 142.4095 369.460313 
L 147.536725 366.213151 
L 152.66395 362.96599 
L 157.791175 366.213151 
L 162.9184 362.96599 
L 168.045625 359.718828 
L 173.17285 362.96599 
L 178.300075 359.718828 
L 183.4273 356.471667 
L 188.554525 346.730182 
L 193.68175 349.977344 
L 198.808975 346.730182 
L 203.9362 349.977344 
L 209.063425 346.730182 
L 214.19065 336.988698 
L 219.317875 333.741536 
L 224.4451 330.494375 
L 229.572325 327.247214 
L 234.69955 330.494375 
L 239.826775 333.741536 
L 244.954 324.000052 
L 250.081225 320.752891 
L 255.20845 317.505729 
L 260.335675 314.258568 
L 265.4629 317.505729 
L 270.590125 320.752891 
L 275.71735 317.505729 
L 280.844575 307.764245 
L 285.9718 304.517083 
L 291.099025 288.281276 
L 296.22625 285.034115 
L 301.353475 288.281276 
L 306.4807 285.034115 
L 311.607925 288.281276 
L 316.73515 285.034115 
L 321.862375 288.281276 
L 326.9896 268.798307 
L 332.116825 272.045469 
L 337.24405 275.29263 
L 342.371275 272.045469 
L 347.4985 265.551146 
L 352.625725 268.798307 
L 357.75295 272.045469 
L 362.880175 275.29263 
L 368.0074 272.045469 
L 373.134625 268.798307 
L 378.26185 265.551146 
L 383.389075 262.303984 
L 388.5163 249.315339 
L 393.643525 233.079531 
L 398.77075 229.83237 
L 403.897975 226.585208 
L 409.0252 223.338047 
L 414.152425 213.596563 
L 419.27965 210.349401 
L 424.406875 207.10224 
L 429.5341 203.855078 
L 434.661325 200.607917 
L 439.78855 197.360755 
L 444.915775 194.113594 
L 450.043 197.360755 
L 455.170225 200.607917 
L 460.29745 197.360755 
L 465.424675 194.113594 
L 470.5519 197.360755 
L 475.679125 177.877786 
L 480.80635 181.124948 
L 485.933575 177.877786 
L 491.0608 174.630625 
L 496.188025 177.877786 
L 501.31525 181.124948 
L 506.442475 177.877786 
L 511.5697 181.124948 
L 516.696925 184.372109 
L 521.82415 164.889141 
L 526.951375 168.136302 
L 532.0786 171.383464 
L 537.205825 168.136302 
L 542.33305 164.889141 
L 547.460275 168.136302 
L 552.5875 171.383464 
" style="fill:none;stroke:#bf00bf;stroke-linecap:square;"/>
   </g>
   <g id="line2d_6">
    <path clip-path="url(#pdb202a1f37)" d="M 39.865 408.42625 
L 44.992225 408.42625 
L 50.11945 408.42625 
L 55.246675 405.179089 
L 60.3739 385.69612 
L 65.501125 382.448958 
L 70.62835 372.707474 
L 75.755575 369.460313 
L 80.8828 349.977344 
L 86.010025 346.730182 
L 91.13725 343.483021 
L 96.264475 324.000052 
L 101.3917 327.247214 
L 106.518925 307.764245 
L 111.64615 311.011406 
L 116.773375 307.764245 
L 121.9006 304.517083 
L 127.027825 301.269922 
L 132.15505 304.517083 
L 137.282275 285.034115 
L 142.4095 281.786953 
L 147.536725 285.034115 
L 152.66395 281.786953 
L 157.791175 285.034115 
L 162.9184 281.786953 
L 168.045625 285.034115 
L 173.17285 281.786953 
L 178.300075 285.034115 
L 183.4273 281.786953 
L 188.554525 268.798307 
L 193.68175 265.551146 
L 198.808975 259.056823 
L 203.9362 262.303984 
L 209.063425 259.056823 
L 214.19065 262.303984 
L 219.317875 265.551146 
L 224.4451 262.303984 
L 229.572325 265.551146 
L 234.69955 262.303984 
L 239.826775 265.551146 
L 244.954 252.5625 
L 250.081225 239.573854 
L 255.20845 242.821016 
L 260.335675 246.068177 
L 265.4629 249.315339 
L 270.590125 246.068177 
L 275.71735 242.821016 
L 280.844575 229.83237 
L 285.9718 226.585208 
L 291.099025 223.338047 
L 296.22625 210.349401 
L 301.353475 213.596563 
L 306.4807 216.843724 
L 311.607925 220.090885 
L 316.73515 216.843724 
L 321.862375 213.596563 
L 326.9896 207.10224 
L 332.116825 210.349401 
L 337.24405 213.596563 
L 342.371275 210.349401 
L 347.4985 207.10224 
L 352.625725 200.607917 
L 357.75295 190.866432 
L 362.880175 174.630625 
L 368.0074 171.383464 
L 373.134625 174.630625 
L 378.26185 171.383464 
L 383.389075 168.136302 
L 388.5163 164.889141 
L 393.643525 161.641979 
L 398.77075 158.394818 
L 403.897975 161.641979 
L 409.0252 158.394818 
L 414.152425 155.147656 
L 419.27965 135.664688 
L 424.406875 138.911849 
L 429.5341 122.676042 
L 434.661325 125.923203 
L 439.78855 112.934557 
L 444.915775 116.181719 
L 450.043 103.193073 
L 455.170225 106.440234 
L 460.29745 96.69875 
L 465.424675 93.451589 
L 470.5519 96.69875 
L 475.679125 93.451589 
L 480.80635 73.96862 
L 485.933575 77.215781 
L 491.0608 80.462943 
L 496.188025 83.710104 
L 501.31525 70.721458 
L 506.442475 73.96862 
L 511.5697 77.215781 
L 516.696925 73.96862 
L 521.82415 70.721458 
L 526.951375 73.96862 
L 532.0786 70.721458 
L 537.205825 67.474297 
L 542.33305 64.227135 
L 547.460275 60.979974 
L 552.5875 64.227135 
" style="fill:none;stroke:#bfbf00;stroke-linecap:square;"/>
   </g>
   <g id="line2d_7">
    <path clip-path="url(#pdb202a1f37)" d="M 39.865 408.42625 
L 44.992225 408.42625 
L 50.11945 408.42625 
L 55.246675 405.179089 
L 60.3739 408.42625 
L 65.501125 408.42625 
L 70.62835 395.437604 
L 75.755575 392.190443 
L 80.8828 385.69612 
L 86.010025 372.707474 
L 91.13725 353.224505 
L 96.264475 356.471667 
L 101.3917 359.718828 
L 106.518925 356.471667 
L 111.64615 353.224505 
L 116.773375 349.977344 
L 121.9006 353.224505 
L 127.027825 349.977344 
L 132.15505 353.224505 
L 137.282275 349.977344 
L 142.4095 346.730182 
L 147.536725 349.977344 
L 152.66395 353.224505 
L 157.791175 349.977344 
L 162.9184 346.730182 
L 168.045625 343.483021 
L 173.17285 340.235859 
L 178.300075 336.988698 
L 183.4273 333.741536 
L 188.554525 330.494375 
L 193.68175 327.247214 
L 198.808975 324.000052 
L 203.9362 320.752891 
L 209.063425 301.269922 
L 214.19065 304.517083 
L 219.317875 294.775599 
L 224.4451 291.528438 
L 229.572325 294.775599 
L 234.69955 298.02276 
L 239.826775 294.775599 
L 244.954 291.528438 
L 250.081225 288.281276 
L 255.20845 291.528438 
L 260.335675 294.775599 
L 265.4629 298.02276 
L 270.590125 301.269922 
L 275.71735 298.02276 
L 280.844575 294.775599 
L 285.9718 291.528438 
L 291.099025 288.281276 
L 296.22625 285.034115 
L 301.353475 281.786953 
L 306.4807 278.539792 
L 311.607925 281.786953 
L 316.73515 278.539792 
L 321.862375 275.29263 
L 326.9896 268.798307 
L 332.116825 272.045469 
L 337.24405 268.798307 
L 342.371275 265.551146 
L 347.4985 255.809661 
L 352.625725 249.315339 
L 357.75295 246.068177 
L 362.880175 249.315339 
L 368.0074 252.5625 
L 373.134625 255.809661 
L 378.26185 259.056823 
L 383.389075 262.303984 
L 388.5163 259.056823 
L 393.643525 262.303984 
L 398.77075 259.056823 
L 403.897975 252.5625 
L 409.0252 249.315339 
L 414.152425 246.068177 
L 419.27965 249.315339 
L 424.406875 246.068177 
L 429.5341 249.315339 
L 434.661325 252.5625 
L 439.78855 249.315339 
L 444.915775 252.5625 
L 450.043 255.809661 
L 455.170225 259.056823 
L 460.29745 255.809661 
L 465.424675 259.056823 
L 470.5519 262.303984 
L 475.679125 259.056823 
L 480.80635 255.809661 
L 485.933575 252.5625 
L 491.0608 246.068177 
L 496.188025 242.821016 
L 501.31525 239.573854 
L 506.442475 242.821016 
L 511.5697 246.068177 
L 516.696925 242.821016 
L 521.82415 223.338047 
L 526.951375 226.585208 
L 532.0786 223.338047 
L 537.205825 220.090885 
L 542.33305 203.855078 
L 547.460275 207.10224 
L 552.5875 203.855078 
" style="fill:none;stroke:#000000;stroke-linecap:square;"/>
   </g>
   <g id="line2d_8">
    <path clip-path="url(#pdb202a1f37)" d="M 39.865 408.42625 
L 44.992225 408.42625 
L 50.11945 405.179089 
L 55.246675 401.931927 
L 60.3739 405.179089 
L 65.501125 401.931927 
L 70.62835 398.684766 
L 75.755575 379.201797 
L 80.8828 375.954635 
L 86.010025 372.707474 
L 91.13725 369.460313 
L 96.264475 372.707474 
L 101.3917 366.213151 
L 106.518925 362.96599 
L 111.64615 359.718828 
L 116.773375 356.471667 
L 121.9006 359.718828 
L 127.027825 356.471667 
L 132.15505 353.224505 
L 137.282275 349.977344 
L 142.4095 346.730182 
L 147.536725 349.977344 
L 152.66395 346.730182 
L 157.791175 349.977344 
L 162.9184 346.730182 
L 168.045625 343.483021 
L 173.17285 346.730182 
L 178.300075 343.483021 
L 183.4273 330.494375 
L 188.554525 327.247214 
L 193.68175 317.505729 
L 198.808975 314.258568 
L 203.9362 301.269922 
L 209.063425 298.02276 
L 214.19065 301.269922 
L 219.317875 298.02276 
L 224.4451 294.775599 
L 229.572325 298.02276 
L 234.69955 301.269922 
L 239.826775 285.034115 
L 244.954 281.786953 
L 250.081225 278.539792 
L 255.20845 281.786953 
L 260.335675 285.034115 
L 265.4629 281.786953 
L 270.590125 278.539792 
L 275.71735 275.29263 
L 280.844575 278.539792 
L 285.9718 265.551146 
L 291.099025 268.798307 
L 296.22625 265.551146 
L 301.353475 262.303984 
L 306.4807 259.056823 
L 311.607925 255.809661 
L 316.73515 252.5625 
L 321.862375 249.315339 
L 326.9896 246.068177 
L 332.116825 249.315339 
L 337.24405 252.5625 
L 342.371275 255.809661 
L 347.4985 252.5625 
L 352.625725 249.315339 
L 357.75295 236.326693 
L 362.880175 233.079531 
L 368.0074 236.326693 
L 373.134625 233.079531 
L 378.26185 229.83237 
L 383.389075 233.079531 
L 388.5163 213.596563 
L 393.643525 210.349401 
L 398.77075 207.10224 
L 403.897975 203.855078 
L 409.0252 207.10224 
L 414.152425 203.855078 
L 419.27965 200.607917 
L 424.406875 190.866432 
L 429.5341 194.113594 
L 434.661325 190.866432 
L 439.78855 194.113594 
L 444.915775 197.360755 
L 450.043 200.607917 
L 455.170225 197.360755 
L 460.29745 194.113594 
L 465.424675 187.619271 
L 470.5519 184.372109 
L 475.679125 181.124948 
L 480.80635 168.136302 
L 485.933575 164.889141 
L 491.0608 168.136302 
L 496.188025 171.383464 
L 501.31525 168.136302 
L 506.442475 164.889141 
L 511.5697 168.136302 
L 516.696925 171.383464 
L 521.82415 168.136302 
L 526.951375 164.889141 
L 532.0786 161.641979 
L 537.205825 164.889141 
L 542.33305 168.136302 
L 547.460275 164.889141 
L 552.5875 161.641979 
" style="fill:none;stroke:#0000ff;stroke-linecap:square;"/>
   </g>
   <g id="line2d_9">
    <path clip-path="url(#pdb202a1f37)" d="M 39.865 408.42625 
L 44.992225 405.179089 
L 50.11945 408.42625 
L 55.246675 405.179089 
L 60.3739 401.931927 
L 65.501125 405.179089 
L 70.62835 408.42625 
L 75.755575 408.42625 
L 80.8828 405.179089 
L 86.010025 401.931927 
L 91.13725 398.684766 
L 96.264475 395.437604 
L 101.3917 392.190443 
L 106.518925 375.954635 
L 111.64615 362.96599 
L 116.773375 366.213151 
L 121.9006 362.96599 
L 127.027825 366.213151 
L 132.15505 369.460313 
L 137.282275 372.707474 
L 142.4095 369.460313 
L 147.536725 372.707474 
L 152.66395 369.460313 
L 157.791175 366.213151 
L 162.9184 369.460313 
L 168.045625 356.471667 
L 173.17285 353.224505 
L 178.300075 356.471667 
L 183.4273 353.224505 
L 188.554525 356.471667 
L 193.68175 359.718828 
L 198.808975 356.471667 
L 203.9362 359.718828 
L 209.063425 346.730182 
L 214.19065 343.483021 
L 219.317875 340.235859 
L 224.4451 336.988698 
L 229.572325 333.741536 
L 234.69955 330.494375 
L 239.826775 333.741536 
L 244.954 330.494375 
L 250.081225 327.247214 
L 255.20845 324.000052 
L 260.335675 320.752891 
L 265.4629 317.505729 
L 270.590125 320.752891 
L 275.71735 304.517083 
L 280.844575 301.269922 
L 285.9718 298.02276 
L 291.099025 301.269922 
L 296.22625 298.02276 
L 301.353475 301.269922 
L 306.4807 298.02276 
L 311.607925 294.775599 
L 316.73515 298.02276 
L 321.862375 294.775599 
L 326.9896 278.539792 
L 332.116825 275.29263 
L 337.24405 272.045469 
L 342.371275 275.29263 
L 347.4985 272.045469 
L 352.625725 268.798307 
L 357.75295 265.551146 
L 362.880175 268.798307 
L 368.0074 265.551146 
L 373.134625 268.798307 
L 378.26185 265.551146 
L 383.389075 262.303984 
L 388.5163 265.551146 
L 393.643525 268.798307 
L 398.77075 272.045469 
L 403.897975 268.798307 
L 409.0252 265.551146 
L 414.152425 268.798307 
L 419.27965 272.045469 
L 424.406875 275.29263 
L 429.5341 272.045469 
L 434.661325 259.056823 
L 439.78855 255.809661 
L 444.915775 252.5625 
L 450.043 249.315339 
L 455.170225 246.068177 
L 460.29745 242.821016 
L 465.424675 246.068177 
L 470.5519 242.821016 
L 475.679125 239.573854 
L 480.80635 242.821016 
L 485.933575 239.573854 
L 491.0608 223.338047 
L 496.188025 220.090885 
L 501.31525 223.338047 
L 506.442475 226.585208 
L 511.5697 223.338047 
L 516.696925 226.585208 
L 521.82415 229.83237 
L 526.951375 233.079531 
L 532.0786 220.090885 
L 537.205825 216.843724 
L 542.33305 213.596563 
L 547.460275 210.349401 
L 552.5875 213.596563 
" style="fill:none;stroke:#008000;stroke-linecap:square;"/>
   </g>
   <g id="line2d_10">
    <path clip-path="url(#pdb202a1f37)" d="M 39.865 408.42625 
L 44.992225 405.179089 
L 50.11945 401.931927 
L 55.246675 398.684766 
L 60.3739 395.437604 
L 65.501125 392.190443 
L 70.62835 395.437604 
L 75.755575 398.684766 
L 80.8828 388.943281 
L 86.010025 392.190443 
L 91.13725 395.437604 
L 96.264475 398.684766 
L 101.3917 401.931927 
L 106.518925 398.684766 
L 111.64615 379.201797 
L 116.773375 375.954635 
L 121.9006 379.201797 
L 127.027825 375.954635 
L 132.15505 372.707474 
L 137.282275 375.954635 
L 142.4095 379.201797 
L 147.536725 375.954635 
L 152.66395 372.707474 
L 157.791175 369.460313 
L 162.9184 372.707474 
L 168.045625 359.718828 
L 173.17285 356.471667 
L 178.300075 359.718828 
L 183.4273 353.224505 
L 188.554525 349.977344 
L 193.68175 353.224505 
L 198.808975 349.977344 
L 203.9362 346.730182 
L 209.063425 343.483021 
L 214.19065 340.235859 
L 219.317875 336.988698 
L 224.4451 333.741536 
L 229.572325 336.988698 
L 234.69955 340.235859 
L 239.826775 336.988698 
L 244.954 333.741536 
L 250.081225 336.988698 
L 255.20845 333.741536 
L 260.335675 330.494375 
L 265.4629 333.741536 
L 270.590125 336.988698 
L 275.71735 340.235859 
L 280.844575 327.247214 
L 285.9718 324.000052 
L 291.099025 320.752891 
L 296.22625 317.505729 
L 301.353475 314.258568 
L 306.4807 311.011406 
L 311.607925 307.764245 
L 316.73515 304.517083 
L 321.862375 301.269922 
L 326.9896 298.02276 
L 332.116825 301.269922 
L 337.24405 298.02276 
L 342.371275 294.775599 
L 347.4985 291.528438 
L 352.625725 288.281276 
L 357.75295 285.034115 
L 362.880175 288.281276 
L 368.0074 291.528438 
L 373.134625 272.045469 
L 378.26185 268.798307 
L 383.389075 265.551146 
L 388.5163 268.798307 
L 393.643525 272.045469 
L 398.77075 275.29263 
L 403.897975 262.303984 
L 409.0252 259.056823 
L 414.152425 246.068177 
L 419.27965 249.315339 
L 424.406875 229.83237 
L 429.5341 226.585208 
L 434.661325 223.338047 
L 439.78855 210.349401 
L 444.915775 207.10224 
L 450.043 210.349401 
L 455.170225 213.596563 
L 460.29745 210.349401 
L 465.424675 207.10224 
L 470.5519 203.855078 
L 475.679125 200.607917 
L 480.80635 203.855078 
L 485.933575 184.372109 
L 491.0608 181.124948 
L 496.188025 184.372109 
L 501.31525 171.383464 
L 506.442475 168.136302 
L 511.5697 171.383464 
L 516.696925 168.136302 
L 521.82415 171.383464 
L 526.951375 151.900495 
L 532.0786 132.417526 
L 537.205825 129.170365 
L 542.33305 132.417526 
L 547.460275 129.170365 
L 552.5875 125.923203 
" style="fill:none;stroke:#ff0000;stroke-linecap:square;"/>
   </g>
   <g id="patch_3">
    <path d="M 552.5875 408.42625 
L 552.5875 18.766875 
" style="fill:none;stroke:#000000;stroke-linecap:square;stroke-linejoin:miter;"/>
   </g>
   <g id="patch_4">
    <path d="M 39.865 408.42625 
L 39.865 18.766875 
" style="fill:none;stroke:#000000;stroke-linecap:square;stroke-linejoin:miter;"/>
   </g>
   <g id="patch_5">
    <path d="M 39.865 18.766875 
L 552.5875 18.766875 
" style="fill:none;stroke:#000000;stroke-linecap:square;stroke-linejoin:miter;"/>
   </g>
   <g id="patch_6">
    <path d="M 39.865 408.42625 
L 552.5875 408.42625 
" style="fill:none;stroke:#000000;stroke-linecap:square;stroke-linejoin:miter;"/>
   </g>
   <g id="matplotlib.axis_1">
    <g id="xtick_1">
     <g id="line2d_11">
      <defs>
       <path d="M 0 0 
L 0 -4 
" id="m83431a0479" style="stroke:#000000;stroke-width:0.5;"/>
      </defs>
      <g>
       <use style="stroke:#000000;stroke-width:0.5;" x="39.865" xlink:href="#m83431a0479" y="408.42625000000004"/>
      </g>
     </g>
     <g id="line2d_12">
      <defs>
       <path d="M 0 0 
L 0 4 
" id="m014e30f9c5" style="stroke:#000000;stroke-width:0.5;"/>
      </defs>
      <g>
       <use style="stroke:#000000;stroke-width:0.5;" x="39.865" xlink:href="#m014e30f9c5" y="18.766875000000027"/>
      </g>
     </g>
     <g id="text_1">
      <!-- 0 -->
      <defs>
       <path d="M 31.78125 66.40625 
Q 24.171875 66.40625 20.328125 58.90625 
Q 16.5 51.421875 16.5 36.375 
Q 16.5 21.390625 20.328125 13.890625 
Q 24.171875 6.390625 31.78125 6.390625 
Q 39.453125 6.390625 43.28125 13.890625 
Q 47.125 21.390625 47.125 36.375 
Q 47.125 51.421875 43.28125 58.90625 
Q 39.453125 66.40625 31.78125 66.40625 
M 31.78125 74.21875 
Q 44.046875 74.21875 50.515625 64.515625 
Q 56.984375 54.828125 56.984375 36.375 
Q 56.984375 17.96875 50.515625 8.265625 
Q 44.046875 -1.421875 31.78125 -1.421875 
Q 19.53125 -1.421875 13.0625 8.265625 
Q 6.59375 17.96875 6.59375 36.375 
Q 6.59375 54.828125 13.0625 64.515625 
Q 19.53125 74.21875 31.78125 74.21875 
" id="BitstreamVeraSans-Roman-30"/>
      </defs>
      <g transform="translate(36.0475 421.544375)scale(0.12 -0.12)">
       <use xlink:href="#BitstreamVeraSans-Roman-30"/>
      </g>
     </g>
    </g>
    <g id="xtick_2">
     <g id="line2d_13">
      <g>
       <use style="stroke:#000000;stroke-width:0.5;" x="142.40950000000004" xlink:href="#m83431a0479" y="408.42625000000004"/>
      </g>
     </g>
     <g id="line2d_14">
      <g>
       <use style="stroke:#000000;stroke-width:0.5;" x="142.40950000000004" xlink:href="#m014e30f9c5" y="18.766875000000027"/>
      </g>
     </g>
     <g id="text_2">
      <!-- 20 -->
      <defs>
       <path d="M 19.1875 8.296875 
L 53.609375 8.296875 
L 53.609375 0 
L 7.328125 0 
L 7.328125 8.296875 
Q 12.9375 14.109375 22.625 23.890625 
Q 32.328125 33.6875 34.8125 36.53125 
Q 39.546875 41.84375 41.421875 45.53125 
Q 43.3125 49.21875 43.3125 52.78125 
Q 43.3125 58.59375 39.234375 62.25 
Q 35.15625 65.921875 28.609375 65.921875 
Q 23.96875 65.921875 18.8125 64.3125 
Q 13.671875 62.703125 7.8125 59.421875 
L 7.8125 69.390625 
Q 13.765625 71.78125 18.9375 73 
Q 24.125 74.21875 28.421875 74.21875 
Q 39.75 74.21875 46.484375 68.546875 
Q 53.21875 62.890625 53.21875 53.421875 
Q 53.21875 48.921875 51.53125 44.890625 
Q 49.859375 40.875 45.40625 35.40625 
Q 44.1875 33.984375 37.640625 27.21875 
Q 31.109375 20.453125 19.1875 8.296875 
" id="BitstreamVeraSans-Roman-32"/>
      </defs>
      <g transform="translate(134.77450000000005 421.544375)scale(0.12 -0.12)">
       <use xlink:href="#BitstreamVeraSans-Roman-32"/>
       <use x="63.623046875" xlink:href="#BitstreamVeraSans-Roman-30"/>
      </g>
     </g>
    </g>
    <g id="xtick_3">
     <g id="line2d_15">
      <g>
       <use style="stroke:#000000;stroke-width:0.5;" x="244.95400000000006" xlink:href="#m83431a0479" y="408.42625000000004"/>
      </g>
     </g>
     <g id="line2d_16">
      <g>
       <use style="stroke:#000000;stroke-width:0.5;" x="244.95400000000006" xlink:href="#m014e30f9c5" y="18.766875000000027"/>
      </g>
     </g>
     <g id="text_3">
      <!-- 40 -->
      <defs>
       <path d="M 37.796875 64.3125 
L 12.890625 25.390625 
L 37.796875 25.390625 
z
M 35.203125 72.90625 
L 47.609375 72.90625 
L 47.609375 25.390625 
L 58.015625 25.390625 
L 58.015625 17.1875 
L 47.609375 17.1875 
L 47.609375 0 
L 37.796875 0 
L 37.796875 17.1875 
L 4.890625 17.1875 
L 4.890625 26.703125 
z
" id="BitstreamVeraSans-Roman-34"/>
      </defs>
      <g transform="translate(237.31900000000007 421.544375)scale(0.12 -0.12)">
       <use xlink:href="#BitstreamVeraSans-Roman-34"/>
       <use x="63.623046875" xlink:href="#BitstreamVeraSans-Roman-30"/>
      </g>
     </g>
    </g>
    <g id="xtick_4">
     <g id="line2d_17">
      <g>
       <use style="stroke:#000000;stroke-width:0.5;" x="347.4985000000001" xlink:href="#m83431a0479" y="408.42625000000004"/>
      </g>
     </g>
     <g id="line2d_18">
      <g>
       <use style="stroke:#000000;stroke-width:0.5;" x="347.4985000000001" xlink:href="#m014e30f9c5" y="18.766875000000027"/>
      </g>
     </g>
     <g id="text_4">
      <!-- 60 -->
      <defs>
       <path d="M 33.015625 40.375 
Q 26.375 40.375 22.484375 35.828125 
Q 18.609375 31.296875 18.609375 23.390625 
Q 18.609375 15.53125 22.484375 10.953125 
Q 26.375 6.390625 33.015625 6.390625 
Q 39.65625 6.390625 43.53125 10.953125 
Q 47.40625 15.53125 47.40625 23.390625 
Q 47.40625 31.296875 43.53125 35.828125 
Q 39.65625 40.375 33.015625 40.375 
M 52.59375 71.296875 
L 52.59375 62.3125 
Q 48.875 64.0625 45.09375 64.984375 
Q 41.3125 65.921875 37.59375 65.921875 
Q 27.828125 65.921875 22.671875 59.328125 
Q 17.53125 52.734375 16.796875 39.40625 
Q 19.671875 43.65625 24.015625 45.921875 
Q 28.375 48.1875 33.59375 48.1875 
Q 44.578125 48.1875 50.953125 41.515625 
Q 57.328125 34.859375 57.328125 23.390625 
Q 57.328125 12.15625 50.6875 5.359375 
Q 44.046875 -1.421875 33.015625 -1.421875 
Q 20.359375 -1.421875 13.671875 8.265625 
Q 6.984375 17.96875 6.984375 36.375 
Q 6.984375 53.65625 15.1875 63.9375 
Q 23.390625 74.21875 37.203125 74.21875 
Q 40.921875 74.21875 44.703125 73.484375 
Q 48.484375 72.75 52.59375 71.296875 
" id="BitstreamVeraSans-Roman-36"/>
      </defs>
      <g transform="translate(339.8635000000001 421.544375)scale(0.12 -0.12)">
       <use xlink:href="#BitstreamVeraSans-Roman-36"/>
       <use x="63.623046875" xlink:href="#BitstreamVeraSans-Roman-30"/>
      </g>
     </g>
    </g>
    <g id="xtick_5">
     <g id="line2d_19">
      <g>
       <use style="stroke:#000000;stroke-width:0.5;" x="450.0430000000001" xlink:href="#m83431a0479" y="408.42625000000004"/>
      </g>
     </g>
     <g id="line2d_20">
      <g>
       <use style="stroke:#000000;stroke-width:0.5;" x="450.0430000000001" xlink:href="#m014e30f9c5" y="18.766875000000027"/>
      </g>
     </g>
     <g id="text_5">
      <!-- 80 -->
      <defs>
       <path d="M 31.78125 34.625 
Q 24.75 34.625 20.71875 30.859375 
Q 16.703125 27.09375 16.703125 20.515625 
Q 16.703125 13.921875 20.71875 10.15625 
Q 24.75 6.390625 31.78125 6.390625 
Q 38.8125 6.390625 42.859375 10.171875 
Q 46.921875 13.96875 46.921875 20.515625 
Q 46.921875 27.09375 42.890625 30.859375 
Q 38.875 34.625 31.78125 34.625 
M 21.921875 38.8125 
Q 15.578125 40.375 12.03125 44.71875 
Q 8.5 49.078125 8.5 55.328125 
Q 8.5 64.0625 14.71875 69.140625 
Q 20.953125 74.21875 31.78125 74.21875 
Q 42.671875 74.21875 48.875 69.140625 
Q 55.078125 64.0625 55.078125 55.328125 
Q 55.078125 49.078125 51.53125 44.71875 
Q 48 40.375 41.703125 38.8125 
Q 48.828125 37.15625 52.796875 32.3125 
Q 56.78125 27.484375 56.78125 20.515625 
Q 56.78125 9.90625 50.3125 4.234375 
Q 43.84375 -1.421875 31.78125 -1.421875 
Q 19.734375 -1.421875 13.25 4.234375 
Q 6.78125 9.90625 6.78125 20.515625 
Q 6.78125 27.484375 10.78125 32.3125 
Q 14.796875 37.15625 21.921875 38.8125 
M 18.3125 54.390625 
Q 18.3125 48.734375 21.84375 45.5625 
Q 25.390625 42.390625 31.78125 42.390625 
Q 38.140625 42.390625 41.71875 45.5625 
Q 45.3125 48.734375 45.3125 54.390625 
Q 45.3125 60.0625 41.71875 63.234375 
Q 38.140625 66.40625 31.78125 66.40625 
Q 25.390625 66.40625 21.84375 63.234375 
Q 18.3125 60.0625 18.3125 54.390625 
" id="BitstreamVeraSans-Roman-38"/>
      </defs>
      <g transform="translate(442.40800000000013 421.544375)scale(0.12 -0.12)">
       <use xlink:href="#BitstreamVeraSans-Roman-38"/>
       <use x="63.623046875" xlink:href="#BitstreamVeraSans-Roman-30"/>
      </g>
     </g>
    </g>
    <g id="xtick_6">
     <g id="line2d_21">
      <g>
       <use style="stroke:#000000;stroke-width:0.5;" x="552.5875000000001" xlink:href="#m83431a0479" y="408.42625000000004"/>
      </g>
     </g>
     <g id="line2d_22">
      <g>
       <use style="stroke:#000000;stroke-width:0.5;" x="552.5875000000001" xlink:href="#m014e30f9c5" y="18.766875000000027"/>
      </g>
     </g>
     <g id="text_6">
      <!-- 100 -->
      <defs>
       <path d="M 12.40625 8.296875 
L 28.515625 8.296875 
L 28.515625 63.921875 
L 10.984375 60.40625 
L 10.984375 69.390625 
L 28.421875 72.90625 
L 38.28125 72.90625 
L 38.28125 8.296875 
L 54.390625 8.296875 
L 54.390625 0 
L 12.40625 0 
z
" id="BitstreamVeraSans-Roman-31"/>
      </defs>
      <g transform="translate(541.1350000000001 421.544375)scale(0.12 -0.12)">
       <use xlink:href="#BitstreamVeraSans-Roman-31"/>
       <use x="63.623046875" xlink:href="#BitstreamVeraSans-Roman-30"/>
       <use x="127.24609375" xlink:href="#BitstreamVeraSans-Roman-30"/>
      </g>
     </g>
    </g>
   </g>
   <g id="matplotlib.axis_2">
    <g id="ytick_1">
     <g id="line2d_23">
      <defs>
       <path d="M 0 0 
L 4 0 
" id="ma5b05d6950" style="stroke:#000000;stroke-width:0.5;"/>
      </defs>
      <g>
       <use style="stroke:#000000;stroke-width:0.5;" x="39.865" xlink:href="#ma5b05d6950" y="408.42625000000004"/>
      </g>
     </g>
     <g id="line2d_24">
      <defs>
       <path d="M 0 0 
L -4 0 
" id="mbadfd8f1da" style="stroke:#000000;stroke-width:0.5;"/>
      </defs>
      <g>
       <use style="stroke:#000000;stroke-width:0.5;" x="552.5875000000001" xlink:href="#mbadfd8f1da" y="408.42625000000004"/>
      </g>
     </g>
     <g id="text_7">
      <!-- 0 -->
      <g transform="translate(28.230000000000004 411.7375)scale(0.12 -0.12)">
       <use xlink:href="#BitstreamVeraSans-Roman-30"/>
      </g>
     </g>
    </g>
    <g id="ytick_2">
     <g id="line2d_25">
      <g>
       <use style="stroke:#000000;stroke-width:0.5;" x="39.865" xlink:href="#ma5b05d6950" y="343.4830208333334"/>
      </g>
     </g>
     <g id="line2d_26">
      <g>
       <use style="stroke:#000000;stroke-width:0.5;" x="552.5875000000001" xlink:href="#mbadfd8f1da" y="343.4830208333334"/>
      </g>
     </g>
     <g id="text_8">
      <!-- 20 -->
      <g transform="translate(20.595000000000002 346.79427083333337)scale(0.12 -0.12)">
       <use xlink:href="#BitstreamVeraSans-Roman-32"/>
       <use x="63.623046875" xlink:href="#BitstreamVeraSans-Roman-30"/>
      </g>
     </g>
    </g>
    <g id="ytick_3">
     <g id="line2d_27">
      <g>
       <use style="stroke:#000000;stroke-width:0.5;" x="39.865" xlink:href="#ma5b05d6950" y="278.5397916666667"/>
      </g>
     </g>
     <g id="line2d_28">
      <g>
       <use style="stroke:#000000;stroke-width:0.5;" x="552.5875000000001" xlink:href="#mbadfd8f1da" y="278.5397916666667"/>
      </g>
     </g>
     <g id="text_9">
      <!-- 40 -->
      <g transform="translate(20.595000000000002 281.8510416666667)scale(0.12 -0.12)">
       <use xlink:href="#BitstreamVeraSans-Roman-34"/>
       <use x="63.623046875" xlink:href="#BitstreamVeraSans-Roman-30"/>
      </g>
     </g>
    </g>
    <g id="ytick_4">
     <g id="line2d_29">
      <g>
       <use style="stroke:#000000;stroke-width:0.5;" x="39.865" xlink:href="#ma5b05d6950" y="213.59656250000003"/>
      </g>
     </g>
     <g id="line2d_30">
      <g>
       <use style="stroke:#000000;stroke-width:0.5;" x="552.5875000000001" xlink:href="#mbadfd8f1da" y="213.59656250000003"/>
      </g>
     </g>
     <g id="text_10">
      <!-- 60 -->
      <g transform="translate(20.595000000000002 216.90781250000003)scale(0.12 -0.12)">
       <use xlink:href="#BitstreamVeraSans-Roman-36"/>
       <use x="63.623046875" xlink:href="#BitstreamVeraSans-Roman-30"/>
      </g>
     </g>
    </g>
    <g id="ytick_5">
     <g id="line2d_31">
      <g>
       <use style="stroke:#000000;stroke-width:0.5;" x="39.865" xlink:href="#ma5b05d6950" y="148.65333333333336"/>
      </g>
     </g>
     <g id="line2d_32">
      <g>
       <use style="stroke:#000000;stroke-width:0.5;" x="552.5875000000001" xlink:href="#mbadfd8f1da" y="148.65333333333336"/>
      </g>
     </g>
     <g id="text_11">
      <!-- 80 -->
      <g transform="translate(20.595000000000002 151.96458333333334)scale(0.12 -0.12)">
       <use xlink:href="#BitstreamVeraSans-Roman-38"/>
       <use x="63.623046875" xlink:href="#BitstreamVeraSans-Roman-30"/>
      </g>
     </g>
    </g>
    <g id="ytick_6">
     <g id="line2d_33">
      <g>
       <use style="stroke:#000000;stroke-width:0.5;" x="39.865" xlink:href="#ma5b05d6950" y="83.71010416666672"/>
      </g>
     </g>
     <g id="line2d_34">
      <g>
       <use style="stroke:#000000;stroke-width:0.5;" x="552.5875000000001" xlink:href="#mbadfd8f1da" y="83.71010416666672"/>
      </g>
     </g>
     <g id="text_12">
      <!-- 100 -->
      <g transform="translate(12.960000000000004 87.0213541666667)scale(0.12 -0.12)">
       <use xlink:href="#BitstreamVeraSans-Roman-31"/>
       <use x="63.623046875" xlink:href="#BitstreamVeraSans-Roman-30"/>
       <use x="127.24609375" xlink:href="#BitstreamVeraSans-Roman-30"/>
      </g>
     </g>
    </g>
    <g id="ytick_7">
     <g id="line2d_35">
      <g>
       <use style="stroke:#000000;stroke-width:0.5;" x="39.865" xlink:href="#ma5b05d6950" y="18.766875000000027"/>
      </g>
     </g>
     <g id="line2d_36">
      <g>
       <use style="stroke:#000000;stroke-width:0.5;" x="552.5875000000001" xlink:href="#mbadfd8f1da" y="18.766875000000027"/>
      </g>
     </g>
     <g id="text_13">
      <!-- 120 -->
      <g transform="translate(12.960000000000004 22.078125)scale(0.12 -0.12)">
       <use xlink:href="#BitstreamVeraSans-Roman-31"/>
       <use x="63.623046875" xlink:href="#BitstreamVeraSans-Roman-32"/>
       <use x="127.24609375" xlink:href="#BitstreamVeraSans-Roman-30"/>
      </g>
     </g>
    </g>
   </g>
  </g>
 </g>
 <defs>
  <clipPath id="pdb202a1f37">
   <rect height="389.659375" width="512.7225000000001" x="39.865" y="18.766875000000027"/>
  </clipPath>
 </defs>
</svg>
