<?xml version="1.0" encoding="utf-8" standalone="no"?>
<!DOCTYPE svg PUBLIC "-//W3C//DTD SVG 1.1//EN"
  "http://www.w3.org/Graphics/SVG/1.1/DTD/svg11.dtd">
<!-- Created with matplotlib (http://matplotlib.org/) -->
<svg height="441pt" version="1.1" viewBox="0 0 577 441" width="577pt" xmlns="http://www.w3.org/2000/svg" xmlns:xlink="http://www.w3.org/1999/xlink">
 <defs>
  <style type="text/css">
*{stroke-linecap:butt;stroke-linejoin:round;stroke-miterlimit:100000;}
  </style>
 </defs>
 <g id="figure_1">
  <g id="patch_1">
   <path d="M 0 441 
L 577 441 
L 577 0 
L 0 0 
z
" style="fill:#ffffff;"/>
  </g>
  <g id="axes_1">
   <g id="patch_2">
    <path d="M 32.23 412.42625 
L 548.77 412.42625 
L 548.77 18.766875 
L 32.23 18.766875 
z
" style="fill:#ffffff;"/>
   </g>
   <g id="PathCollection_1">
    <defs>
     <path d="M 0 2.236068 
C 0.593012 2.236068 1.161816 2.000462 1.581139 1.581139 
C 2.000462 1.161816 2.236068 0.593012 2.236068 0 
C 2.236068 -0.593012 2.000462 -1.161816 1.581139 -1.581139 
C 1.161816 -2.000462 0.593012 -2.236068 0 -2.236068 
C -0.593012 -2.236068 -1.161816 -2.000462 -1.581139 -1.581139 
C -2.000462 -1.161816 -2.236068 -0.593012 -2.236068 0 
C -2.236068 0.593012 -2.000462 1.161816 -1.581139 1.581139 
C -1.161816 2.000462 -0.593012 2.236068 0 2.236068 
z
" id="me99a106b52" style="stroke:#000000;"/>
    </defs>
    <g clip-path="url(#pef83d1da18)">
     <use style="fill:#0000ff;stroke:#000000;" x="107.092763017" xlink:href="#me99a106b52" y="321.700886042"/>
     <use style="fill:#0000ff;stroke:#000000;" x="97.959883844" xlink:href="#me99a106b52" y="107.845430573"/>
     <use style="fill:#0000ff;stroke:#000000;" x="107.55871212" xlink:href="#me99a106b52" y="134.889829635"/>
     <use style="fill:#0000ff;stroke:#000000;" x="100.807295421" xlink:href="#me99a106b52" y="328.898291615"/>
     <use style="fill:#0000ff;stroke:#000000;" x="109.808473358" xlink:href="#me99a106b52" y="115.082202083"/>
     <use style="fill:#0000ff;stroke:#000000;" x="103.394418294" xlink:href="#me99a106b52" y="76.2739486979"/>
     <use style="fill:#0000ff;stroke:#000000;" x="99.4446974443" xlink:href="#me99a106b52" y="85.4987000521"/>
     <use style="fill:#0000ff;stroke:#000000;" x="97.0262539359" xlink:href="#me99a106b52" y="113.015490365"/>
     <use style="fill:#0000ff;stroke:#000000;" x="145.367865642" xlink:href="#me99a106b52" y="188.945822813"/>
     <use style="fill:#0000ff;stroke:#000000;" x="100.152500261" xlink:href="#me99a106b52" y="88.0443640104"/>
     <use style="fill:#0000ff;stroke:#000000;" x="99.405482696" xlink:href="#me99a106b52" y="237.064120417"/>
     <use style="fill:#0000ff;stroke:#000000;" x="99.7415042338" xlink:href="#me99a106b52" y="179.156826354"/>
     <use style="fill:#0000ff;stroke:#000000;" x="98.2671202218" xlink:href="#me99a106b52" y="118.152745208"/>
     <use style="fill:#0000ff;stroke:#000000;" x="97.3266729542" xlink:href="#me99a106b52" y="276.430057917"/>
     <use style="fill:#0000ff;stroke:#000000;" x="158.140062251" xlink:href="#me99a106b52" y="134.305901563"/>
     <use style="fill:#0000ff;stroke:#000000;" x="99.1615931696" xlink:href="#me99a106b52" y="130.270892969"/>
     <use style="fill:#0000ff;stroke:#000000;" x="101.422535561" xlink:href="#me99a106b52" y="266.14898724"/>
     <use style="fill:#0000ff;stroke:#000000;" x="99.5062696579" xlink:href="#me99a106b52" y="283.962073958"/>
     <use style="fill:#0000ff;stroke:#000000;" x="101.359793707" xlink:href="#me99a106b52" y="217.413956615"/>
     <use style="fill:#0000ff;stroke:#000000;" x="102.510526991" xlink:href="#me99a106b52" y="278.385232813"/>
     <use style="fill:#0000ff;stroke:#000000;" x="107.577089645" xlink:href="#me99a106b52" y="80.0924446354"/>
     <use style="fill:#0000ff;stroke:#000000;" x="98.2079893053" xlink:href="#me99a106b52" y="315.710702552"/>
     <use style="fill:#0000ff;stroke:#000000;" x="100.102970855" xlink:href="#me99a106b52" y="276.935254115"/>
     <use style="fill:#0000ff;stroke:#000000;" x="102.054825073" xlink:href="#me99a106b52" y="93.8705227604"/>
     <use style="fill:#0000ff;stroke:#000000;" x="522.517854005" xlink:href="#me99a106b52" y="130.55957651"/>
     <use style="fill:#0000ff;stroke:#000000;" x="111.075811673" xlink:href="#me99a106b52" y="131.03196776"/>
     <use style="fill:#0000ff;stroke:#000000;" x="97.027024549" xlink:href="#me99a106b52" y="181.794344167"/>
     <use style="fill:#0000ff;stroke:#000000;" x="117.654984559" xlink:href="#me99a106b52" y="304.419239479"/>
     <use style="fill:#0000ff;stroke:#000000;" x="98.0244794309" xlink:href="#me99a106b52" y="246.288871771"/>
     <use style="fill:#0000ff;stroke:#000000;" x="98.1320727758" xlink:href="#me99a106b52" y="92.3680561458"/>
     <use style="fill:#0000ff;stroke:#000000;" x="102.612903928" xlink:href="#me99a106b52" y="292.176432917"/>
     <use style="fill:#0000ff;stroke:#000000;" x="98.2481096128" xlink:href="#me99a106b52" y="112.274098542"/>
     <use style="fill:#0000ff;stroke:#000000;" x="100.483331541" xlink:href="#me99a106b52" y="95.7075998438"/>
     <use style="fill:#0000ff;stroke:#000000;" x="100.099722141" xlink:href="#me99a106b52" y="107.432088229"/>
     <use style="fill:#0000ff;stroke:#000000;" x="98.5628141905" xlink:href="#me99a106b52" y="95.3205014583"/>
     <use style="fill:#0000ff;stroke:#000000;" x="96.9577481412" xlink:href="#me99a106b52" y="249.77275724"/>
     <use style="fill:#0000ff;stroke:#000000;" x="99.8062234674" xlink:href="#me99a106b52" y="135.322854948"/>
     <use style="fill:#0000ff;stroke:#000000;" x="101.238349342" xlink:href="#me99a106b52" y="117.221084688"/>
     <use style="fill:#0000ff;stroke:#000000;" x="122.709904401" xlink:href="#me99a106b52" y="141.208062604"/>
     <use style="fill:#0000ff;stroke:#000000;" x="99.0378915247" xlink:href="#me99a106b52" y="137.665128229"/>
     <use style="fill:#0000ff;stroke:#000000;" x="96.9754483528" xlink:href="#me99a106b52" y="270.846655781"/>
     <use style="fill:#0000ff;stroke:#000000;" x="98.3815296349" xlink:href="#me99a106b52" y="228.456102083"/>
     <use style="fill:#0000ff;stroke:#000000;" x="121.498406319" xlink:href="#me99a106b52" y="261.871222031"/>
     <use style="fill:#0000ff;stroke:#000000;" x="98.4886713302" xlink:href="#me99a106b52" y="88.8841706771"/>
     <use style="fill:#0000ff;stroke:#000000;" x="116.517678732" xlink:href="#me99a106b52" y="80.0662006771"/>
     <use style="fill:#0000ff;stroke:#000000;" x="97.2671856251" xlink:href="#me99a106b52" y="237.01819349"/>
     <use style="fill:#0000ff;stroke:#000000;" x="97.3425655987" xlink:href="#me99a106b52" y="219.21822875"/>
     <use style="fill:#0000ff;stroke:#000000;" x="123.399631546" xlink:href="#me99a106b52" y="88.2739986458"/>
     <use style="fill:#0000ff;stroke:#000000;" x="104.181871257" xlink:href="#me99a106b52" y="215.452220729"/>
     <use style="fill:#0000ff;stroke:#000000;" x="100.253891898" xlink:href="#me99a106b52" y="87.7688024479"/>
     <use style="fill:#0000ff;stroke:#000000;" x="100.856512643" xlink:href="#me99a106b52" y="148.287370365"/>
     <use style="fill:#0000ff;stroke:#000000;" x="100.009027402" xlink:href="#me99a106b52" y="241.794593906"/>
     <use style="fill:#0000ff;stroke:#000000;" x="97.2727300363" xlink:href="#me99a106b52" y="304.904752708"/>
     <use style="fill:#0000ff;stroke:#000000;" x="99.5425272147" xlink:href="#me99a106b52" y="209.586696042"/>
     <use style="fill:#0000ff;stroke:#000000;" x="99.2135393375" xlink:href="#me99a106b52" y="148.687590729"/>
     <use style="fill:#0000ff;stroke:#000000;" x="99.051038759" xlink:href="#me99a106b52" y="69.8901058333"/>
     <use style="fill:#0000ff;stroke:#000000;" x="100.011705016" xlink:href="#me99a106b52" y="128.086083437"/>
     <use style="fill:#0000ff;stroke:#000000;" x="96.8949746492" xlink:href="#me99a106b52" y="72.8491121354"/>
     <use style="fill:#0000ff;stroke:#000000;" x="455.275075509" xlink:href="#me99a106b52" y="184.773033437"/>
     <use style="fill:#0000ff;stroke:#000000;" x="168.966854612" xlink:href="#me99a106b52" y="145.722023438"/>
     <use style="fill:#0000ff;stroke:#000000;" x="119.219716905" xlink:href="#me99a106b52" y="143.661872708"/>
     <use style="fill:#0000ff;stroke:#000000;" x="105.675414383" xlink:href="#me99a106b52" y="218.58181276"/>
     <use style="fill:#0000ff;stroke:#000000;" x="98.1240670515" xlink:href="#me99a106b52" y="91.6922742187"/>
     <use style="fill:#0000ff;stroke:#000000;" x="98.8722729817" xlink:href="#me99a106b52" y="79.4888335937"/>
     <use style="fill:#0000ff;stroke:#000000;" x="115.569768752" xlink:href="#me99a106b52" y="80.7944705208"/>
     <use style="fill:#0000ff;stroke:#000000;" x="97.6950308645" xlink:href="#me99a106b52" y="133.144606406"/>
     <use style="fill:#0000ff;stroke:#000000;" x="137.948941411" xlink:href="#me99a106b52" y="67.2985149479"/>
     <use style="fill:#0000ff;stroke:#000000;" x="98.7516976951" xlink:href="#me99a106b52" y="133.354558073"/>
     <use style="fill:#0000ff;stroke:#000000;" x="108.293800517" xlink:href="#me99a106b52" y="254.240791146"/>
     <use style="fill:#0000ff;stroke:#000000;" x="104.320170645" xlink:href="#me99a106b52" y="167.72102151"/>
     <use style="fill:#0000ff;stroke:#000000;" x="112.630997392" xlink:href="#me99a106b52" y="93.4112534896"/>
     <use style="fill:#0000ff;stroke:#000000;" x="97.6063884037" xlink:href="#me99a106b52" y="100.201877708"/>
     <use style="fill:#0000ff;stroke:#000000;" x="98.0634355863" xlink:href="#me99a106b52" y="136.910614427"/>
     <use style="fill:#0000ff;stroke:#000000;" x="97.4472585715" xlink:href="#me99a106b52" y="329.810269167"/>
     <use style="fill:#0000ff;stroke:#000000;" x="97.8286242504" xlink:href="#me99a106b52" y="309.563055313"/>
     <use style="fill:#0000ff;stroke:#000000;" x="98.7464422235" xlink:href="#me99a106b52" y="124.057635833"/>
     <use style="fill:#0000ff;stroke:#000000;" x="102.985537498" xlink:href="#me99a106b52" y="219.251033698"/>
     <use style="fill:#0000ff;stroke:#000000;" x="101.099980867" xlink:href="#me99a106b52" y="292.340457656"/>
     <use style="fill:#0000ff;stroke:#000000;" x="104.810741919" xlink:href="#me99a106b52" y="122.161509844"/>
     <use style="fill:#0000ff;stroke:#000000;" x="100.681814618" xlink:href="#me99a106b52" y="251.898517865"/>
     <use style="fill:#0000ff;stroke:#000000;" x="97.8531996094" xlink:href="#me99a106b52" y="188.276601875"/>
     <use style="fill:#0000ff;stroke:#000000;" x="97.2013316177" xlink:href="#me99a106b52" y="131.609334844"/>
     <use style="fill:#0000ff;stroke:#000000;" x="131.890223898" xlink:href="#me99a106b52" y="109.341336198"/>
     <use style="fill:#0000ff;stroke:#000000;" x="97.7253759754" xlink:href="#me99a106b52" y="170.962150365"/>
     <use style="fill:#0000ff;stroke:#000000;" x="97.0185584584" xlink:href="#me99a106b52" y="120.18009099"/>
     <use style="fill:#0000ff;stroke:#000000;" x="107.695581984" xlink:href="#me99a106b52" y="142.349674792"/>
     <use style="fill:#0000ff;stroke:#000000;" x="103.238642744" xlink:href="#me99a106b52" y="333.156373854"/>
     <use style="fill:#0000ff;stroke:#000000;" x="112.216858218" xlink:href="#me99a106b52" y="202.021875052"/>
     <use style="fill:#0000ff;stroke:#000000;" x="97.4609568895" xlink:href="#me99a106b52" y="262.140222604"/>
     <use style="fill:#0000ff;stroke:#000000;" x="106.128081629" xlink:href="#me99a106b52" y="190.763216927"/>
     <use style="fill:#0000ff;stroke:#000000;" x="102.147115274" xlink:href="#me99a106b52" y="85.9382863542"/>
     <use style="fill:#0000ff;stroke:#000000;" x="98.1262252202" xlink:href="#me99a106b52" y="83.0383289583"/>
     <use style="fill:#0000ff;stroke:#000000;" x="98.6297177426" xlink:href="#me99a106b52" y="130.966357865"/>
     <use style="fill:#0000ff;stroke:#000000;" x="100.960445979" xlink:href="#me99a106b52" y="236.152142865"/>
     <use style="fill:#0000ff;stroke:#000000;" x="140.390623408" xlink:href="#me99a106b52" y="301.814526615"/>
     <use style="fill:#0000ff;stroke:#000000;" x="98.29156806" xlink:href="#me99a106b52" y="83.090816875"/>
     <use style="fill:#0000ff;stroke:#000000;" x="97.8321609352" xlink:href="#me99a106b52" y="112.982685417"/>
     <use style="fill:#0000ff;stroke:#000000;" x="151.444402816" xlink:href="#me99a106b52" y="179.622656615"/>
     <use style="fill:#0000ff;stroke:#000000;" x="97.8441950259" xlink:href="#me99a106b52" y="113.658467344"/>
     <use style="fill:#0000ff;stroke:#000000;" x="98.9499050696" xlink:href="#me99a106b52" y="138.491812917"/>
     <use style="fill:#0000ff;stroke:#000000;" x="106.054786863" xlink:href="#me99a106b52" y="140.663500469"/>
     <use style="fill:#0000ff;stroke:#000000;" x="126.200663642" xlink:href="#me99a106b52" y="138.91171625"/>
     <use style="fill:#0000ff;stroke:#000000;" x="109.232632629" xlink:href="#me99a106b52" y="113.487881615"/>
     <use style="fill:#0000ff;stroke:#000000;" x="100.233406567" xlink:href="#me99a106b52" y="96.8557730208"/>
     <use style="fill:#0000ff;stroke:#000000;" x="98.0702839382" xlink:href="#me99a106b52" y="92.6042517708"/>
     <use style="fill:#0000ff;stroke:#000000;" x="97.0551546717" xlink:href="#me99a106b52" y="107.720771771"/>
     <use style="fill:#0000ff;stroke:#000000;" x="103.989046229" xlink:href="#me99a106b52" y="133.741656458"/>
     <use style="fill:#0000ff;stroke:#000000;" x="99.6580300784" xlink:href="#me99a106b52" y="305.862657188"/>
     <use style="fill:#0000ff;stroke:#000000;" x="96.8619315854" xlink:href="#me99a106b52" y="179.327412083"/>
     <use style="fill:#0000ff;stroke:#000000;" x="105.708150105" xlink:href="#me99a106b52" y="131.766798594"/>
     <use style="fill:#0000ff;stroke:#000000;" x="100.757906771" xlink:href="#me99a106b52" y="195.506812396"/>
     <use style="fill:#0000ff;stroke:#000000;" x="100.074386177" xlink:href="#me99a106b52" y="123.729586354"/>
     <use style="fill:#0000ff;stroke:#000000;" x="98.7811950347" xlink:href="#me99a106b52" y="329.967732917"/>
     <use style="fill:#0000ff;stroke:#000000;" x="98.267382043" xlink:href="#me99a106b52" y="84.5604785417"/>
     <use style="fill:#0000ff;stroke:#000000;" x="98.5561579269" xlink:href="#me99a106b52" y="119.39277224"/>
     <use style="fill:#0000ff;stroke:#000000;" x="97.4461596327" xlink:href="#me99a106b52" y="97.9842632292"/>
     <use style="fill:#0000ff;stroke:#000000;" x="99.7413818784" xlink:href="#me99a106b52" y="293.285240156"/>
     <use style="fill:#0000ff;stroke:#000000;" x="111.001648797" xlink:href="#me99a106b52" y="285.543272448"/>
     <use style="fill:#0000ff;stroke:#000000;" x="109.855692862" xlink:href="#me99a106b52" y="78.2028796354"/>
     <use style="fill:#0000ff;stroke:#000000;" x="103.376359733" xlink:href="#me99a106b52" y="134.266535625"/>
     <use style="fill:#0000ff;stroke:#000000;" x="110.451243466" xlink:href="#me99a106b52" y="225.070631458"/>
     <use style="fill:#0000ff;stroke:#000000;" x="97.1632961948" xlink:href="#me99a106b52" y="349.355457135"/>
     <use style="fill:#0000ff;stroke:#000000;" x="99.7130738722" xlink:href="#me99a106b52" y="78.5768560417"/>
     <use style="fill:#0000ff;stroke:#000000;" x="99.2364278706" xlink:href="#me99a106b52" y="73.2165275521"/>
     <use style="fill:#0000ff;stroke:#000000;" x="103.033024635" xlink:href="#me99a106b52" y="122.804486823"/>
     <use style="fill:#0000ff;stroke:#000000;" x="104.279031139" xlink:href="#me99a106b52" y="94.8743541667"/>
     <use style="fill:#0000ff;stroke:#000000;" x="109.110406028" xlink:href="#me99a106b52" y="264.692447552"/>
     <use style="fill:#0000ff;stroke:#000000;" x="117.803938553" xlink:href="#me99a106b52" y="145.945097083"/>
     <use style="fill:#0000ff;stroke:#000000;" x="98.6381835104" xlink:href="#me99a106b52" y="225.962926042"/>
     <use style="fill:#0000ff;stroke:#000000;" x="97.1386126852" xlink:href="#me99a106b52" y="151.174205781"/>
     <use style="fill:#0000ff;stroke:#000000;" x="100.115029158" xlink:href="#me99a106b52" y="124.247904531"/>
     <use style="fill:#0000ff;stroke:#000000;" x="119.770179701" xlink:href="#me99a106b52" y="138.327788177"/>
     <use style="fill:#0000ff;stroke:#000000;" x="106.214798364" xlink:href="#me99a106b52" y="271.089412396"/>
     <use style="fill:#0000ff;stroke:#000000;" x="116.418348735" xlink:href="#me99a106b52" y="88.1493398437"/>
     <use style="fill:#0000ff;stroke:#000000;" x="194.01676764" xlink:href="#me99a106b52" y="95.9109905208"/>
     <use style="fill:#0000ff;stroke:#000000;" x="97.9104809899" xlink:href="#me99a106b52" y="108.101309167"/>
     <use style="fill:#0000ff;stroke:#000000;" x="105.218607068" xlink:href="#me99a106b52" y="125.402638698"/>
     <use style="fill:#0000ff;stroke:#000000;" x="124.323385855" xlink:href="#me99a106b52" y="122.109021927"/>
     <use style="fill:#0000ff;stroke:#000000;" x="98.094768257" xlink:href="#me99a106b52" y="127.534960313"/>
     <use style="fill:#0000ff;stroke:#000000;" x="103.968283581" xlink:href="#me99a106b52" y="197.895012604"/>
     <use style="fill:#0000ff;stroke:#000000;" x="100.589560574" xlink:href="#me99a106b52" y="331.174955"/>
     <use style="fill:#0000ff;stroke:#000000;" x="100.771998628" xlink:href="#me99a106b52" y="323.93818349"/>
    </g>
   </g>
   <g id="patch_3">
    <path d="M 548.77 412.42625 
L 548.77 18.766875 
" style="fill:none;stroke:#000000;stroke-linecap:square;stroke-linejoin:miter;"/>
   </g>
   <g id="patch_4">
    <path d="M 32.23 412.42625 
L 32.23 18.766875 
" style="fill:none;stroke:#000000;stroke-linecap:square;stroke-linejoin:miter;"/>
   </g>
   <g id="patch_5">
    <path d="M 32.23 412.42625 
L 548.77 412.42625 
" style="fill:none;stroke:#000000;stroke-linecap:square;stroke-linejoin:miter;"/>
   </g>
   <g id="patch_6">
    <path d="M 32.23 18.766875 
L 548.77 18.766875 
" style="fill:none;stroke:#000000;stroke-linecap:square;stroke-linejoin:miter;"/>
   </g>
   <g id="matplotlib.axis_1">
    <g id="xtick_1">
     <g id="line2d_1">
      <defs>
       <path d="M 0 0 
L 0 -4 
" id="ma7dbffd516" style="stroke:#000000;stroke-width:0.5;"/>
      </defs>
      <g>
       <use style="stroke:#000000;stroke-width:0.5;" x="32.23" xlink:href="#ma7dbffd516" y="412.42625"/>
      </g>
     </g>
     <g id="line2d_2">
      <defs>
       <path d="M 0 0 
L 0 4 
" id="m2f0e6423a7" style="stroke:#000000;stroke-width:0.5;"/>
      </defs>
      <g>
       <use style="stroke:#000000;stroke-width:0.5;" x="32.23" xlink:href="#m2f0e6423a7" y="18.766875"/>
      </g>
     </g>
     <g id="text_1">
      <!-- −200 -->
      <defs>
       <path d="M 31.78125 66.40625 
Q 24.171875 66.40625 20.328125 58.90625 
Q 16.5 51.421875 16.5 36.375 
Q 16.5 21.390625 20.328125 13.890625 
Q 24.171875 6.390625 31.78125 6.390625 
Q 39.453125 6.390625 43.28125 13.890625 
Q 47.125 21.390625 47.125 36.375 
Q 47.125 51.421875 43.28125 58.90625 
Q 39.453125 66.40625 31.78125 66.40625 
M 31.78125 74.21875 
Q 44.046875 74.21875 50.515625 64.515625 
Q 56.984375 54.828125 56.984375 36.375 
Q 56.984375 17.96875 50.515625 8.265625 
Q 44.046875 -1.421875 31.78125 -1.421875 
Q 19.53125 -1.421875 13.0625 8.265625 
Q 6.59375 17.96875 6.59375 36.375 
Q 6.59375 54.828125 13.0625 64.515625 
Q 19.53125 74.21875 31.78125 74.21875 
" id="BitstreamVeraSans-Roman-30"/>
       <path d="M 19.1875 8.296875 
L 53.609375 8.296875 
L 53.609375 0 
L 7.328125 0 
L 7.328125 8.296875 
Q 12.9375 14.109375 22.625 23.890625 
Q 32.328125 33.6875 34.8125 36.53125 
Q 39.546875 41.84375 41.421875 45.53125 
Q 43.3125 49.21875 43.3125 52.78125 
Q 43.3125 58.59375 39.234375 62.25 
Q 35.15625 65.921875 28.609375 65.921875 
Q 23.96875 65.921875 18.8125 64.3125 
Q 13.671875 62.703125 7.8125 59.421875 
L 7.8125 69.390625 
Q 13.765625 71.78125 18.9375 73 
Q 24.125 74.21875 28.421875 74.21875 
Q 39.75 74.21875 46.484375 68.546875 
Q 53.21875 62.890625 53.21875 53.421875 
Q 53.21875 48.921875 51.53125 44.890625 
Q 49.859375 40.875 45.40625 35.40625 
Q 44.1875 33.984375 37.640625 27.21875 
Q 31.109375 20.453125 19.1875 8.296875 
" id="BitstreamVeraSans-Roman-32"/>
       <path d="M 10.59375 35.5 
L 73.1875 35.5 
L 73.1875 27.203125 
L 10.59375 27.203125 
z
" id="BitstreamVeraSans-Roman-2212"/>
      </defs>
      <g transform="translate(15.7496875 425.544375)scale(0.12 -0.12)">
       <use xlink:href="#BitstreamVeraSans-Roman-2212"/>
       <use x="83.7890625" xlink:href="#BitstreamVeraSans-Roman-32"/>
       <use x="147.412109375" xlink:href="#BitstreamVeraSans-Roman-30"/>
       <use x="211.03515625" xlink:href="#BitstreamVeraSans-Roman-30"/>
      </g>
     </g>
    </g>
    <g id="xtick_2">
     <g id="line2d_3">
      <g>
       <use style="stroke:#000000;stroke-width:0.5;" x="96.7975" xlink:href="#ma7dbffd516" y="412.42625"/>
      </g>
     </g>
     <g id="line2d_4">
      <g>
       <use style="stroke:#000000;stroke-width:0.5;" x="96.7975" xlink:href="#m2f0e6423a7" y="18.766875"/>
      </g>
     </g>
     <g id="text_2">
      <!-- 0 -->
      <g transform="translate(92.98 425.544375)scale(0.12 -0.12)">
       <use xlink:href="#BitstreamVeraSans-Roman-30"/>
      </g>
     </g>
    </g>
    <g id="xtick_3">
     <g id="line2d_5">
      <g>
       <use style="stroke:#000000;stroke-width:0.5;" x="161.365" xlink:href="#ma7dbffd516" y="412.42625"/>
      </g>
     </g>
     <g id="line2d_6">
      <g>
       <use style="stroke:#000000;stroke-width:0.5;" x="161.365" xlink:href="#m2f0e6423a7" y="18.766875"/>
      </g>
     </g>
     <g id="text_3">
      <!-- 200 -->
      <g transform="translate(149.9125 425.544375)scale(0.12 -0.12)">
       <use xlink:href="#BitstreamVeraSans-Roman-32"/>
       <use x="63.623046875" xlink:href="#BitstreamVeraSans-Roman-30"/>
       <use x="127.24609375" xlink:href="#BitstreamVeraSans-Roman-30"/>
      </g>
     </g>
    </g>
    <g id="xtick_4">
     <g id="line2d_7">
      <g>
       <use style="stroke:#000000;stroke-width:0.5;" x="225.9325" xlink:href="#ma7dbffd516" y="412.42625"/>
      </g>
     </g>
     <g id="line2d_8">
      <g>
       <use style="stroke:#000000;stroke-width:0.5;" x="225.9325" xlink:href="#m2f0e6423a7" y="18.766875"/>
      </g>
     </g>
     <g id="text_4">
      <!-- 400 -->
      <defs>
       <path d="M 37.796875 64.3125 
L 12.890625 25.390625 
L 37.796875 25.390625 
z
M 35.203125 72.90625 
L 47.609375 72.90625 
L 47.609375 25.390625 
L 58.015625 25.390625 
L 58.015625 17.1875 
L 47.609375 17.1875 
L 47.609375 0 
L 37.796875 0 
L 37.796875 17.1875 
L 4.890625 17.1875 
L 4.890625 26.703125 
z
" id="BitstreamVeraSans-Roman-34"/>
      </defs>
      <g transform="translate(214.48 425.544375)scale(0.12 -0.12)">
       <use xlink:href="#BitstreamVeraSans-Roman-34"/>
       <use x="63.623046875" xlink:href="#BitstreamVeraSans-Roman-30"/>
       <use x="127.24609375" xlink:href="#BitstreamVeraSans-Roman-30"/>
      </g>
     </g>
    </g>
    <g id="xtick_5">
     <g id="line2d_9">
      <g>
       <use style="stroke:#000000;stroke-width:0.5;" x="290.5" xlink:href="#ma7dbffd516" y="412.42625"/>
      </g>
     </g>
     <g id="line2d_10">
      <g>
       <use style="stroke:#000000;stroke-width:0.5;" x="290.5" xlink:href="#m2f0e6423a7" y="18.766875"/>
      </g>
     </g>
     <g id="text_5">
      <!-- 600 -->
      <defs>
       <path d="M 33.015625 40.375 
Q 26.375 40.375 22.484375 35.828125 
Q 18.609375 31.296875 18.609375 23.390625 
Q 18.609375 15.53125 22.484375 10.953125 
Q 26.375 6.390625 33.015625 6.390625 
Q 39.65625 6.390625 43.53125 10.953125 
Q 47.40625 15.53125 47.40625 23.390625 
Q 47.40625 31.296875 43.53125 35.828125 
Q 39.65625 40.375 33.015625 40.375 
M 52.59375 71.296875 
L 52.59375 62.3125 
Q 48.875 64.0625 45.09375 64.984375 
Q 41.3125 65.921875 37.59375 65.921875 
Q 27.828125 65.921875 22.671875 59.328125 
Q 17.53125 52.734375 16.796875 39.40625 
Q 19.671875 43.65625 24.015625 45.921875 
Q 28.375 48.1875 33.59375 48.1875 
Q 44.578125 48.1875 50.953125 41.515625 
Q 57.328125 34.859375 57.328125 23.390625 
Q 57.328125 12.15625 50.6875 5.359375 
Q 44.046875 -1.421875 33.015625 -1.421875 
Q 20.359375 -1.421875 13.671875 8.265625 
Q 6.984375 17.96875 6.984375 36.375 
Q 6.984375 53.65625 15.1875 63.9375 
Q 23.390625 74.21875 37.203125 74.21875 
Q 40.921875 74.21875 44.703125 73.484375 
Q 48.484375 72.75 52.59375 71.296875 
" id="BitstreamVeraSans-Roman-36"/>
      </defs>
      <g transform="translate(279.0475 425.544375)scale(0.12 -0.12)">
       <use xlink:href="#BitstreamVeraSans-Roman-36"/>
       <use x="63.623046875" xlink:href="#BitstreamVeraSans-Roman-30"/>
       <use x="127.24609375" xlink:href="#BitstreamVeraSans-Roman-30"/>
      </g>
     </g>
    </g>
    <g id="xtick_6">
     <g id="line2d_11">
      <g>
       <use style="stroke:#000000;stroke-width:0.5;" x="355.0675" xlink:href="#ma7dbffd516" y="412.42625"/>
      </g>
     </g>
     <g id="line2d_12">
      <g>
       <use style="stroke:#000000;stroke-width:0.5;" x="355.0675" xlink:href="#m2f0e6423a7" y="18.766875"/>
      </g>
     </g>
     <g id="text_6">
      <!-- 800 -->
      <defs>
       <path d="M 31.78125 34.625 
Q 24.75 34.625 20.71875 30.859375 
Q 16.703125 27.09375 16.703125 20.515625 
Q 16.703125 13.921875 20.71875 10.15625 
Q 24.75 6.390625 31.78125 6.390625 
Q 38.8125 6.390625 42.859375 10.171875 
Q 46.921875 13.96875 46.921875 20.515625 
Q 46.921875 27.09375 42.890625 30.859375 
Q 38.875 34.625 31.78125 34.625 
M 21.921875 38.8125 
Q 15.578125 40.375 12.03125 44.71875 
Q 8.5 49.078125 8.5 55.328125 
Q 8.5 64.0625 14.71875 69.140625 
Q 20.953125 74.21875 31.78125 74.21875 
Q 42.671875 74.21875 48.875 69.140625 
Q 55.078125 64.0625 55.078125 55.328125 
Q 55.078125 49.078125 51.53125 44.71875 
Q 48 40.375 41.703125 38.8125 
Q 48.828125 37.15625 52.796875 32.3125 
Q 56.78125 27.484375 56.78125 20.515625 
Q 56.78125 9.90625 50.3125 4.234375 
Q 43.84375 -1.421875 31.78125 -1.421875 
Q 19.734375 -1.421875 13.25 4.234375 
Q 6.78125 9.90625 6.78125 20.515625 
Q 6.78125 27.484375 10.78125 32.3125 
Q 14.796875 37.15625 21.921875 38.8125 
M 18.3125 54.390625 
Q 18.3125 48.734375 21.84375 45.5625 
Q 25.390625 42.390625 31.78125 42.390625 
Q 38.140625 42.390625 41.71875 45.5625 
Q 45.3125 48.734375 45.3125 54.390625 
Q 45.3125 60.0625 41.71875 63.234375 
Q 38.140625 66.40625 31.78125 66.40625 
Q 25.390625 66.40625 21.84375 63.234375 
Q 18.3125 60.0625 18.3125 54.390625 
" id="BitstreamVeraSans-Roman-38"/>
      </defs>
      <g transform="translate(343.615 425.544375)scale(0.12 -0.12)">
       <use xlink:href="#BitstreamVeraSans-Roman-38"/>
       <use x="63.623046875" xlink:href="#BitstreamVeraSans-Roman-30"/>
       <use x="127.24609375" xlink:href="#BitstreamVeraSans-Roman-30"/>
      </g>
     </g>
    </g>
    <g id="xtick_7">
     <g id="line2d_13">
      <g>
       <use style="stroke:#000000;stroke-width:0.5;" x="419.635" xlink:href="#ma7dbffd516" y="412.42625"/>
      </g>
     </g>
     <g id="line2d_14">
      <g>
       <use style="stroke:#000000;stroke-width:0.5;" x="419.635" xlink:href="#m2f0e6423a7" y="18.766875"/>
      </g>
     </g>
     <g id="text_7">
      <!-- 1000 -->
      <defs>
       <path d="M 12.40625 8.296875 
L 28.515625 8.296875 
L 28.515625 63.921875 
L 10.984375 60.40625 
L 10.984375 69.390625 
L 28.421875 72.90625 
L 38.28125 72.90625 
L 38.28125 8.296875 
L 54.390625 8.296875 
L 54.390625 0 
L 12.40625 0 
z
" id="BitstreamVeraSans-Roman-31"/>
      </defs>
      <g transform="translate(404.365 425.544375)scale(0.12 -0.12)">
       <use xlink:href="#BitstreamVeraSans-Roman-31"/>
       <use x="63.623046875" xlink:href="#BitstreamVeraSans-Roman-30"/>
       <use x="127.24609375" xlink:href="#BitstreamVeraSans-Roman-30"/>
       <use x="190.869140625" xlink:href="#BitstreamVeraSans-Roman-30"/>
      </g>
     </g>
    </g>
    <g id="xtick_8">
     <g id="line2d_15">
      <g>
       <use style="stroke:#000000;stroke-width:0.5;" x="484.2025" xlink:href="#ma7dbffd516" y="412.42625"/>
      </g>
     </g>
     <g id="line2d_16">
      <g>
       <use style="stroke:#000000;stroke-width:0.5;" x="484.2025" xlink:href="#m2f0e6423a7" y="18.766875"/>
      </g>
     </g>
     <g id="text_8">
      <!-- 1200 -->
      <g transform="translate(468.9325 425.544375)scale(0.12 -0.12)">
       <use xlink:href="#BitstreamVeraSans-Roman-31"/>
       <use x="63.623046875" xlink:href="#BitstreamVeraSans-Roman-32"/>
       <use x="127.24609375" xlink:href="#BitstreamVeraSans-Roman-30"/>
       <use x="190.869140625" xlink:href="#BitstreamVeraSans-Roman-30"/>
      </g>
     </g>
    </g>
    <g id="xtick_9">
     <g id="line2d_17">
      <g>
       <use style="stroke:#000000;stroke-width:0.5;" x="548.77" xlink:href="#ma7dbffd516" y="412.42625"/>
      </g>
     </g>
     <g id="line2d_18">
      <g>
       <use style="stroke:#000000;stroke-width:0.5;" x="548.77" xlink:href="#m2f0e6423a7" y="18.766875"/>
      </g>
     </g>
     <g id="text_9">
      <!-- 1400 -->
      <g transform="translate(533.5 425.544375)scale(0.12 -0.12)">
       <use xlink:href="#BitstreamVeraSans-Roman-31"/>
       <use x="63.623046875" xlink:href="#BitstreamVeraSans-Roman-34"/>
       <use x="127.24609375" xlink:href="#BitstreamVeraSans-Roman-30"/>
       <use x="190.869140625" xlink:href="#BitstreamVeraSans-Roman-30"/>
      </g>
     </g>
    </g>
   </g>
   <g id="matplotlib.axis_2">
    <g id="ytick_1">
     <g id="line2d_19">
      <defs>
       <path d="M 0 0 
L 4 0 
" id="mb539cd9240" style="stroke:#000000;stroke-width:0.5;"/>
      </defs>
      <g>
       <use style="stroke:#000000;stroke-width:0.5;" x="32.23" xlink:href="#mb539cd9240" y="412.42625"/>
      </g>
     </g>
     <g id="line2d_20">
      <defs>
       <path d="M 0 0 
L -4 0 
" id="ma5fd13cd11" style="stroke:#000000;stroke-width:0.5;"/>
      </defs>
      <g>
       <use style="stroke:#000000;stroke-width:0.5;" x="548.77" xlink:href="#ma5fd13cd11" y="412.42625"/>
      </g>
     </g>
     <g id="text_10">
      <!-- 30 -->
      <defs>
       <path d="M 40.578125 39.3125 
Q 47.65625 37.796875 51.625 33 
Q 55.609375 28.21875 55.609375 21.1875 
Q 55.609375 10.40625 48.1875 4.484375 
Q 40.765625 -1.421875 27.09375 -1.421875 
Q 22.515625 -1.421875 17.65625 -0.515625 
Q 12.796875 0.390625 7.625 2.203125 
L 7.625 11.71875 
Q 11.71875 9.328125 16.59375 8.109375 
Q 21.484375 6.890625 26.8125 6.890625 
Q 36.078125 6.890625 40.9375 10.546875 
Q 45.796875 14.203125 45.796875 21.1875 
Q 45.796875 27.640625 41.28125 31.265625 
Q 36.765625 34.90625 28.71875 34.90625 
L 20.21875 34.90625 
L 20.21875 43.015625 
L 29.109375 43.015625 
Q 36.375 43.015625 40.234375 45.921875 
Q 44.09375 48.828125 44.09375 54.296875 
Q 44.09375 59.90625 40.109375 62.90625 
Q 36.140625 65.921875 28.71875 65.921875 
Q 24.65625 65.921875 20.015625 65.03125 
Q 15.375 64.15625 9.8125 62.3125 
L 9.8125 71.09375 
Q 15.4375 72.65625 20.34375 73.4375 
Q 25.25 74.21875 29.59375 74.21875 
Q 40.828125 74.21875 47.359375 69.109375 
Q 53.90625 64.015625 53.90625 55.328125 
Q 53.90625 49.265625 50.4375 45.09375 
Q 46.96875 40.921875 40.578125 39.3125 
" id="BitstreamVeraSans-Roman-33"/>
      </defs>
      <g transform="translate(12.96 415.7375)scale(0.12 -0.12)">
       <use xlink:href="#BitstreamVeraSans-Roman-33"/>
       <use x="63.623046875" xlink:href="#BitstreamVeraSans-Roman-30"/>
      </g>
     </g>
    </g>
    <g id="ytick_2">
     <g id="line2d_21">
      <g>
       <use style="stroke:#000000;stroke-width:0.5;" x="32.23" xlink:href="#mb539cd9240" y="346.816354167"/>
      </g>
     </g>
     <g id="line2d_22">
      <g>
       <use style="stroke:#000000;stroke-width:0.5;" x="548.77" xlink:href="#ma5fd13cd11" y="346.816354167"/>
      </g>
     </g>
     <g id="text_11">
      <!-- 40 -->
      <g transform="translate(12.96 350.127604167)scale(0.12 -0.12)">
       <use xlink:href="#BitstreamVeraSans-Roman-34"/>
       <use x="63.623046875" xlink:href="#BitstreamVeraSans-Roman-30"/>
      </g>
     </g>
    </g>
    <g id="ytick_3">
     <g id="line2d_23">
      <g>
       <use style="stroke:#000000;stroke-width:0.5;" x="32.23" xlink:href="#mb539cd9240" y="281.206458333"/>
      </g>
     </g>
     <g id="line2d_24">
      <g>
       <use style="stroke:#000000;stroke-width:0.5;" x="548.77" xlink:href="#ma5fd13cd11" y="281.206458333"/>
      </g>
     </g>
     <g id="text_12">
      <!-- 50 -->
      <defs>
       <path d="M 10.796875 72.90625 
L 49.515625 72.90625 
L 49.515625 64.59375 
L 19.828125 64.59375 
L 19.828125 46.734375 
Q 21.96875 47.46875 24.109375 47.828125 
Q 26.265625 48.1875 28.421875 48.1875 
Q 40.625 48.1875 47.75 41.5 
Q 54.890625 34.8125 54.890625 23.390625 
Q 54.890625 11.625 47.5625 5.09375 
Q 40.234375 -1.421875 26.90625 -1.421875 
Q 22.3125 -1.421875 17.546875 -0.640625 
Q 12.796875 0.140625 7.71875 1.703125 
L 7.71875 11.625 
Q 12.109375 9.234375 16.796875 8.0625 
Q 21.484375 6.890625 26.703125 6.890625 
Q 35.15625 6.890625 40.078125 11.328125 
Q 45.015625 15.765625 45.015625 23.390625 
Q 45.015625 31 40.078125 35.4375 
Q 35.15625 39.890625 26.703125 39.890625 
Q 22.75 39.890625 18.8125 39.015625 
Q 14.890625 38.140625 10.796875 36.28125 
z
" id="BitstreamVeraSans-Roman-35"/>
      </defs>
      <g transform="translate(12.96 284.517708333)scale(0.12 -0.12)">
       <use xlink:href="#BitstreamVeraSans-Roman-35"/>
       <use x="63.623046875" xlink:href="#BitstreamVeraSans-Roman-30"/>
      </g>
     </g>
    </g>
    <g id="ytick_4">
     <g id="line2d_25">
      <g>
       <use style="stroke:#000000;stroke-width:0.5;" x="32.23" xlink:href="#mb539cd9240" y="215.5965625"/>
      </g>
     </g>
     <g id="line2d_26">
      <g>
       <use style="stroke:#000000;stroke-width:0.5;" x="548.77" xlink:href="#ma5fd13cd11" y="215.5965625"/>
      </g>
     </g>
     <g id="text_13">
      <!-- 60 -->
      <g transform="translate(12.96 218.9078125)scale(0.12 -0.12)">
       <use xlink:href="#BitstreamVeraSans-Roman-36"/>
       <use x="63.623046875" xlink:href="#BitstreamVeraSans-Roman-30"/>
      </g>
     </g>
    </g>
    <g id="ytick_5">
     <g id="line2d_27">
      <g>
       <use style="stroke:#000000;stroke-width:0.5;" x="32.23" xlink:href="#mb539cd9240" y="149.986666667"/>
      </g>
     </g>
     <g id="line2d_28">
      <g>
       <use style="stroke:#000000;stroke-width:0.5;" x="548.77" xlink:href="#ma5fd13cd11" y="149.986666667"/>
      </g>
     </g>
     <g id="text_14">
      <!-- 70 -->
      <defs>
       <path d="M 8.203125 72.90625 
L 55.078125 72.90625 
L 55.078125 68.703125 
L 28.609375 0 
L 18.3125 0 
L 43.21875 64.59375 
L 8.203125 64.59375 
z
" id="BitstreamVeraSans-Roman-37"/>
      </defs>
      <g transform="translate(12.96 153.297916667)scale(0.12 -0.12)">
       <use xlink:href="#BitstreamVeraSans-Roman-37"/>
       <use x="63.623046875" xlink:href="#BitstreamVeraSans-Roman-30"/>
      </g>
     </g>
    </g>
    <g id="ytick_6">
     <g id="line2d_29">
      <g>
       <use style="stroke:#000000;stroke-width:0.5;" x="32.23" xlink:href="#mb539cd9240" y="84.3767708333"/>
      </g>
     </g>
     <g id="line2d_30">
      <g>
       <use style="stroke:#000000;stroke-width:0.5;" x="548.77" xlink:href="#ma5fd13cd11" y="84.3767708333"/>
      </g>
     </g>
     <g id="text_15">
      <!-- 80 -->
      <g transform="translate(12.96 87.6880208333)scale(0.12 -0.12)">
       <use xlink:href="#BitstreamVeraSans-Roman-38"/>
       <use x="63.623046875" xlink:href="#BitstreamVeraSans-Roman-30"/>
      </g>
     </g>
    </g>
    <g id="ytick_7">
     <g id="line2d_31">
      <g>
       <use style="stroke:#000000;stroke-width:0.5;" x="32.23" xlink:href="#mb539cd9240" y="18.766875"/>
      </g>
     </g>
     <g id="line2d_32">
      <g>
       <use style="stroke:#000000;stroke-width:0.5;" x="548.77" xlink:href="#ma5fd13cd11" y="18.766875"/>
      </g>
     </g>
     <g id="text_16">
      <!-- 90 -->
      <defs>
       <path d="M 10.984375 1.515625 
L 10.984375 10.5 
Q 14.703125 8.734375 18.5 7.8125 
Q 22.3125 6.890625 25.984375 6.890625 
Q 35.75 6.890625 40.890625 13.453125 
Q 46.046875 20.015625 46.78125 33.40625 
Q 43.953125 29.203125 39.59375 26.953125 
Q 35.25 24.703125 29.984375 24.703125 
Q 19.046875 24.703125 12.671875 31.3125 
Q 6.296875 37.9375 6.296875 49.421875 
Q 6.296875 60.640625 12.9375 67.421875 
Q 19.578125 74.21875 30.609375 74.21875 
Q 43.265625 74.21875 49.921875 64.515625 
Q 56.59375 54.828125 56.59375 36.375 
Q 56.59375 19.140625 48.40625 8.859375 
Q 40.234375 -1.421875 26.421875 -1.421875 
Q 22.703125 -1.421875 18.890625 -0.6875 
Q 15.09375 0.046875 10.984375 1.515625 
M 30.609375 32.421875 
Q 37.25 32.421875 41.125 36.953125 
Q 45.015625 41.5 45.015625 49.421875 
Q 45.015625 57.28125 41.125 61.84375 
Q 37.25 66.40625 30.609375 66.40625 
Q 23.96875 66.40625 20.09375 61.84375 
Q 16.21875 57.28125 16.21875 49.421875 
Q 16.21875 41.5 20.09375 36.953125 
Q 23.96875 32.421875 30.609375 32.421875 
" id="BitstreamVeraSans-Roman-39"/>
      </defs>
      <g transform="translate(12.96 22.078125)scale(0.12 -0.12)">
       <use xlink:href="#BitstreamVeraSans-Roman-39"/>
       <use x="63.623046875" xlink:href="#BitstreamVeraSans-Roman-30"/>
      </g>
     </g>
    </g>
   </g>
  </g>
 </g>
 <defs>
  <clipPath id="pef83d1da18">
   <rect height="393.659375" width="516.54" x="32.23" y="18.766875"/>
  </clipPath>
 </defs>
</svg>
